<?xml version="1.0" encoding="us-ascii" standalone="no"?><svg xmlns="http://www.w3.org/2000/svg" xmlns:xlink="http://www.w3.org/1999/xlink" contentStyleType="text/css" height="405px" preserveAspectRatio="none" style="width:485px;height:405px;background:#FFFFFF;" version="1.1" viewBox="0 0 485 405" width="485px" zoomAndPan="magnify"><defs/><g><!--class MovieBaseInfo--><g id="elem_MovieBaseInfo"><polygon fill="#F1F1F1" points="9.5,7,9.5,7.2102,19.6429,6.5857,29.7857,7.1933,39.9286,7.3997,50.0714,6.2866,60.2143,6.9223,70.3571,6.5735,80.5,6.6165,90.6429,6.9318,100.7857,6.3086,110.9286,7.5536,121.0714,6.3697,131.2143,6.8022,141.3571,7.4319,151.5,6.9142,161.6429,7.0682,171.7857,6.9681,181.9286,7.1785,192.0714,7.2391,202.2143,7.5857,212.3571,7.6711,222.5,7,222.5866,7.2092,222.886,7.2249,223.2662,7.4357,223.6502,7.6556,223.8222,7.3637,224.2678,7.7322,224.4767,7.8188,224.3229,8.048,224.7251,8.5074,224.5547,8.7297,224.8325,9.1377,225,9.5,225.7416,9.5,224.9513,19.7101,225.1053,29.9201,225.3386,40.1302,225.4162,50.3403,224.9961,60.5503,225.2872,70.7604,224.4276,80.9705,225.2844,91.1806,225,101.3906,225.1688,101.4606,224.9905,101.8009,224.8959,102.1759,224.4119,102.3897,224.2134,102.7216,224.2678,103.1584,224.1885,102.967,223.9067,103.2867,223.5356,103.3908,223.294,103.8076,222.8313,103.6904,222.5,103.8906,222.5,103.5476,212.3571,104.1189,202.2143,103.2238,192.0714,103.3715,181.9286,104.5396,171.7857,104.3263,161.6429,104.6251,151.5,103.5688,141.3571,104.2098,131.2143,104.481,121.0714,103.4182,110.9286,103.7948,100.7857,104.0166,90.6429,104.5424,80.5,103.8864,70.3571,104.3532,60.2143,103.3368,50.0714,103.2134,39.9286,104.3942,29.7857,103.1737,19.6429,104.3996,9.5,103.8906,9.5264,103.9543,9.1123,103.6617,8.7478,103.4888,8.4979,103.5926,8.0476,103.2127,7.7322,103.1584,7.9145,103.2339,7.4156,102.7343,7.6295,102.53,7.442,102.1595,7.2219,101.7754,7,101.3906,7.0472,101.3906,7.7266,91.1806,7.6136,80.9705,7.1693,70.7604,7.2682,60.5503,6.8697,50.3403,7.7165,40.1302,7.1549,29.9201,7.1726,19.7101,7,9.5,6.8127,9.4224,7.0217,9.0948,7.4563,8.8606,7.5717,8.4942,7.5726,8.0803,7.7322,7.7322,7.6911,7.633,8.0579,7.5184,8.3518,7.228,8.8458,7.4206,9.2408,7.3742,9.5,7" style="stroke:#181818;stroke-width:0.5;"/><polygon fill="#ADD1B2" points="72.8108,25.6756,71.1984,27.8788,69.2912,31.1057,66.5636,33.2804,63.6974,34.4696,61.412,34.5728,58.4747,33.0855,55.7032,32.1139,53.5995,30.1412,52.4961,27.8828,51.8417,26.0845,51.2006,23.7357,50.16,21.7145,50.9596,19.741,51.6602,17.5792,54.2893,15.8695,56.139,13.6511,58.4284,12.9144,61.1501,12.2801,64.6404,12.657,66.5521,13.5585,68.7747,13.9672,71.4772,16.736,72.4193,19.659,72.8286,21.6534,72.365,24.9399" style="stroke:#181818;stroke-width:1.0;"/><path d="M64.7188,28.6406 Q64.1406,28.9375 63.5,29.0781 Q62.8594,29.2344 62.1563,29.2344 Q59.6563,29.2344 58.3281,27.5938 Q57.0156,25.9375 57.0156,22.8125 Q57.0156,19.6875 58.3281,18.0313 Q59.6563,16.375 62.1563,16.375 Q62.8594,16.375 63.5,16.5313 Q64.1563,16.6875 64.7188,16.9844 L64.7188,19.7031 Q64.0938,19.125 63.5,18.8594 Q62.9063,18.5781 62.2813,18.5781 Q60.9375,18.5781 60.25,19.6563 Q59.5625,20.7188 59.5625,22.8125 Q59.5625,24.9063 60.25,25.9844 Q60.9375,27.0469 62.2813,27.0469 Q62.9063,27.0469 63.5,26.7813 Q64.0938,26.5 64.7188,25.9219 L64.7188,28.6406 Z " fill="#000000"/><text fill="#000000" font-family="sans-serif" font-size="14" lengthAdjust="spacing" textLength="100" x="82.25" y="27.8467">MovieBaseInfo</text><path d="M8,39 L8,39.2802 L17.8182,38.4476 L27.6364,39.2577 L37.4545,39.5329 L47.2727,38.0488 L57.0909,38.8964 L66.9091,38.4313 L76.7273,38.4887 L86.5455,38.9091 L96.3636,38.0782 L106.1818,39.7382 L116,38.1596 L125.8182,38.7363 L135.6364,39.5759 L145.4545,38.8856 L155.2727,39.091 L165.0909,38.9574 L174.9091,39.238 L184.7273,39.3188 L194.5455,39.7809 L204.3636,39.8947 L214.1818,39.9057 L224,39 " fill="#F1F1F1" style="stroke:#181818;stroke-width:0.5;"/><text fill="#000000" font-family="sans-serif" font-size="14" lengthAdjust="spacing" textLength="60" x="13" y="55.9951">id: string</text><text fill="#000000" font-family="sans-serif" font-size="14" lengthAdjust="spacing" textLength="87" x="13" y="72.292">name: string</text><path d="M8,79.5938 L8,79.874 L17.8182,79.0413 L27.6364,79.8515 L37.4545,80.1267 L47.2727,78.6426 L57.0909,79.4901 L66.9091,79.0251 L76.7273,79.0824 L86.5455,79.5029 L96.3636,78.6719 L106.1818,80.3319 L116,78.7534 L125.8182,79.3301 L135.6364,80.1697 L145.4545,79.4794 L155.2727,79.6847 L165.0909,79.5512 L174.9091,79.8318 L184.7273,79.9126 L194.5455,80.3747 L204.3636,80.4885 L214.1818,80.4994 L224,79.5938 " fill="#F1F1F1" style="stroke:#181818;stroke-width:0.5;"/><text fill="#000000" font-family="sans-serif" font-size="14" lengthAdjust="spacing" textLength="206" x="13" y="96.5889">update(data: object): Promise</text></g><!--class MovieExtraInfo--><g id="elem_MovieExtraInfo"><polygon fill="#F1F1F1" points="262.5,7,262.5,7.2102,272.6429,6.5857,282.7857,7.1933,292.9286,7.3997,303.0714,6.2866,313.2143,6.9223,323.3571,6.5735,333.5,6.6165,343.6429,6.9318,353.7857,6.3086,363.9286,7.5536,374.0714,6.3697,384.2143,6.8022,394.3571,7.4319,404.5,6.9142,414.6429,7.0682,424.7857,6.9681,434.9286,7.1785,445.0714,7.2391,455.2143,7.5857,465.3571,7.6711,475.5,7,475.5866,7.2092,475.886,7.2249,476.2662,7.4357,476.6502,7.6556,476.8222,7.3637,477.2678,7.7322,477.4767,7.8188,477.3229,8.048,477.7251,8.5074,477.5547,8.7297,477.8325,9.1377,478,9.5,478.7416,9.5,477.9513,19.7101,478.1053,29.9201,478.3386,40.1302,478.4162,50.3403,477.9961,60.5503,478.2872,70.7604,477.4276,80.9705,478.2844,91.1806,478,101.3906,478.1688,101.4606,477.9905,101.8009,477.8959,102.1759,477.4119,102.3897,477.2134,102.7216,477.2678,103.1584,477.1885,102.967,476.9067,103.2867,476.5356,103.3908,476.294,103.8076,475.8313,103.6904,475.5,103.8906,475.5,103.5476,465.3571,104.1189,455.2143,103.2238,445.0714,103.3715,434.9286,104.5396,424.7857,104.3263,414.6429,104.6251,404.5,103.5688,394.3571,104.2098,384.2143,104.481,374.0714,103.4182,363.9286,103.7948,353.7857,104.0166,343.6429,104.5424,333.5,103.8864,323.3571,104.3532,313.2143,103.3368,303.0714,103.2134,292.9286,104.3942,282.7857,103.1737,272.6429,104.3996,262.5,103.8906,262.5264,103.9543,262.1123,103.6617,261.7478,103.4888,261.4979,103.5926,261.0476,103.2127,260.7322,103.1584,260.9145,103.2339,260.4156,102.7343,260.6295,102.53,260.442,102.1595,260.2219,101.7754,260,101.3906,260.0472,101.3906,260.7266,91.1806,260.6136,80.9705,260.1693,70.7604,260.2682,60.5503,259.8697,50.3403,260.7165,40.1302,260.1549,29.9201,260.1726,19.7101,260,9.5,259.8127,9.4224,260.0217,9.0948,260.4563,8.8606,260.5717,8.4942,260.5726,8.0803,260.7322,7.7322,260.6911,7.633,261.0579,7.5184,261.3518,7.228,261.8458,7.4206,262.2408,7.3742,262.5,7" style="stroke:#181818;stroke-width:0.5;"/><polygon fill="#ADD1B2" points="326.3108,25.6756,324.6984,27.8788,322.7912,31.1057,320.0636,33.2804,317.1974,34.4696,314.912,34.5728,311.9747,33.0855,309.2032,32.1139,307.0995,30.1412,305.9961,27.8828,305.3417,26.0845,304.7006,23.7357,303.66,21.7145,304.4596,19.741,305.1602,17.5792,307.7893,15.8695,309.639,13.6511,311.9284,12.9144,314.6501,12.2801,318.1404,12.657,320.0521,13.5585,322.2747,13.9672,324.9772,16.736,325.9193,19.659,326.3286,21.6534,325.865,24.9399" style="stroke:#181818;stroke-width:1.0;"/><path d="M318.2188,28.6406 Q317.6406,28.9375 317,29.0781 Q316.3594,29.2344 315.6563,29.2344 Q313.1563,29.2344 311.8281,27.5938 Q310.5156,25.9375 310.5156,22.8125 Q310.5156,19.6875 311.8281,18.0313 Q313.1563,16.375 315.6563,16.375 Q316.3594,16.375 317,16.5313 Q317.6563,16.6875 318.2188,16.9844 L318.2188,19.7031 Q317.5938,19.125 317,18.8594 Q316.4063,18.5781 315.7813,18.5781 Q314.4375,18.5781 313.75,19.6563 Q313.0625,20.7188 313.0625,22.8125 Q313.0625,24.9063 313.75,25.9844 Q314.4375,27.0469 315.7813,27.0469 Q316.4063,27.0469 317,26.7813 Q317.5938,26.5 318.2188,25.9219 L318.2188,28.6406 Z " fill="#000000"/><text fill="#000000" font-family="sans-serif" font-size="14" lengthAdjust="spacing" textLength="99" x="335.75" y="27.8467">MovieExtraInfo</text><path d="M261,39 L261,39.2802 L270.8182,38.4476 L280.6364,39.2577 L290.4545,39.5329 L300.2727,38.0488 L310.0909,38.8964 L319.9091,38.4313 L329.7273,38.4887 L339.5455,38.9091 L349.3636,38.0782 L359.1818,39.7382 L369,38.1596 L378.8182,38.7363 L388.6364,39.5759 L398.4545,38.8856 L408.2727,39.091 L418.0909,38.9574 L427.9091,39.238 L437.7273,39.3188 L447.5455,39.7809 L457.3636,39.8947 L467.1818,39.9057 L477,39 " fill="#F1F1F1" style="stroke:#181818;stroke-width:0.5;"/><text fill="#000000" font-family="sans-serif" font-size="14" lengthAdjust="spacing" textLength="60" x="266" y="55.9951">id: string</text><text fill="#000000" font-family="sans-serif" font-size="14" lengthAdjust="spacing" textLength="89" x="266" y="72.292">genre: string</text><path d="M261,79.5938 L261,79.874 L270.8182,79.0413 L280.6364,79.8515 L290.4545,80.1267 L300.2727,78.6426 L310.0909,79.4901 L319.9091,79.0251 L329.7273,79.0824 L339.5455,79.5029 L349.3636,78.6719 L359.1818,80.3319 L369,78.7534 L378.8182,79.3301 L388.6364,80.1697 L398.4545,79.4794 L408.2727,79.6847 L418.0909,79.5512 L427.9091,79.8318 L437.7273,79.9126 L447.5455,80.3747 L457.3636,80.4885 L467.1818,80.4994 L477,79.5938 " fill="#F1F1F1" style="stroke:#181818;stroke-width:0.5;"/><text fill="#000000" font-family="sans-serif" font-size="14" lengthAdjust="spacing" textLength="206" x="266" y="96.5889">update(data: object): Promise</text></g><g id="elem_Magic"><polygon fill="#F1F1F1" points="166,164,166,164.2102,176.1333,163.5857,186.2667,164.1933,196.4,164.3997,206.5333,163.2866,216.6667,163.9223,226.8,163.5735,236.9333,163.6165,247.0667,163.9318,257.2,163.3086,267.3333,164.5536,277.4667,163.3697,287.6,163.8022,297.7333,164.4319,307.8667,163.9142,318,164,318.0227,164,317.9894,172.9188,318.0595,181.8375,318.0797,190.7563,318.1952,199.675,318,208.5938,318,209.2648,307.8667,209.273,297.7333,208.8484,287.6,209.0573,277.4667,209.296,267.3333,207.8726,257.2,209.2723,247.0667,208.2972,236.9333,209.1276,226.8,208.0987,216.6667,208.5253,206.5333,209.3354,196.4,208.545,186.2667,208.6991,176.1333,208.9324,166,208.5938,166.1387,208.5938,165.9987,199.675,166.0957,190.7563,165.8092,181.8375,166.0948,172.9188,166,164" style="stroke:#181818;stroke-width:0.5;"/><text fill="#000000" font-family="sans-serif" font-size="14" lengthAdjust="spacing" textLength="40" x="222" y="178.9951">Magic</text><path d="M167,184.2969 L167,184.5771 L177,183.7444 L187,184.5546 L197,184.8298 L207,183.3457 L217,184.1933 L227,183.7282 L237,183.7855 L247,184.206 L257,183.375 L267,185.0351 L277,183.4565 L287,184.0332 L297,184.8728 L307,184.1825 L317,184.2969 " fill="#F1F1F1" style="stroke:#181818;stroke-width:0.5;"/><text fill="#000000" font-family="sans-serif" font-size="14" font-style="italic" lengthAdjust="spacing" textLength="140" x="172" y="201.292">Magic happens here</text></g><!--class MovieInfoV2--><g id="elem_MovieInfoV2"><polygon fill="#F1F1F1" points="135.5,269,135.5,269.2102,145.6429,268.5857,155.7857,269.1933,165.9286,269.3997,176.0714,268.2866,186.2143,268.9223,196.3571,268.5735,206.5,268.6165,216.6429,268.9318,226.7857,268.3086,236.9286,269.5536,247.0714,268.3697,257.2143,268.8022,267.3571,269.4319,277.5,268.9142,287.6429,269.0682,297.7857,268.9681,307.9286,269.1785,318.0714,269.2391,328.2143,269.5857,338.3571,269.6711,348.5,269,348.5866,269.2092,348.886,269.2249,349.2662,269.4357,349.6502,269.6556,349.8222,269.3637,350.2678,269.7322,350.4767,269.8188,350.3229,270.048,350.7251,270.5074,350.5547,270.7297,350.8325,271.1377,351,271.5,351.7416,271.5,350.9513,281.8737,351.1053,292.2474,351.3386,302.6211,351.4162,312.9948,350.9961,323.3685,351.2872,333.7422,350.4276,344.1159,351.2844,354.4896,351.5482,364.8633,351.4445,375.237,351.613,385.6107,351,395.9844,350.8512,395.9228,350.6527,396.2547,350.5157,396.6122,350.5425,397.0375,350.3537,397.3735,350.2678,397.7521,350.3547,397.962,349.8919,397.8448,349.5169,397.9394,349.2362,398.2618,348.7685,398.1326,348.5,398.4844,348.5,397.9652,338.3571,399.1333,328.2143,398.92,318.0714,399.2189,307.9286,398.1626,297.7857,398.8036,287.6429,399.0748,277.5,398.012,267.3571,398.3885,257.2143,398.6104,247.0714,399.1361,236.9286,398.4802,226.7857,398.9469,216.6429,397.9306,206.5,397.8071,196.3571,398.988,186.2143,397.7674,176.0714,398.9933,165.9286,398.691,155.7857,398.2165,145.6429,398.1306,135.5,398.4844,135.5585,398.6257,135.1083,398.2457,134.8684,398.3738,134.3688,397.8748,134.1645,398.0887,133.7322,397.7521,133.8814,397.8139,133.6612,397.4298,133.4539,397.0511,133.5167,396.7842,133.3354,396.4162,133,395.9844,133.1693,395.9844,133.2682,385.6107,132.8697,375.237,133.7165,364.8633,133.1549,354.4896,133.1726,344.1159,132.3916,333.7422,132.5948,323.3685,133.5307,312.9948,133.4298,302.6211,132.9571,292.2474,132.6778,281.8737,133,271.5,132.9326,271.4721,132.9351,271.0589,133.4206,270.8458,133.6671,270.5337,133.7479,270.1529,133.7322,269.7322,133.8209,269.9462,134.0683,269.5437,134.4505,269.4662,134.7435,269.1735,135.1827,269.2339,135.5,269" style="stroke:#181818;stroke-width:0.5;"/><polygon fill="#ADD1B2" points="207.3108,287.6756,205.6984,289.8788,203.7912,293.1057,201.0636,295.2804,198.1974,296.4696,195.912,296.5728,192.9747,295.0855,190.2032,294.1139,188.0995,292.1412,186.9961,289.8828,186.3417,288.0845,185.7006,285.7357,184.66,283.7145,185.4596,281.741,186.1602,279.5792,188.7893,277.8695,190.639,275.6511,192.9284,274.9144,195.6501,274.2801,199.1404,274.657,201.0521,275.5585,203.2747,275.9672,205.9772,278.736,206.9193,281.659,207.3286,283.6534,206.865,286.9399" style="stroke:#181818;stroke-width:1.0;"/><path d="M199.2188,290.6406 Q198.6406,290.9375 198,291.0781 Q197.3594,291.2344 196.6563,291.2344 Q194.1563,291.2344 192.8281,289.5938 Q191.5156,287.9375 191.5156,284.8125 Q191.5156,281.6875 192.8281,280.0313 Q194.1563,278.375 196.6563,278.375 Q197.3594,278.375 198,278.5313 Q198.6563,278.6875 199.2188,278.9844 L199.2188,281.7031 Q198.5938,281.125 198,280.8594 Q197.4063,280.5781 196.7813,280.5781 Q195.4375,280.5781 194.75,281.6563 Q194.0625,282.7188 194.0625,284.8125 Q194.0625,286.9063 194.75,287.9844 Q195.4375,289.0469 196.7813,289.0469 Q197.4063,289.0469 198,288.7813 Q198.5938,288.5 199.2188,287.9219 L199.2188,290.6406 Z " fill="#000000"/><text fill="#000000" font-family="sans-serif" font-size="14" lengthAdjust="spacing" textLength="83" x="216.75" y="289.8467">MovieInfoV2</text><path d="M134,301 L134,301.2802 L143.8182,300.4476 L153.6364,301.2577 L163.4545,301.5329 L173.2727,300.0488 L183.0909,300.8964 L192.9091,300.4313 L202.7273,300.4887 L212.5455,300.9091 L222.3636,300.0782 L232.1818,301.7382 L242,300.1596 L251.8182,300.7363 L261.6364,301.5759 L271.4545,300.8856 L281.2727,301.091 L291.0909,300.9574 L300.9091,301.238 L310.7273,301.3188 L320.5455,301.7809 L330.3636,301.8947 L340.1818,301.9057 L350,301 " fill="#F1F1F1" style="stroke:#181818;stroke-width:0.5;"/><text fill="#000000" font-family="sans-serif" font-size="14" lengthAdjust="spacing" textLength="60" x="139" y="317.9951">id: string</text><text fill="#000000" font-family="sans-serif" font-size="14" lengthAdjust="spacing" textLength="73" x="139" y="334.292">title: string</text><text fill="#000000" font-family="sans-serif" font-size="14" lengthAdjust="spacing" textLength="92" x="139" y="350.5889">year: number</text><text fill="#000000" font-family="sans-serif" font-size="14" lengthAdjust="spacing" textLength="89" x="139" y="366.8857">genre: string</text><path d="M134,374.1875 L134,374.4677 L143.8182,373.6351 L153.6364,374.4452 L163.4545,374.7204 L173.2727,373.2363 L183.0909,374.0839 L192.9091,373.6188 L202.7273,373.6762 L212.5455,374.0966 L222.3636,373.2657 L232.1818,374.9257 L242,373.3471 L251.8182,373.9238 L261.6364,374.7634 L271.4545,374.0731 L281.2727,374.2785 L291.0909,374.1449 L300.9091,374.4255 L310.7273,374.5063 L320.5455,374.9684 L330.3636,375.0822 L340.1818,375.0932 L350,374.1875 " fill="#F1F1F1" style="stroke:#181818;stroke-width:0.5;"/><text fill="#000000" font-family="sans-serif" font-size="14" lengthAdjust="spacing" textLength="206" x="139" y="391.1826">update(data: object): Promise</text></g><!--link MovieBaseInfo to Magic--><g id="link_MovieBaseInfo_Magic"><path d="M162.56,104.17 L162.7605,104.3658 L168.9836,110.764 L176.3818,118.3101 L183.3974,125.4824 L189.1546,131.4253 L196.5796,138.9976 L203.0657,145.6526 L209.9255,152.6727 L217.11,160.01 " fill="none" style="stroke:#181818;stroke-width:1.0;"/><polygon fill="#181818" points="220.95,163.95,221.0157,163.9742,220.1394,162.054,219.6484,160.2757,219.0319,158.4512,218.0027,156.4746,217.5448,154.7085,217.5189,154.7082,217.3867,155.8378,217.385,156.9692,217.4741,158.102,217.2504,159.2303,217.4648,160.3648,217.4674,160.5494,216.3306,160.1388,215.2014,160.2669,214.0731,160.4608,212.9394,160.2722,211.8085,160.2848,211.817,160.306,213.6329,161.008,215.4873,161.8061,217.3231,162.5579,219.1944,163.3982,220.95,163.95" style="stroke:#181818;stroke-width:1.0;"/></g><!--link MovieExtraInfo to Magic--><g id="link_MovieExtraInfo_Magic"><path d="M322.07,104.17 L322.2697,104.3666 L314.8039,110.7624 L308.5086,118.3108 L301.8322,125.4839 L293.9022,131.4226 L287.6337,138.9973 L280.4298,145.651 L273.5981,152.6713 L267.09,160.01 " fill="none" style="stroke:#181818;stroke-width:1.0;"/><polygon fill="#181818" points="263.22,163.95,263.2457,164.0152,265.0021,163.0995,266.909,162.566,268.7669,161.908,270.4636,160.8409,272.3835,160.3402,272.3833,160.3142,271.251,160.2072,270.1198,160.2306,268.9893,160.3449,267.8563,160.1463,266.7268,160.386,266.9113,160.3874,266.5075,159.2529,266.6425,158.1228,266.8433,156.9931,266.6616,155.8604,266.681,154.7293,266.7023,154.7373,265.9788,156.5697,265.3523,158.4385,264.679,160.2897,264.095,162.1745,263.22,163.95" style="stroke:#181818;stroke-width:1.0;"/></g><!--link Magic to MovieInfoV2--><g id="link_Magic_MovieInfoV2"><path d="M242,209.21 L242.2802,209.21 L241.4476,220.138 L242.2577,231.066 L242.5329,241.994 L241.0488,252.922 L242,263.85 " fill="none" style="stroke:#181818;stroke-width:1.0;"/><polygon fill="#181818" points="242,268.87,242.064,268.8985,242.6738,267.0139,243.6589,265.2962,244.5217,263.5241,244.9827,261.5734,246,259.87,245.9817,259.8517,245.0995,260.5695,244.3096,261.3796,243.5839,262.2539,242.637,262.907,242,263.87,242.1305,264.0005,241.0514,262.9214,240.3534,262.2234,239.7018,261.5718,238.7798,260.6498,238,259.87,238.0208,259.8792,238.7903,261.6657,239.6544,263.4942,240.4728,265.3024,241.3784,267.1493,242,268.87" style="stroke:#181818;stroke-width:1.0;"/></g><!--SRC=[dP0x2y9G38Nt-oiowb0AZdTm41mS2axkQHlRgpOjkQaFnFzk7uYzw20kXvm4JZwEFpfkKB224Zc_Y5Cb1fMMZCbEw3qazTdH2ZrjU5_3tG2ut89NSLnqXh6YYMsR79LcdQ25EZrGfdCBMwahvmdC8qXTNrNmUsn1B3_dzh7Z3X8iN6O61GjnF4ubDWsnXvA4uZXWwD_l5fy0wlGq1RWHYWLkgvJa7xwmnYXQlb338YQ7WNpmRqxp1000]--></g></svg>