<?xml version="1.0" encoding="UTF-8" standalone="no"?><svg xmlns="http://www.w3.org/2000/svg" xmlns:xlink="http://www.w3.org/1999/xlink" contentStyleType="text/css" height="611px" preserveAspectRatio="none" style="width:428px;height:611px;background:#FFFFFF;" version="1.1" viewBox="0 0 428 611" width="428px" zoomAndPan="magnify"><defs/><g><text fill="#000000" font-family="sans-serif" font-size="14" font-weight="bold" lengthAdjust="spacing" textLength="260" x="86" y="27.9951">Ember Route/Controller life cycle</text><rect fill="#FFFFFF" height="63.2656" style="stroke:#181818;stroke-width:1.0;" width="10" x="183" y="213.125"/><rect fill="#FFFFFF" height="56.1328" style="stroke:#181818;stroke-width:1.0;" width="10" x="334" y="347.6563"/><line style="stroke:#181818;stroke-width:0.5;stroke-dasharray:5.0,5.0;" x1="79" x2="79" y1="73.5938" y2="453.9219"/><line style="stroke:#A80036;stroke-width:1.0;stroke-dasharray:1.0,4.0;" x1="79" x2="79" y1="453.9219" y2="494.7266"/><line style="stroke:#181818;stroke-width:0.5;stroke-dasharray:5.0,5.0;" x1="79" x2="79" y1="494.7266" y2="575.9922"/><line style="stroke:#181818;stroke-width:0.5;stroke-dasharray:5.0,5.0;" x1="188" x2="188" y1="73.5938" y2="453.9219"/><line style="stroke:#A80036;stroke-width:1.0;stroke-dasharray:1.0,4.0;" x1="188" x2="188" y1="453.9219" y2="494.7266"/><line style="stroke:#181818;stroke-width:0.5;stroke-dasharray:5.0,5.0;" x1="188" x2="188" y1="494.7266" y2="575.9922"/><line style="stroke:#181818;stroke-width:0.5;stroke-dasharray:5.0,5.0;" x1="338.5" x2="338.5" y1="73.5938" y2="453.9219"/><line style="stroke:#A80036;stroke-width:1.0;stroke-dasharray:1.0,4.0;" x1="338.5" x2="338.5" y1="453.9219" y2="494.7266"/><line style="stroke:#181818;stroke-width:0.5;stroke-dasharray:5.0,5.0;" x1="338.5" x2="338.5" y1="494.7266" y2="575.9922"/><rect fill="#E2E2F0" height="30.2969" rx="2.5" ry="2.5" style="stroke:#181818;stroke-width:0.5;" width="141" x="9" y="42.2969"/><text fill="#000000" font-family="sans-serif" font-size="14" lengthAdjust="spacing" textLength="127" x="16" y="62.292">Data Management</text><rect fill="#E2E2F0" height="30.2969" rx="2.5" ry="2.5" style="stroke:#181818;stroke-width:0.5;" width="141" x="9" y="574.9922"/><text fill="#000000" font-family="sans-serif" font-size="14" lengthAdjust="spacing" textLength="127" x="16" y="594.9873">Data Management</text><rect fill="#E2E2F0" height="30.2969" rx="2.5" ry="2.5" style="stroke:#181818;stroke-width:0.5;" width="56" x="160" y="42.2969"/><text fill="#000000" font-family="sans-serif" font-size="14" lengthAdjust="spacing" textLength="42" x="167" y="62.292">Route</text><rect fill="#E2E2F0" height="30.2969" rx="2.5" ry="2.5" style="stroke:#181818;stroke-width:0.5;" width="56" x="160" y="574.9922"/><text fill="#000000" font-family="sans-serif" font-size="14" lengthAdjust="spacing" textLength="42" x="167" y="594.9873">Route</text><rect fill="#E2E2F0" height="30.2969" rx="2.5" ry="2.5" style="stroke:#181818;stroke-width:0.5;" width="81" x="298.5" y="42.2969"/><text fill="#000000" font-family="sans-serif" font-size="14" lengthAdjust="spacing" textLength="67" x="305.5" y="62.292">Controller</text><rect fill="#E2E2F0" height="30.2969" rx="2.5" ry="2.5" style="stroke:#181818;stroke-width:0.5;" width="81" x="298.5" y="574.9922"/><text fill="#000000" font-family="sans-serif" font-size="14" lengthAdjust="spacing" textLength="67" x="305.5" y="594.9873">Controller</text><rect fill="#FFFFFF" height="63.2656" style="stroke:#181818;stroke-width:1.0;" width="10" x="183" y="213.125"/><rect fill="#FFFFFF" height="56.1328" style="stroke:#181818;stroke-width:1.0;" width="10" x="334" y="347.6563"/><polygon fill="#181818" points="327,100.7266,337,104.7266,327,108.7266,331,104.7266" style="stroke:#181818;stroke-width:1.0;"/><line style="stroke:#181818;stroke-width:1.0;" x1="188" x2="333" y1="104.7266" y2="104.7266"/><text fill="#000000" font-family="sans-serif" font-size="13" lengthAdjust="spacing" textLength="127" x="195" y="99.6606">set(...queryParams)</text><polygon fill="#181818" points="199,129.8594,189,133.8594,199,137.8594,195,133.8594" style="stroke:#181818;stroke-width:1.0;"/><line style="stroke:#181818;stroke-width:1.0;stroke-dasharray:2.0,2.0;" x1="193" x2="338" y1="133.8594" y2="133.8594"/><text fill="#000000" font-family="sans-serif" font-size="13" lengthAdjust="spacing" textLength="85" x="205" y="128.7935">queryParams</text><line style="stroke:#181818;stroke-width:1.0;" x1="188" x2="230" y1="162.9922" y2="162.9922"/><line style="stroke:#181818;stroke-width:1.0;" x1="230" x2="230" y1="162.9922" y2="175.9922"/><line style="stroke:#181818;stroke-width:1.0;" x1="189" x2="230" y1="175.9922" y2="175.9922"/><polygon fill="#181818" points="199,171.9922,189,175.9922,199,179.9922,195,175.9922" style="stroke:#181818;stroke-width:1.0;"/><text fill="#000000" font-family="sans-serif" font-size="13" lengthAdjust="spacing" textLength="89" x="195" y="157.9263">beforeModel()</text><line style="stroke:#181818;stroke-width:1.0;" x1="188" x2="235" y1="200.125" y2="200.125"/><line style="stroke:#181818;stroke-width:1.0;" x1="235" x2="235" y1="200.125" y2="213.125"/><line style="stroke:#181818;stroke-width:1.0;" x1="194" x2="235" y1="213.125" y2="213.125"/><polygon fill="#181818" points="204,209.125,194,213.125,204,217.125,200,213.125" style="stroke:#181818;stroke-width:1.0;"/><text fill="#000000" font-family="sans-serif" font-size="13" lengthAdjust="spacing" textLength="50" x="200" y="195.0591">model()</text><polygon fill="#181818" points="90.5,243.2578,80.5,247.2578,90.5,251.2578,86.5,247.2578" style="stroke:#181818;stroke-width:1.0;"/><line style="stroke:#181818;stroke-width:1.0;" x1="84.5" x2="182" y1="247.2578" y2="247.2578"/><text fill="#000000" font-family="sans-serif" font-size="13" lengthAdjust="spacing" textLength="42" x="96.5" y="242.1919">fetch()</text><polygon fill="#181818" points="176,272.3906,186,276.3906,176,280.3906,180,276.3906" style="stroke:#181818;stroke-width:1.0;"/><line style="stroke:#181818;stroke-width:1.0;stroke-dasharray:2.0,2.0;" x1="79.5" x2="182" y1="276.3906" y2="276.3906"/><text fill="#000000" font-family="sans-serif" font-size="13" lengthAdjust="spacing" textLength="40" x="86.5" y="271.3247">model</text><line style="stroke:#181818;stroke-width:1.0;" x1="188" x2="230" y1="305.5234" y2="305.5234"/><line style="stroke:#181818;stroke-width:1.0;" x1="230" x2="230" y1="305.5234" y2="318.5234"/><line style="stroke:#181818;stroke-width:1.0;" x1="189" x2="230" y1="318.5234" y2="318.5234"/><polygon fill="#181818" points="199,314.5234,189,318.5234,199,322.5234,195,318.5234" style="stroke:#181818;stroke-width:1.0;"/><text fill="#000000" font-family="sans-serif" font-size="13" lengthAdjust="spacing" textLength="78" x="195" y="300.4575">afterModel()</text><polygon fill="#181818" points="322,343.6563,332,347.6563,322,351.6563,326,347.6563" style="stroke:#181818;stroke-width:1.0;"/><line style="stroke:#181818;stroke-width:1.0;" x1="188" x2="328" y1="347.6563" y2="347.6563"/><text fill="#000000" font-family="sans-serif" font-size="13" lengthAdjust="spacing" textLength="108" x="195" y="342.5903">setupController()</text><line style="stroke:#181818;stroke-width:1.0;" x1="344" x2="386" y1="376.7891" y2="376.7891"/><line style="stroke:#181818;stroke-width:1.0;" x1="386" x2="386" y1="376.7891" y2="389.7891"/><line style="stroke:#181818;stroke-width:1.0;" x1="345" x2="386" y1="389.7891" y2="389.7891"/><polygon fill="#181818" points="355,385.7891,345,389.7891,355,393.7891,351,389.7891" style="stroke:#181818;stroke-width:1.0;"/><text fill="#000000" font-family="sans-serif" font-size="13" lengthAdjust="spacing" textLength="70" x="351" y="371.7231">set(model)</text><polygon fill="#181818" points="199,399.7891,189,403.7891,199,407.7891,195,403.7891" style="stroke:#181818;stroke-width:1.0;"/><line style="stroke:#181818;stroke-width:1.0;stroke-dasharray:2.0,2.0;" x1="193" x2="338" y1="403.7891" y2="403.7891"/><line style="stroke:#181818;stroke-width:1.0;" x1="188" x2="230" y1="432.9219" y2="432.9219"/><line style="stroke:#181818;stroke-width:1.0;" x1="230" x2="230" y1="432.9219" y2="445.9219"/><line style="stroke:#181818;stroke-width:1.0;" x1="189" x2="230" y1="445.9219" y2="445.9219"/><polygon fill="#181818" points="199,441.9219,189,445.9219,199,449.9219,195,445.9219" style="stroke:#181818;stroke-width:1.0;"/><text fill="#000000" font-family="sans-serif" font-size="13" lengthAdjust="spacing" textLength="91" x="195" y="427.856">didTransition()</text><text fill="#000000" font-family="sans-serif" font-size="11" lengthAdjust="spacing" textLength="74" x="172.25" y="478.1323">When leaving</text><line style="stroke:#181818;stroke-width:1.0;" x1="188" x2="230" y1="515.8594" y2="515.8594"/><line style="stroke:#181818;stroke-width:1.0;" x1="230" x2="230" y1="515.8594" y2="528.8594"/><line style="stroke:#181818;stroke-width:1.0;" x1="189" x2="230" y1="528.8594" y2="528.8594"/><polygon fill="#181818" points="199,524.8594,189,528.8594,199,532.8594,195,528.8594" style="stroke:#181818;stroke-width:1.0;"/><text fill="#000000" font-family="sans-serif" font-size="13" lengthAdjust="spacing" textLength="80" x="195" y="510.7935">willTransition</text><path d="M5,503.2266 L5,528.2266 L183,528.2266 L183,513.2266 L173,503.2266 L5,503.2266 " fill="#FEFFDD" style="stroke:#181818;stroke-width:0.5;"/><path d="M173,503.2266 L173,513.2266 L183,513.2266 L173,503.2266 " fill="#FEFFDD" style="stroke:#181818;stroke-width:0.5;"/><text fill="#000000" font-family="sans-serif" font-size="13" lengthAdjust="spacing" textLength="157" x="11" y="520.2935">willTransition is an action</text><polygon fill="#181818" points="327,553.9922,337,557.9922,327,561.9922,331,557.9922" style="stroke:#181818;stroke-width:1.0;"/><line style="stroke:#181818;stroke-width:1.0;" x1="188" x2="333" y1="557.9922" y2="557.9922"/><text fill="#000000" font-family="sans-serif" font-size="13" lengthAdjust="spacing" textLength="105" x="195" y="552.9263">resetController()</text><!--SRC=[RP51Ry8m38Nl-HKM9pYqkoEqmyQEIDE4jBDf7R2K9btgWlZtymfQqwQtwlDxxlEBi3Y2Z-P44Rv2B_Jo7hp4u9m2nvQWkbUEZ6an2bVSeXVOlm5siDgZ81pGuvaQyhAQQ8Pb4p8kDcQOGl6QGDX2Hx8ko_AdftZ_n8XDjtagTqKnbIQQSTdZOmidiY7I8TJarfjyt3m7M0bVKT4ZgrwrA_v5bgIwg4XfCVUQccRUx1zeXMAMO7vjtuua3PHKbLYMwXhoBBUKfane5hNc-XZHTomSlAOm-WJmVI4FZl3A_WmAJEwxiNEZqVYWr96LR0JS0Nhu2wEwvJ8YwJMJCdu1]--></g></svg>