<?xml version="1.0" encoding="UTF-8" standalone="no"?><svg xmlns="http://www.w3.org/2000/svg" xmlns:xlink="http://www.w3.org/1999/xlink" contentScriptType="application/ecmascript" contentStyleType="text/css" height="699px" preserveAspectRatio="none" style="width:965px;height:699px;" version="1.1" viewBox="0 0 965 699" width="965px" zoomAndPan="magnify"><defs><filter height="300%" id="f1u35vqu74z8cu" width="300%" x="-1" y="-1"><feGaussianBlur result="blurOut" stdDeviation="2.0"/><feColorMatrix in="blurOut" result="blurOut2" type="matrix" values="0 0 0 0 0 0 0 0 0 0 0 0 0 0 0 0 0 0 .4 0"/><feOffset dx="4.0" dy="4.0" in="blurOut2" result="blurOut3"/><feBlend in="SourceGraphic" in2="blurOut3" mode="normal"/></filter></defs><g><!--MD5=[6c13a2f27bd991dc1b56c4a736ad2f53]
cluster unfiltered--><rect fill="#FEFECE" filter="url(#f1u35vqu74z8cu)" height="275" rx="12.5" ry="12.5" style="stroke: #A80036; stroke-width: 1.5;" width="576" x="377.5" y="413"/><rect fill="#FFFFFF" height="242.5117" rx="12.5" ry="12.5" style="stroke: #FFFFFF; stroke-width: 1.0;" width="570" x="380.5" y="442.4883"/><line style="stroke: #A80036; stroke-width: 1.5;" x1="377.5" x2="953.5" y1="439.4883" y2="439.4883"/><text fill="#000000" font-family="sans-serif" font-size="14" lengthAdjust="spacingAndGlyphs" textLength="67" x="632" y="430.5352">unfiltered</text><rect fill="#FEFECE" filter="url(#f1u35vqu74z8cu)" height="50.6211" rx="12.5" ry="12.5" style="stroke: #A80036; stroke-width: 1.5;" width="97" x="601" y="613"/><line style="stroke: #A80036; stroke-width: 1.5;" x1="601" x2="698" y1="639.4883" y2="639.4883"/><text fill="#000000" font-family="sans-serif" font-size="14" lengthAdjust="spacingAndGlyphs" textLength="56" x="621.5" y="631.5352">fetching</text><text fill="#000000" font-family="sans-serif" font-size="12" lengthAdjust="spacingAndGlyphs" textLength="77" x="606" y="656.0898">invoke / filter</text><rect fill="#FEFECE" filter="url(#f1u35vqu74z8cu)" height="50.6211" rx="12.5" ry="12.5" style="stroke: #A80036; stroke-width: 1.5;" width="163" x="766" y="463"/><line style="stroke: #A80036; stroke-width: 1.5;" x1="766" x2="929" y1="489.4883" y2="489.4883"/><text fill="#000000" font-family="sans-serif" font-size="14" lengthAdjust="spacingAndGlyphs" textLength="70" x="812.5" y="481.5352">with items</text><text fill="#000000" font-family="sans-serif" font-size="12" lengthAdjust="spacingAndGlyphs" textLength="143" x="771" y="506.0898">entry / postProcessItems</text><rect fill="#FEFECE" filter="url(#f1u35vqu74z8cu)" height="64.7539" rx="12.5" ry="12.5" style="stroke: #A80036; stroke-width: 1.5;" width="163" x="568" y="456"/><line style="stroke: #A80036; stroke-width: 1.5;" x1="568" x2="731" y1="482.4883" y2="482.4883"/><text fill="#000000" font-family="sans-serif" font-size="14" lengthAdjust="spacingAndGlyphs" textLength="42" x="628.5" y="474.5352">empty</text><text fill="#000000" font-family="sans-serif" font-size="12" lengthAdjust="spacingAndGlyphs" textLength="102" x="573" y="499.0898">entry / clearitems</text><text fill="#000000" font-family="sans-serif" font-size="12" lengthAdjust="spacingAndGlyphs" textLength="143" x="573" y="513.2227">entry / postProcessItems</text><rect fill="#FEFECE" filter="url(#f1u35vqu74z8cu)" height="50.6211" rx="12.5" ry="12.5" style="stroke: #A80036; stroke-width: 1.5;" width="112" x="420.5" y="463"/><line style="stroke: #A80036; stroke-width: 1.5;" x1="420.5" x2="532.5" y1="489.4883" y2="489.4883"/><text fill="#000000" font-family="sans-serif" font-size="14" lengthAdjust="spacingAndGlyphs" textLength="52" x="450.5" y="481.5352">errored</text><text fill="#000000" font-family="sans-serif" font-size="12" lengthAdjust="spacingAndGlyphs" textLength="92" x="425.5" y="506.0898">exit / clearError</text><ellipse cx="555.5" cy="638.5" fill="#000000" filter="url(#f1u35vqu74z8cu)" rx="10" ry="10" style="stroke: none; stroke-width: 1.0;"/><ellipse cx="681.5" cy="18" fill="#000000" filter="url(#f1u35vqu74z8cu)" rx="10" ry="10" style="stroke: none; stroke-width: 1.0;"/><rect fill="#FEFECE" filter="url(#f1u35vqu74z8cu)" height="50.6211" rx="12.5" ry="12.5" style="stroke: #A80036; stroke-width: 1.5;" width="99" x="632" y="182.5"/><line style="stroke: #A80036; stroke-width: 1.5;" x1="632" x2="731" y1="208.9883" y2="208.9883"/><text fill="#000000" font-family="sans-serif" font-size="14" lengthAdjust="spacingAndGlyphs" textLength="79" x="642" y="201.0352">prefetching</text><text fill="#000000" font-family="sans-serif" font-size="12" lengthAdjust="spacingAndGlyphs" textLength="77" x="637" y="225.5898">invoke / filter</text><rect fill="#FEFECE" filter="url(#f1u35vqu74z8cu)" height="238.4883" rx="12.5" ry="12.5" style="stroke: #A80036; stroke-width: 1.5;" width="521" x="6" y="89"/><rect fill="#FFFFFF" height="206" rx="12.5" ry="12.5" style="stroke: #FFFFFF; stroke-width: 1.0;" width="515" x="9" y="118.4883"/><line style="stroke: #A80036; stroke-width: 1.5;" x1="6" x2="527" y1="115.4883" y2="115.4883"/><text fill="#000000" font-family="sans-serif" font-size="14" lengthAdjust="spacingAndGlyphs" textLength="49" x="242" y="107.5352">filtered</text><rect fill="#FEFECE" filter="url(#f1u35vqu74z8cu)" height="50.6211" rx="12.5" ry="12.5" style="stroke: #A80036; stroke-width: 1.5;" width="97" x="180.5" y="261.4883"/><line style="stroke: #A80036; stroke-width: 1.5;" x1="180.5" x2="277.5" y1="287.9766" y2="287.9766"/><text fill="#000000" font-family="sans-serif" font-size="14" lengthAdjust="spacingAndGlyphs" textLength="56" x="201" y="280.0234">fetching</text><text fill="#000000" font-family="sans-serif" font-size="12" lengthAdjust="spacingAndGlyphs" textLength="77" x="185.5" y="304.5781">invoke / filter</text><rect fill="#FEFECE" filter="url(#f1u35vqu74z8cu)" height="50.6211" rx="12.5" ry="12.5" style="stroke: #A80036; stroke-width: 1.5;" width="163" x="328.5" y="135.4883"/><line style="stroke: #A80036; stroke-width: 1.5;" x1="328.5" x2="491.5" y1="161.9766" y2="161.9766"/><text fill="#000000" font-family="sans-serif" font-size="14" lengthAdjust="spacingAndGlyphs" textLength="70" x="375" y="154.0234">with items</text><text fill="#000000" font-family="sans-serif" font-size="12" lengthAdjust="spacingAndGlyphs" textLength="143" x="333.5" y="178.5781">entry / postProcessItems</text><rect fill="#FEFECE" filter="url(#f1u35vqu74z8cu)" height="64.7539" rx="12.5" ry="12.5" style="stroke: #A80036; stroke-width: 1.5;" width="163" x="147.5" y="128.4883"/><line style="stroke: #A80036; stroke-width: 1.5;" x1="147.5" x2="310.5" y1="154.9766" y2="154.9766"/><text fill="#000000" font-family="sans-serif" font-size="14" lengthAdjust="spacingAndGlyphs" textLength="42" x="208" y="147.0234">empty</text><text fill="#000000" font-family="sans-serif" font-size="12" lengthAdjust="spacingAndGlyphs" textLength="102" x="152.5" y="171.5781">entry / clearitems</text><text fill="#000000" font-family="sans-serif" font-size="12" lengthAdjust="spacingAndGlyphs" textLength="143" x="152.5" y="185.7109">entry / postProcessItems</text><rect fill="#FEFECE" filter="url(#f1u35vqu74z8cu)" height="50.6211" rx="12.5" ry="12.5" style="stroke: #A80036; stroke-width: 1.5;" width="112" x="17" y="135.4883"/><line style="stroke: #A80036; stroke-width: 1.5;" x1="17" x2="129" y1="161.9766" y2="161.9766"/><text fill="#000000" font-family="sans-serif" font-size="14" lengthAdjust="spacingAndGlyphs" textLength="52" x="47" y="154.0234">errored</text><text fill="#000000" font-family="sans-serif" font-size="12" lengthAdjust="spacingAndGlyphs" textLength="92" x="22" y="178.5781">exit / clearError</text><ellipse cx="152" cy="286.9883" fill="#000000" filter="url(#f1u35vqu74z8cu)" rx="10" ry="10" style="stroke: none; stroke-width: 1.0;"/><!--MD5=[ce8a8e12712fd74d5f3b329a4d9e0f84]
link *start*filtered to filteredFetching--><path d="M162.23,286.9883 C166.6,286.9883 170.98,286.9883 175.35,286.9883 " fill="none" id="*start*filtered-&gt;filteredFetching" style="stroke: #A80036; stroke-width: 1.0;"/><polygon fill="#A80036" points="180.48,286.9883,171.48,282.9883,175.48,286.9883,171.48,290.9883,180.48,286.9883" style="stroke: #A80036; stroke-width: 1.0;"/><!--MD5=[d119b5771dc6489d2546dc5d87febcf1]
link filteredFetching to filteredFetching--><path d="M277.71,276.4683 C288.04,277.5283 295.5,281.0383 295.5,286.9883 C295.5,291.9183 290.39,295.1683 282.76,296.7483 " fill="none" id="filteredFetching-&gt;filteredFetching" style="stroke: #A80036; stroke-width: 1.0;"/><polygon fill="#A80036" points="277.71,297.5083,287.2119,300.0994,282.6524,296.7512,286.0006,292.1917,277.71,297.5083" style="stroke: #A80036; stroke-width: 1.0;"/><text fill="#000000" font-family="sans-serif" font-size="13" lengthAdjust="spacingAndGlyphs" textLength="41" x="301.5" y="292.0566">FILTER</text><!--MD5=[86c4a5b044331e27e97e517b5d0ef6a4]
reverse link filteredWithItems to filteredFetching--><path d="M397.84,191.4183 C389.3,208.7883 376.3,229.9483 359,243.4883 C335.53,261.8483 303.83,272.4183 277.61,278.4283 " fill="none" id="filteredWithItems&lt;-filteredFetching" style="stroke: #A80036; stroke-width: 1.0;"/><polygon fill="#A80036" points="400.13,186.6383,392.6405,193.0342,397.9742,191.1497,399.8587,196.4834,400.13,186.6383" style="stroke: #A80036; stroke-width: 1.0;"/><text fill="#000000" font-family="sans-serif" font-size="13" lengthAdjust="spacingAndGlyphs" textLength="106" x="387" y="225.0566">DONE [hasItems]</text><text fill="#000000" font-family="sans-serif" font-size="13" lengthAdjust="spacingAndGlyphs" textLength="98" x="391" y="240.3672">do / storeItems</text><!--MD5=[7208515f4f5c3a265d6cbdc2bcff4867]
reverse link filteredEmpty to filteredFetching--><path d="M229,198.6483 C229,218.9183 229,243.5483 229,261.4783 " fill="none" id="filteredEmpty&lt;-filteredFetching" style="stroke: #A80036; stroke-width: 1.0;"/><polygon fill="#A80036" points="229,193.5983,225,202.5983,229,198.5983,233,202.5983,229,193.5983" style="stroke: #A80036; stroke-width: 1.0;"/><text fill="#000000" font-family="sans-serif" font-size="13" lengthAdjust="spacingAndGlyphs" textLength="124" x="230" y="232.5566">DONE [hasNoItems]</text><!--MD5=[1b67b26f521f7a728a73ca36168c5453]
reverse link filteredErrored to filteredFetching--><path d="M88.02,191.2083 C98,208.2983 112.49,229.2483 130,243.4883 C131.16,244.4283 155.91,255.0583 180.37,265.4483 " fill="none" id="filteredErrored&lt;-filteredFetching" style="stroke: #A80036; stroke-width: 1.0;"/><polygon fill="#A80036" points="85.32,186.4983,86.3192,196.2963,87.8038,190.8377,93.2623,192.3223,85.32,186.4983" style="stroke: #A80036; stroke-width: 1.0;"/><text fill="#000000" font-family="sans-serif" font-size="13" lengthAdjust="spacingAndGlyphs" textLength="41" x="157" y="225.0566">ERROR</text><text fill="#000000" font-family="sans-serif" font-size="13" lengthAdjust="spacingAndGlyphs" textLength="93" x="131" y="240.3672">do / storeError</text><!--MD5=[b8053dd841ea6bf50111660c96811876]
link *start*unfiltered to unfilteredFetching--><path d="M565.78,638.5 C575.71,638.5 585.65,638.5 595.58,638.5 " fill="none" id="*start*unfiltered-&gt;unfilteredFetching" style="stroke: #A80036; stroke-width: 1.0;"/><polygon fill="#A80036" points="600.77,638.5,591.77,634.5,595.77,638.5,591.77,642.5,600.77,638.5" style="stroke: #A80036; stroke-width: 1.0;"/><!--MD5=[9838efc94d5468b8ed8394c87529bca4]
link unfilteredFetching to unfilteredFetching--><path d="M698.39,625.43 C717.29,624.85 733,629.2 733,638.5 C733,646.93 720.1,651.29 703.61,651.61 " fill="none" id="unfilteredFetching-&gt;unfilteredFetching" style="stroke: #A80036; stroke-width: 1.0;"/><polygon fill="#A80036" points="698.39,651.57,707.367,655.6214,703.3899,651.5986,707.4127,647.6215,698.39,651.57" style="stroke: #A80036; stroke-width: 1.0;"/><text fill="#000000" font-family="sans-serif" font-size="13" lengthAdjust="spacingAndGlyphs" textLength="41" x="739" y="643.5684">FILTER</text><!--MD5=[ecdc80624fbad3d13333397b8e56a07a]
reverse link unfilteredWithItems to unfilteredFetching--><path d="M831.94,518.79 C819.91,539.09 801.59,565.51 779.5,583 C755.61,601.91 724.21,615.32 698.25,624.1 " fill="none" id="unfilteredWithItems&lt;-unfilteredFetching" style="stroke: #A80036; stroke-width: 1.0;"/><polygon fill="#A80036" points="834.56,514.29,826.5724,520.0518,832.0424,518.6099,833.4843,524.0799,834.56,514.29" style="stroke: #A80036; stroke-width: 1.0;"/><text fill="#000000" font-family="sans-serif" font-size="13" lengthAdjust="spacingAndGlyphs" textLength="106" x="810.5" y="564.5684">DONE [hasItems]</text><text fill="#000000" font-family="sans-serif" font-size="13" lengthAdjust="spacingAndGlyphs" textLength="98" x="814.5" y="579.8789">do / storeItems</text><!--MD5=[ddabb9f130b28f9ddab2f49a4a63947a]
reverse link unfilteredEmpty to unfilteredFetching--><path d="M649.5,526.51 C649.5,553.41 649.5,589.1 649.5,612.65 " fill="none" id="unfilteredEmpty&lt;-unfilteredFetching" style="stroke: #A80036; stroke-width: 1.0;"/><polygon fill="#A80036" points="649.5,521.25,645.5,530.25,649.5,526.25,653.5,530.25,649.5,521.25" style="stroke: #A80036; stroke-width: 1.0;"/><text fill="#000000" font-family="sans-serif" font-size="13" lengthAdjust="spacingAndGlyphs" textLength="124" x="650.5" y="572.0684">DONE [hasNoItems]</text><!--MD5=[e0681c0c6ebed05e9294bba5257a492a]
reverse link unfilteredErrored to unfilteredFetching--><path d="M493.45,518.57 C506.16,538.52 525.01,564.62 546.5,583 C562.57,596.74 582.68,608.34 600.86,617.27 " fill="none" id="unfilteredErrored&lt;-unfilteredFetching" style="stroke: #A80036; stroke-width: 1.0;"/><polygon fill="#A80036" points="490.67,514.15,492.0568,523.9007,493.3238,518.3876,498.837,519.6546,490.67,514.15" style="stroke: #A80036; stroke-width: 1.0;"/><text fill="#000000" font-family="sans-serif" font-size="13" lengthAdjust="spacingAndGlyphs" textLength="41" x="573.5" y="564.5684">ERROR</text><text fill="#000000" font-family="sans-serif" font-size="13" lengthAdjust="spacingAndGlyphs" textLength="93" x="547.5" y="579.8789">do / storeError</text><!--MD5=[cca739d17e81db6b99368580145edd47]
reverse link filtered to unfiltered--><path d="M185.35,332.36 C181.29,351.84 182.72,371.36 193.5,389 C218.11,429.285 265.005,453.775 306.2875,468.26 C326.9288,475.5025 346.1669,480.2438 360.5147,483.2075 C364.1016,483.9484 367.3829,484.5783 370.3041,485.1083 C371.7647,485.3734 373.1353,485.6135 374.409,485.83 C375.0458,485.9383 375.6585,486.0407 376.2461,486.1374 C376.5399,486.1857 376.8274,486.2326 377.1085,486.2781 " fill="none" id="filtered&lt;-unfiltered" style="stroke: #A80036; stroke-width: 1.0;"/><polygon fill="#A80036" points="186.5,327.41,180.572,335.275,185.3715,332.281,188.3655,337.0806,186.5,327.41" style="stroke: #A80036; stroke-width: 1.0;"/><text fill="#000000" font-family="sans-serif" font-size="13" lengthAdjust="spacingAndGlyphs" textLength="124" x="194.5" y="370.5684">FILTER [hasClauses]</text><text fill="#000000" font-family="sans-serif" font-size="13" lengthAdjust="spacingAndGlyphs" textLength="112" x="200.5" y="385.8789">do / storeClauses</text><!--MD5=[f461ad9d1403a36adbbf63fb3f29312d]
link filtered to unfiltered--><path d="M316.97,327.11 C332.93,364.47 349.78,403.9075 362.7775,434.3275 C366.0269,441.9325 369.0355,448.9739 371.7292,455.2784 C373.076,458.4306 374.3442,461.3986 375.5243,464.1607 C376.1144,465.5417 376.6825,466.8713 377.2274,468.1466 C377.2955,468.3061 377.3633,468.4646 377.4307,468.6224 " fill="none" id="filtered-&gt;unfiltered" style="stroke: #A80036; stroke-width: 1.0;"/><polygon fill="#A80036" points="377.4307,468.6224,377.5728,458.7745,375.4661,464.0245,370.2162,461.9178,377.4307,468.6224" style="stroke: #A80036; stroke-width: 1.0;"/><text fill="#000000" font-family="sans-serif" font-size="13" lengthAdjust="spacingAndGlyphs" textLength="142" x="341.5" y="370.5684">FILTER [hasNoClauses]</text><text fill="#000000" font-family="sans-serif" font-size="13" lengthAdjust="spacingAndGlyphs" textLength="110" x="357.5" y="385.8789">do / clearClauses</text><!--MD5=[3184fa38d0c8d8165c2b2b01bc883332]
link *start to prefetching--><path d="M681.5,28.07 C681.5,54.71 681.5,133.61 681.5,177.21 " fill="none" id="*start-&gt;prefetching" style="stroke: #A80036; stroke-width: 1.0;"/><polygon fill="#A80036" points="681.5,182.34,685.5,173.34,681.5,177.34,677.5,173.34,681.5,182.34" style="stroke: #A80036; stroke-width: 1.0;"/><!--MD5=[524c25368958761614371ef0c27a7560]
link prefetching to prefetching--><path d="M718.86,182.45 C742.88,175.78 766,184.3 766,208 C766,230.04 746.02,238.95 723.9,234.74 " fill="none" id="prefetching-&gt;prefetching" style="stroke: #A80036; stroke-width: 1.0;"/><polygon fill="#A80036" points="718.86,233.55,726.7085,239.4999,723.7278,234.692,728.5357,231.7114,718.86,233.55" style="stroke: #A80036; stroke-width: 1.0;"/><text fill="#000000" font-family="sans-serif" font-size="13" lengthAdjust="spacingAndGlyphs" textLength="41" x="772" y="213.0684">FILTER</text><!--MD5=[84058a4c1918041bf5b77d2e60b37565]
link prefetching to unfilteredWithItems--><path d="M705.03,233.71 C730.75,261.77 771.84,309.8 798.5,357 C816.98,389.73 831.08,430.79 839.3,458.02 " fill="none" id="prefetching-&gt;unfilteredWithItems" style="stroke: #A80036; stroke-width: 1.0;"/><polygon fill="#A80036" points="840.77,462.93,842.0365,453.1629,839.3437,458.1377,834.3689,455.4449,840.77,462.93" style="stroke: #A80036; stroke-width: 1.0;"/><text fill="#000000" font-family="sans-serif" font-size="13" lengthAdjust="spacingAndGlyphs" textLength="106" x="814.5" y="370.5684">DONE [hasItems]</text><text fill="#000000" font-family="sans-serif" font-size="13" lengthAdjust="spacingAndGlyphs" textLength="98" x="818.5" y="385.8789">do / storeItems</text><!--MD5=[6d1329af8da825bb442a8778ca5400ca]
link prefetching to unfilteredEmpty--><path d="M678.66,233.72 C673.02,282.82 660.37,392.89 653.74,450.6 " fill="none" id="prefetching-&gt;unfilteredEmpty" style="stroke: #A80036; stroke-width: 1.0;"/><polygon fill="#A80036" points="653.16,455.68,658.1616,447.1956,653.731,450.7127,650.2139,446.2821,653.16,455.68" style="stroke: #A80036; stroke-width: 1.0;"/><text fill="#000000" font-family="sans-serif" font-size="13" lengthAdjust="spacingAndGlyphs" textLength="124" x="665.5" y="378.0684">DONE [hasNoItems]</text><!--MD5=[d7e88343af6a9e7beb506b28b7b81e05]
link prefetching to unfilteredErrored--><path d="M659.59,233.65 C634.38,262.43 592.27,311.86 559.5,357 C535.05,390.69 509.77,431.43 493.64,458.33 " fill="none" id="prefetching-&gt;unfilteredErrored" style="stroke: #A80036; stroke-width: 1.0;"/><polygon fill="#A80036" points="490.93,462.86,498.9821,457.1887,493.4962,458.5688,492.1161,453.0828,490.93,462.86" style="stroke: #A80036; stroke-width: 1.0;"/><text fill="#000000" font-family="sans-serif" font-size="13" lengthAdjust="spacingAndGlyphs" textLength="41" x="586.5" y="370.5684">ERROR</text><text fill="#000000" font-family="sans-serif" font-size="13" lengthAdjust="spacingAndGlyphs" textLength="93" x="560.5" y="385.8789">do / storeError</text><!--MD5=[1f800185d30c63e7d53957898dbadddf]
@startuml

  state unfiltered {
    state "fetching" as unfilteredFetching
    state "with items" as unfilteredWithItems
    state "empty" as unfilteredEmpty
    state "errored" as unfilteredErrored
    unfilteredFetching : invoke / filter
    unfilteredWithItems : entry / postProcessItems
    unfilteredEmpty : entry / clearitems\nentry / postProcessItems
    unfilteredErrored : exit / clearError
    [*] -> unfilteredFetching
    unfilteredFetching - -> unfilteredFetching : FILTER
    unfilteredFetching -u-> unfilteredWithItems : DONE [hasItems]\ndo / storeItems
    unfilteredFetching -u-> unfilteredEmpty : DONE [hasNoItems]
    unfilteredFetching -u-> unfilteredErrored : ERROR\ndo / storeError
  }

  state filtered {
    state "fetching" as filteredFetching
    state "with items" as filteredWithItems
    state "empty" as filteredEmpty
    state "errored" as filteredErrored
    filteredFetching : invoke / filter
    filteredWithItems : entry / postProcessItems
    filteredEmpty : entry / clearitems\nentry / postProcessItems
    filteredErrored : exit / clearError
    [*] -> filteredFetching
    filteredFetching - -> filteredFetching : FILTER
    filteredFetching -u-> filteredWithItems : DONE [hasItems]\ndo / storeItems
    filteredFetching -u-> filteredEmpty : DONE [hasNoItems]
    filteredFetching -u-> filteredErrored : ERROR\ndo / storeError
  }

  unfiltered -u-> filtered : FILTER [hasClauses]\ndo / storeClauses
  filtered -d-> unfiltered : FILTER [hasNoClauses]\ndo / clearClauses

  [*] - -> prefetching
  prefetching : invoke / filter
  prefetching - -> prefetching : FILTER
  prefetching - -> unfilteredWithItems : DONE [hasItems]\ndo / storeItems
  prefetching - -> unfilteredEmpty : DONE [hasNoItems]
  prefetching - -> unfilteredErrored : ERROR\ndo / storeError

@enduml

PlantUML version 1.2020.05(Thu Mar 19 17:17:32 EDT 2020)
(GPL source distribution)
Java Runtime: OpenJDK Runtime Environment
JVM: OpenJDK 64-Bit Server VM
Java Version: 13.0.2+8
Operating System: Mac OS X
Default Encoding: UTF-8
Language: en
Country: US
--></g></svg>