<?xml version="1.0" encoding="UTF-8" standalone="no"?><svg xmlns="http://www.w3.org/2000/svg" xmlns:xlink="http://www.w3.org/1999/xlink" contentStyleType="text/css" height="697px" preserveAspectRatio="none" style="width:969px;height:697px;background:#FFFFFF;" version="1.1" viewBox="0 0 969 697" width="969px" zoomAndPan="magnify"><defs/><g><!--cluster unfiltered--><g id="cluster_unfiltered"><path d="M379,388 L943,388 A12.5,12.5 0 0 1 955.5,400.5 L955.5,409.2969 L366.5,409.2969 L366.5,400.5 A12.5,12.5 0 0 1 379,388 " fill="#F1F1F1" style="stroke:#F1F1F1;stroke-width:1.0;"/><rect fill="none" height="303" rx="12.5" ry="12.5" style="stroke:#181818;stroke-width:0.5;" width="589" x="366.5" y="388"/><line style="stroke:#181818;stroke-width:0.5;" x1="366.5" x2="955.5" y1="409.2969" y2="409.2969"/><text fill="#000000" font-family="sans-serif" font-size="14" lengthAdjust="spacing" textLength="65" x="628.5" y="404.9951">unfiltered</text></g><g id="unfiltered.unfilteredFetching"><rect fill="#F1F1F1" height="50.2656" rx="12.5" ry="12.5" style="stroke:#181818;stroke-width:0.5;" width="100" x="583.5" y="633"/><line style="stroke:#181818;stroke-width:0.5;" x1="583.5" x2="683.5" y1="659.2969" y2="659.2969"/><text fill="#000000" font-family="sans-serif" font-size="14" lengthAdjust="spacing" textLength="56" x="605.5" y="650.9951">fetching</text><text fill="#000000" font-family="sans-serif" font-size="12" lengthAdjust="spacing" textLength="80" x="588.5" y="675.4355">invoke / filter</text></g><g id="unfiltered.unfilteredWithItems"><rect fill="#F1F1F1" height="50.2656" rx="12.5" ry="12.5" style="stroke:#181818;stroke-width:0.5;" width="176" x="771.5" y="422"/><line style="stroke:#181818;stroke-width:0.5;" x1="771.5" x2="947.5" y1="448.2969" y2="448.2969"/><text fill="#000000" font-family="sans-serif" font-size="14" lengthAdjust="spacing" textLength="70" x="824.5" y="439.9951">with items</text><text fill="#000000" font-family="sans-serif" font-size="12" lengthAdjust="spacing" textLength="156" x="776.5" y="464.4355">entry / postProcessItems</text></g><g id="unfiltered.unfilteredEmpty"><rect fill="#F1F1F1" height="64.2344" rx="12.5" ry="12.5" style="stroke:#181818;stroke-width:0.5;" width="176" x="560.5" y="415"/><line style="stroke:#181818;stroke-width:0.5;" x1="560.5" x2="736.5" y1="441.2969" y2="441.2969"/><text fill="#000000" font-family="sans-serif" font-size="14" lengthAdjust="spacing" textLength="43" x="627" y="432.9951">empty</text><text fill="#000000" font-family="sans-serif" font-size="12" lengthAdjust="spacing" textLength="109" x="565.5" y="457.4355">entry / clearitems</text><text fill="#000000" font-family="sans-serif" font-size="12" lengthAdjust="spacing" textLength="156" x="565.5" y="471.4043">entry / postProcessItems</text></g><g id="unfiltered.unfilteredErrored"><rect fill="#F1F1F1" height="50.2656" rx="12.5" ry="12.5" style="stroke:#181818;stroke-width:0.5;" width="116" x="409.5" y="422"/><line style="stroke:#181818;stroke-width:0.5;" x1="409.5" x2="525.5" y1="448.2969" y2="448.2969"/><text fill="#000000" font-family="sans-serif" font-size="14" lengthAdjust="spacing" textLength="51" x="442" y="439.9951">errored</text><text fill="#000000" font-family="sans-serif" font-size="12" lengthAdjust="spacing" textLength="96" x="414.5" y="464.4355">exit / clearError</text></g><ellipse cx="538.5" cy="658" fill="#222222" rx="10" ry="10" style="stroke:none;stroke-width:1.0;"/><ellipse cx="688.5" cy="16" fill="#222222" rx="10" ry="10" style="stroke:none;stroke-width:1.0;"/><g id="prefetching"><rect fill="#F1F1F1" height="50.2656" rx="12.5" ry="12.5" style="stroke:#181818;stroke-width:0.5;" width="100" x="638.5" y="177.5"/><line style="stroke:#181818;stroke-width:0.5;" x1="638.5" x2="738.5" y1="203.7969" y2="203.7969"/><text fill="#000000" font-family="sans-serif" font-size="14" lengthAdjust="spacing" textLength="79" x="649" y="195.4951">prefetching</text><text fill="#000000" font-family="sans-serif" font-size="12" lengthAdjust="spacing" textLength="80" x="643.5" y="219.9355">invoke / filter</text></g><path d="M19.5,87 L519.5,87 A12.5,12.5 0 0 1 532,99.5 L532,113.2969 L7,113.2969 L7,99.5 A12.5,12.5 0 0 1 19.5,87 " fill="#F1F1F1" style="stroke:#F1F1F1;stroke-width:1.0;"/><rect fill="none" height="230.5625" rx="12.5" ry="12.5" style="stroke:#181818;stroke-width:0.5;" width="525" x="7" y="87"/><line style="stroke:#181818;stroke-width:0.5;" x1="7" x2="532" y1="113.2969" y2="113.2969"/><text fill="#000000" font-family="sans-serif" font-size="14" lengthAdjust="spacing" textLength="47" x="246" y="104.9951">filtered</text><g id="filtered.filteredFetching"><rect fill="#F1F1F1" height="50.2656" rx="12.5" ry="12.5" style="stroke:#181818;stroke-width:0.5;" width="100" x="191" y="257.2969"/><line style="stroke:#181818;stroke-width:0.5;" x1="191" x2="291" y1="283.5938" y2="283.5938"/><text fill="#000000" font-family="sans-serif" font-size="14" lengthAdjust="spacing" textLength="56" x="213" y="275.292">fetching</text><text fill="#000000" font-family="sans-serif" font-size="12" lengthAdjust="spacing" textLength="80" x="196" y="299.7324">invoke / filter</text></g><g id="filtered.filteredWithItems"><rect fill="#F1F1F1" height="50.2656" rx="12.5" ry="12.5" style="stroke:#181818;stroke-width:0.5;" width="176" x="347" y="132.2969"/><line style="stroke:#181818;stroke-width:0.5;" x1="347" x2="523" y1="158.5938" y2="158.5938"/><text fill="#000000" font-family="sans-serif" font-size="14" lengthAdjust="spacing" textLength="70" x="400" y="150.292">with items</text><text fill="#000000" font-family="sans-serif" font-size="12" lengthAdjust="spacing" textLength="156" x="352" y="174.7324">entry / postProcessItems</text></g><g id="filtered.filteredEmpty"><rect fill="#F1F1F1" height="64.2344" rx="12.5" ry="12.5" style="stroke:#181818;stroke-width:0.5;" width="176" x="153" y="125.2969"/><line style="stroke:#181818;stroke-width:0.5;" x1="153" x2="329" y1="151.5938" y2="151.5938"/><text fill="#000000" font-family="sans-serif" font-size="14" lengthAdjust="spacing" textLength="43" x="219.5" y="143.292">empty</text><text fill="#000000" font-family="sans-serif" font-size="12" lengthAdjust="spacing" textLength="109" x="158" y="167.7324">entry / clearitems</text><text fill="#000000" font-family="sans-serif" font-size="12" lengthAdjust="spacing" textLength="156" x="158" y="181.7012">entry / postProcessItems</text></g><g id="filtered.filteredErrored"><rect fill="#F1F1F1" height="50.2656" rx="12.5" ry="12.5" style="stroke:#181818;stroke-width:0.5;" width="116" x="19" y="132.2969"/><line style="stroke:#181818;stroke-width:0.5;" x1="19" x2="135" y1="158.5938" y2="158.5938"/><text fill="#000000" font-family="sans-serif" font-size="14" lengthAdjust="spacing" textLength="51" x="51.5" y="150.292">errored</text><text fill="#000000" font-family="sans-serif" font-size="12" lengthAdjust="spacing" textLength="96" x="24" y="174.7324">exit / clearError</text></g><ellipse cx="163" cy="282.2969" fill="#222222" rx="10" ry="10" style="stroke:none;stroke-width:1.0;"/><!--link *start*filtered to filteredFetching--><g id="link_*start*filtered_filteredFetching"><path d="M173.0547,282.2969 C177.3151,282.2969 181.5755,282.2969 185.8359,282.2969 " fill="none" id="*start*filtered-to-filteredFetching" style="stroke:#181818;stroke-width:1.0;"/><polygon fill="#181818" points="190.8372,282.2969,181.8372,278.2969,185.8372,282.2969,181.8372,286.2969,190.8372,282.2969" style="stroke:#181818;stroke-width:1.0;"/></g><!--link filteredFetching to filteredFetching--><g id="link_filteredFetching_filteredFetching"><path d="M291.1139,271.8042 C301.5182,272.9087 309,276.4063 309,282.2969 C309,287.1751 303.8691,290.4121 296.1965,292.008 " fill="none" id="filteredFetching-to-filteredFetching" style="stroke:#181818;stroke-width:1.0;"/><polygon fill="#181818" points="291.1139,292.7896,300.6173,295.3751,296.0558,292.0296,299.4013,287.468,291.1139,292.7896" style="stroke:#181818;stroke-width:1.0;"/><text fill="#000000" font-family="sans-serif" font-size="13" lengthAdjust="spacing" textLength="40" x="315" y="286.8638">FILTER</text></g><!--reverse link filteredWithItems to filteredFetching--><g id="link_filteredWithItems_filteredFetching"><path d="M420.0306,186.8742 C409.7985,204.3798 394.7127,225.7182 376,239.2969 C351.1144,257.3549 318.3446,268.0301 291.3232,274.227 " fill="none" id="filteredWithItems-backto-filteredFetching" style="stroke:#181818;stroke-width:1.0;"/><polygon fill="#181818" points="422.5267,182.5133,414.5843,188.3373,420.0429,186.8527,421.5274,192.3113,422.5267,182.5133" style="stroke:#181818;stroke-width:1.0;"/><text fill="#000000" font-family="sans-serif" font-size="13" lengthAdjust="spacing" textLength="111" x="407" y="220.3638">DONE [hasItems]</text><text fill="#000000" font-family="sans-serif" font-size="13" lengthAdjust="spacing" textLength="97" x="414" y="235.4966">do / storeItems</text></g><!--reverse link filteredEmpty to filteredFetching--><g id="link_filteredEmpty_filteredFetching"><path d="M241,194.5078 C241,214.6363 241,238.9742 241,256.9142 " fill="none" id="filteredEmpty-backto-filteredFetching" style="stroke:#181818;stroke-width:1.0;"/><polygon fill="#181818" points="241,189.4875,237,198.4875,241,194.4875,245,198.4875,241,189.4875" style="stroke:#181818;stroke-width:1.0;"/><text fill="#000000" font-family="sans-serif" font-size="13" lengthAdjust="spacing" textLength="129" x="242" y="227.8638">DONE [hasNoItems]</text></g><!--reverse link filteredErrored to filteredFetching--><g id="link_filteredErrored_filteredFetching"><path d="M95.5207,186.8484 C107.4139,203.9425 124.1371,224.8592 143,239.2969 C145.2684,241.0331 167.9803,251.0275 190.9672,260.9437 " fill="none" id="filteredErrored-backto-filteredFetching" style="stroke:#181818;stroke-width:1.0;"/><polygon fill="#181818" points="92.6027,182.5911,94.3914,192.2762,95.4294,186.7154,100.9902,187.7534,92.6027,182.5911" style="stroke:#181818;stroke-width:1.0;"/><text fill="#000000" font-family="sans-serif" font-size="13" lengthAdjust="spacing" textLength="42" x="169" y="220.3638">ERROR</text><text fill="#000000" font-family="sans-serif" font-size="13" lengthAdjust="spacing" textLength="92" x="144" y="235.4966">do / storeError</text></g><!--link *start*unfiltered to unfilteredFetching--><g id="link_*start*unfiltered_unfilteredFetching"><path d="M548.5195,658 C558.4133,658 568.3072,658 578.201,658 " fill="none" id="*start*unfiltered-to-unfilteredFetching" style="stroke:#181818;stroke-width:1.0;"/><polygon fill="#181818" points="583.3748,658,574.3748,654,578.3748,658,574.3748,662,583.3748,658" style="stroke:#181818;stroke-width:1.0;"/></g><!--link unfilteredFetching to unfilteredFetching--><g id="link_unfilteredFetching_unfilteredFetching"><path d="M683.6897,647.9053 C702.7415,647.516 718.5,650.8809 718.5,658 C718.5,664.4517 705.5577,667.8201 688.9509,668.1052 " fill="none" id="unfilteredFetching-to-unfilteredFetching" style="stroke:#181818;stroke-width:1.0;"/><polygon fill="#181818" points="683.6897,668.0947,692.6816,672.1129,688.6897,668.1048,692.6978,664.113,683.6897,668.0947" style="stroke:#181818;stroke-width:1.0;"/><text fill="#000000" font-family="sans-serif" font-size="13" lengthAdjust="spacing" textLength="40" x="724.5" y="662.5669">FILTER</text></g><!--reverse link unfilteredWithItems to unfilteredFetching--><g id="link_unfilteredWithItems_unfilteredFetching"><path d="M846.2051,476.6199 C832.8462,503.9003 810.1532,544.2351 781.5,572 C753.1157,599.5044 714.2773,621.6425 683.5087,636.5664 " fill="none" id="unfilteredWithItems-backto-unfilteredFetching" style="stroke:#181818;stroke-width:1.0;"/><polygon fill="#181818" points="848.4292,472.0214,840.9097,478.382,846.2522,476.5226,848.1116,481.8651,848.4292,472.0214" style="stroke:#181818;stroke-width:1.0;"/><text fill="#000000" font-family="sans-serif" font-size="13" lengthAdjust="spacing" textLength="111" x="808.5" y="553.0669">DONE [hasItems]</text><text fill="#000000" font-family="sans-serif" font-size="13" lengthAdjust="spacing" textLength="97" x="815.5" y="568.1997">do / storeItems</text></g><!--reverse link unfilteredEmpty to unfilteredFetching--><g id="link_unfilteredEmpty_unfilteredFetching"><path d="M645.8605,484.1296 C642.8188,526.9156 637.9036,596.0554 635.2817,632.9376 " fill="none" id="unfilteredEmpty-backto-unfilteredFetching" style="stroke:#181818;stroke-width:1.0;"/><polygon fill="#181818" points="646.2218,479.0464,641.5934,487.74,645.8671,484.0338,649.5732,488.3075,646.2218,479.0464" style="stroke:#181818;stroke-width:1.0;"/><text fill="#000000" font-family="sans-serif" font-size="13" lengthAdjust="spacing" textLength="129" x="643.5" y="560.5669">DONE [hasNoItems]</text></g><!--reverse link unfilteredErrored to unfilteredFetching--><g id="link_unfilteredErrored_unfilteredFetching"><path d="M481.2553,477.2094 C494.0514,503.6273 514.6905,542.3038 538.5,572 C556.7306,594.738 581.1797,616.7247 600.7092,632.7749 " fill="none" id="unfilteredErrored-backto-unfilteredFetching" style="stroke:#181818;stroke-width:1.0;"/><polygon fill="#181818" points="478.9583,472.4242,479.2472,482.2688,481.1221,476.9317,486.4592,478.8067,478.9583,472.4242" style="stroke:#181818;stroke-width:1.0;"/><text fill="#000000" font-family="sans-serif" font-size="13" lengthAdjust="spacing" textLength="42" x="564.5" y="553.0669">ERROR</text><text fill="#000000" font-family="sans-serif" font-size="13" lengthAdjust="spacing" textLength="92" x="539.5" y="568.1997">do / storeError</text></g><!--reverse link filtered to unfiltered--><g id="link_filtered_unfiltered"><path d="M186.3326,323.4308 C181.9015,343.0965 183.4858,362.6748 195.5,380 C207.2233,396.9058 249.5865,413.1535 290.1567,425.4143 C310.4418,431.5447 330.2786,436.6784 345.613,440.3992 C353.2803,442.2596 359.8219,443.7668 364.7312,444.8687 C365.3448,445.0065 365.933,445.1379 366.4946,445.2629 " fill="none" id="filtered-backto-unfiltered" style="stroke:#181818;stroke-width:1.0;"/><polygon fill="#181818" points="187.5861,318.4305,181.5176,326.1876,186.3702,323.2804,189.2775,328.133,187.5861,318.4305" style="stroke:#181818;stroke-width:1.0;"/><text fill="#000000" font-family="sans-serif" font-size="13" lengthAdjust="spacing" textLength="127" x="196.5" y="361.0669">FILTER [hasClauses]</text><text fill="#000000" font-family="sans-serif" font-size="13" lengthAdjust="spacing" textLength="111" x="204.5" y="376.1997">do / storeClauses</text></g><!--link filtered to unfiltered--><g id="link_filtered_unfiltered"><path d="M319.2326,318.3059 C332.1662,348.4226 345.3243,379.0623 355.5556,402.8866 C358.1134,408.8427 360.4883,414.3728 362.6311,419.3623 C363.7024,421.8571 364.7158,424.2167 365.6649,426.4268 C365.9022,426.9793 366.1354,427.5225 366.3646,428.0561 " fill="none" id="filtered-to-unfiltered" style="stroke:#181818;stroke-width:1.0;"/><polygon fill="#181818" points="366.3646,428.0561,366.4886,418.208,364.3916,423.4618,359.1378,421.3648,366.3646,428.0561" style="stroke:#181818;stroke-width:1.0;"/><text fill="#000000" font-family="sans-serif" font-size="13" lengthAdjust="spacing" textLength="145" x="344.5" y="361.0669">FILTER [hasNoClauses]</text><text fill="#000000" font-family="sans-serif" font-size="13" lengthAdjust="spacing" textLength="109" x="362.5" y="376.1997">do / clearClauses</text></g><!--link *start to prefetching--><g id="link_*start_prefetching"><path d="M688.5,26.0271 C688.5,53.2913 688.5,129.5938 688.5,172.4018 " fill="none" id="*start-to-prefetching" style="stroke:#181818;stroke-width:1.0;"/><polygon fill="#181818" points="688.5,177.4507,692.5,168.4507,688.5,172.4507,684.5,168.4507,688.5,177.4507" style="stroke:#181818;stroke-width:1.0;"/></g><!--link prefetching to prefetching--><g id="link_prefetching_prefetching"><path d="M725.6374,177.4124 C749.9595,170.6121 773.5,178.9746 773.5,202.5 C773.5,224.3713 753.1535,233.137 730.7483,228.7972 " fill="none" id="prefetching-to-prefetching" style="stroke:#181818;stroke-width:1.0;"/><polygon fill="#181818" points="725.6374,227.5876,733.4742,233.5529,730.503,228.7392,735.3167,225.768,725.6374,227.5876" style="stroke:#181818;stroke-width:1.0;"/><text fill="#000000" font-family="sans-serif" font-size="13" lengthAdjust="spacing" textLength="40" x="779.5" y="207.0669">FILTER</text></g><!--link prefetching to unfilteredWithItems--><g id="link_prefetching_unfilteredWithItems"><path d="M710.309,227.6137 C734.4185,255.9211 773.7726,303.7752 803.5,348 C818.6574,370.5494 833.6986,397.4584 844.3699,417.5266 " fill="none" id="prefetching-to-unfilteredWithItems" style="stroke:#181818;stroke-width:1.0;"/><polygon fill="#181818" points="846.7143,421.9576,846.041,412.1318,844.376,417.538,838.9698,415.873,846.7143,421.9576" style="stroke:#181818;stroke-width:1.0;"/><text fill="#000000" font-family="sans-serif" font-size="13" lengthAdjust="spacing" textLength="111" x="823.5" y="361.0669">DONE [hasItems]</text><text fill="#000000" font-family="sans-serif" font-size="13" lengthAdjust="spacing" textLength="97" x="830.5" y="376.1997">do / storeItems</text></g><!--link prefetching to unfilteredEmpty--><g id="link_prefetching_unfilteredEmpty"><path d="M684.37,227.7449 C677.2876,271.036 662.795,359.622 654.5639,409.9341 " fill="none" id="prefetching-to-unfilteredEmpty" style="stroke:#181818;stroke-width:1.0;"/><polygon fill="#181818" points="653.7386,414.979,659.1395,406.7431,654.546,410.0446,651.2445,405.4512,653.7386,414.979" style="stroke:#181818;stroke-width:1.0;"/><text fill="#000000" font-family="sans-serif" font-size="13" lengthAdjust="spacing" textLength="129" x="665.5" y="368.5669">DONE [hasNoItems]</text></g><!--link prefetching to unfilteredErrored--><g id="link_prefetching_unfilteredErrored"><path d="M665.6815,227.7449 C624.3834,273.4345 537.4814,369.5771 493.776,417.93 " fill="none" id="prefetching-to-unfilteredErrored" style="stroke:#181818;stroke-width:1.0;"/><polygon fill="#181818" points="490.1944,421.8924,499.1969,417.898,493.5472,418.1831,493.2621,412.5335,490.1944,421.8924" style="stroke:#181818;stroke-width:1.0;"/><text fill="#000000" font-family="sans-serif" font-size="13" lengthAdjust="spacing" textLength="42" x="578.5" y="361.0669">ERROR</text><text fill="#000000" font-family="sans-serif" font-size="13" lengthAdjust="spacing" textLength="92" x="553.5" y="376.1997">do / storeError</text></g><!--SRC=[fLJBReCm4Bpp5QiSAw7UU-Yb9LAaAgbGfHwI712OOfNOo3Pjewh_NcDUjck8IRandXrcTmS3S94813N9SIaGGnby1o2V5bxbIAG59cyhIBX6MdUmJlt4eW0iq8bRv5Tvi6bmdOrEbJXRnAZ1319ZLE8shKKLyQybk0DCFkWxWbjepopYO4So4H7iB8aLvUAPqHHnFZgrZ6dqj4G9KwqUYAz4QxeH-SAYrr2eOkvlZX3UJutOqMReP4lzzURf9OedosgZJX_6usuRmRv8Ml_70ycezCc5zEtgQ4go7zOWjwMje6_zCAaeZdUnRgCVrqyGz1dnYEs2q7f6rYkmhhXwXdLnLFyTr8KnTOxK6T7vWBgpS7Kuv-NcWtcXrZEKsZrgr0zjgmy_b4dDaTb5XmMZ4mWpuySmDRRKKb6RwbM2RbLIe68e7zUalJd3fvzRrVhgRDhLDygqqDowPgekBUeN]--></g></svg>