<?xml version="1.0" encoding="UTF-8" standalone="no"?><svg xmlns="http://www.w3.org/2000/svg" xmlns:xlink="http://www.w3.org/1999/xlink" contentStyleType="text/css" height="473px" preserveAspectRatio="none" style="width:1176px;height:473px;background:#FFFFFF;" version="1.1" viewBox="0 0 1176 473" width="1176px" zoomAndPan="magnify"><defs/><g><text fill="#000000" font-family="sans-serif" font-size="14" font-weight="bold" lengthAdjust="spacing" textLength="152" x="505" y="22.9951">Ember View Layers</text><!--entity Controllers--><g id="elem_Controllers"><polygon fill="#F1F1F1" points="470,53.2969,480,43.2969,748,43.2969,748,136.4844,738,146.4844,470,146.4844,470,53.2969" style="stroke:#181818;stroke-width:0.5;"/><line style="stroke:#181818;stroke-width:0.5;" x1="738" x2="748" y1="53.2969" y2="43.2969"/><line style="stroke:#181818;stroke-width:0.5;" x1="470" x2="738" y1="53.2969" y2="53.2969"/><line style="stroke:#181818;stroke-width:0.5;" x1="738" x2="738" y1="53.2969" y2="146.4844"/><text fill="#000000" font-family="sans-serif" font-size="14" lengthAdjust="spacing" textLength="75" x="485" y="76.292">Controllers</text><line style="stroke:#181818;stroke-width:1.0;" x1="470" x2="738" y1="79.5938" y2="79.5938"/><line style="stroke:#181818;stroke-width:1.0;" x1="738" x2="748" y1="79.5938" y2="69.5938"/><text fill="#000000" font-family="sans-serif" font-size="14" lengthAdjust="spacing" textLength="162" x="485" y="96.5889">manages queryParams,</text><text fill="#000000" font-family="sans-serif" font-size="14" lengthAdjust="spacing" textLength="144" x="485" y="112.8857">model interpretation,</text><text fill="#000000" font-family="sans-serif" font-size="14" lengthAdjust="spacing" textLength="238" x="485" y="129.1826">and top level template interactions</text></g><!--entity TopLevelLayouts--><g id="elem_TopLevelLayouts"><polygon fill="#F1F1F1" points="640,232.2969,650,222.2969,878,222.2969,878,282.8906,868,292.8906,640,292.8906,640,232.2969" style="stroke:#181818;stroke-width:0.5;"/><line style="stroke:#181818;stroke-width:0.5;" x1="868" x2="878" y1="232.2969" y2="222.2969"/><line style="stroke:#181818;stroke-width:0.5;" x1="640" x2="868" y1="232.2969" y2="232.2969"/><line style="stroke:#181818;stroke-width:0.5;" x1="868" x2="868" y1="232.2969" y2="292.8906"/><text fill="#000000" font-family="sans-serif" font-size="14" lengthAdjust="spacing" textLength="123" x="655" y="255.292">Top Level Layouts</text><line style="stroke:#181818;stroke-width:1.0;" x1="640" x2="868" y1="258.5938" y2="258.5938"/><line style="stroke:#181818;stroke-width:1.0;" x1="868" x2="878" y1="258.5938" y2="248.5938"/><text fill="#000000" font-family="sans-serif" font-size="14" lengthAdjust="spacing" textLength="198" x="655" y="275.5889">Grids, Flexbox, Sidebars, etc.</text></g><!--entity ProviderComponents--><g id="elem_ProviderComponents"><polygon fill="#F1F1F1" points="913,224.2969,923,214.2969,1159,214.2969,1159,291.1875,1149,301.1875,913,301.1875,913,224.2969" style="stroke:#181818;stroke-width:0.5;"/><line style="stroke:#181818;stroke-width:0.5;" x1="1149" x2="1159" y1="224.2969" y2="214.2969"/><line style="stroke:#181818;stroke-width:0.5;" x1="913" x2="1149" y1="224.2969" y2="224.2969"/><line style="stroke:#181818;stroke-width:0.5;" x1="1149" x2="1149" y1="224.2969" y2="301.1875"/><text fill="#000000" font-family="sans-serif" font-size="14" lengthAdjust="spacing" textLength="126" x="928" y="247.292">Data Components</text><line style="stroke:#181818;stroke-width:1.0;" x1="913" x2="1149" y1="250.5938" y2="250.5938"/><line style="stroke:#181818;stroke-width:1.0;" x1="1149" x2="1159" y1="250.5938" y2="240.5938"/><text fill="#000000" font-family="sans-serif" font-size="14" lengthAdjust="spacing" textLength="206" x="928" y="267.5889">Provider Components specific</text><text fill="#000000" font-family="sans-serif" font-size="14" lengthAdjust="spacing" textLength="127" x="928" y="283.8857">to Application data</text></g><!--entity AppContextualComponents--><g id="elem_AppContextualComponents"><polygon fill="#F1F1F1" points="16,224.2969,26,214.2969,280,214.2969,280,291.1875,270,301.1875,16,301.1875,16,224.2969" style="stroke:#181818;stroke-width:0.5;"/><line style="stroke:#181818;stroke-width:0.5;" x1="270" x2="280" y1="224.2969" y2="214.2969"/><line style="stroke:#181818;stroke-width:0.5;" x1="16" x2="270" y1="224.2969" y2="224.2969"/><line style="stroke:#181818;stroke-width:0.5;" x1="270" x2="270" y1="224.2969" y2="301.1875"/><text fill="#000000" font-family="sans-serif" font-size="14" lengthAdjust="spacing" textLength="169" x="31" y="247.292">Application Components</text><line style="stroke:#181818;stroke-width:1.0;" x1="16" x2="270" y1="250.5938" y2="250.5938"/><line style="stroke:#181818;stroke-width:1.0;" x1="270" x2="280" y1="250.5938" y2="240.5938"/><text fill="#000000" font-family="sans-serif" font-size="14" lengthAdjust="spacing" textLength="224" x="31" y="267.5889">Contextual Components specific</text><text fill="#000000" font-family="sans-serif" font-size="14" lengthAdjust="spacing" textLength="129" x="31" y="283.8857">to Application logic</text></g><!--entity BlackBoxComponents--><g id="elem_BlackBoxComponents"><polygon fill="#F1F1F1" points="315.5,216.2969,325.5,206.2969,604.5,206.2969,604.5,299.4844,594.5,309.4844,315.5,309.4844,315.5,216.2969" style="stroke:#181818;stroke-width:0.5;"/><line style="stroke:#181818;stroke-width:0.5;" x1="594.5" x2="604.5" y1="216.2969" y2="206.2969"/><line style="stroke:#181818;stroke-width:0.5;" x1="315.5" x2="594.5" y1="216.2969" y2="216.2969"/><line style="stroke:#181818;stroke-width:0.5;" x1="594.5" x2="594.5" y1="216.2969" y2="309.4844"/><text fill="#000000" font-family="sans-serif" font-size="14" lengthAdjust="spacing" textLength="161" x="330.5" y="239.292">Black Box Components</text><line style="stroke:#181818;stroke-width:1.0;" x1="315.5" x2="594.5" y1="242.5938" y2="242.5938"/><line style="stroke:#181818;stroke-width:1.0;" x1="594.5" x2="604.5" y1="242.5938" y2="232.5938"/><text fill="#000000" font-family="sans-serif" font-size="14" lengthAdjust="spacing" textLength="249" x="330.5" y="259.5889">Components that act on a high level</text><text fill="#000000" font-family="sans-serif" font-size="14" lengthAdjust="spacing" textLength="209" x="330.5" y="275.8857">encapsulating application data</text><text fill="#000000" font-family="sans-serif" font-size="14" lengthAdjust="spacing" textLength="131" x="330.5" y="292.1826">and logic concerns</text></g><!--entity GenericComponents--><g id="elem_GenericComponents"><polygon fill="#F1F1F1" points="326.5,379.2969,336.5,369.2969,617.5,369.2969,617.5,446.1875,607.5,456.1875,326.5,456.1875,326.5,379.2969" style="stroke:#181818;stroke-width:0.5;"/><line style="stroke:#181818;stroke-width:0.5;" x1="607.5" x2="617.5" y1="379.2969" y2="369.2969"/><line style="stroke:#181818;stroke-width:0.5;" x1="326.5" x2="607.5" y1="379.2969" y2="379.2969"/><line style="stroke:#181818;stroke-width:0.5;" x1="607.5" x2="607.5" y1="379.2969" y2="456.1875"/><text fill="#000000" font-family="sans-serif" font-size="14" lengthAdjust="spacing" textLength="148" x="341.5" y="402.292">Generic Components</text><line style="stroke:#181818;stroke-width:1.0;" x1="326.5" x2="607.5" y1="405.5938" y2="405.5938"/><line style="stroke:#181818;stroke-width:1.0;" x1="607.5" x2="617.5" y1="405.5938" y2="395.5938"/><text fill="#000000" font-family="sans-serif" font-size="14" lengthAdjust="spacing" textLength="251" x="341.5" y="422.5889">The typical reusable component you</text><text fill="#000000" font-family="sans-serif" font-size="14" lengthAdjust="spacing" textLength="182" x="341.5" y="438.8857">see in tutorials and guides</text></g><!--entity BasicElements--><g id="elem_BasicElements"><polygon fill="#F1F1F1" points="659,399.7969,669,389.7969,847,389.7969,847,426.0938,837,436.0938,659,436.0938,659,399.7969" style="stroke:#181818;stroke-width:0.5;"/><line style="stroke:#181818;stroke-width:0.5;" x1="837" x2="847" y1="399.7969" y2="389.7969"/><line style="stroke:#181818;stroke-width:0.5;" x1="659" x2="837" y1="399.7969" y2="399.7969"/><line style="stroke:#181818;stroke-width:0.5;" x1="837" x2="837" y1="399.7969" y2="436.0938"/><text fill="#000000" font-family="sans-serif" font-size="14" lengthAdjust="spacing" textLength="148" x="674" y="422.792">Basic HTML Elements</text></g><!--link Controllers to TopLevelLayouts--><g id="link_Controllers_TopLevelLayouts"><path codeLine="50" d="M656.4609,146.3711 C679.2061,171.0875 705.8753,200.0681 726.3135,222.2776 " fill="none" id="Controllers-TopLevelLayouts" style="stroke:#181818;stroke-width:1.0;"/></g><!--link Controllers to ProviderComponents--><g id="link_Controllers_ProviderComponents"><path codeLine="51" d="M744.1055,146.3711 C801.279,168.1961 867.1626,193.3461 921.8524,214.223 " fill="none" id="Controllers-ProviderComponents" style="stroke:#181818;stroke-width:1.0;"/></g><!--link Controllers to AppContextualComponents--><g id="link_Controllers_AppContextualComponents"><path codeLine="52" d="M469.7468,144.0339 C406.5297,166.3862 332.3928,192.5994 271.2269,214.2264 " fill="none" id="Controllers-AppContextualComponents" style="stroke:#181818;stroke-width:1.0;"/></g><!--link Controllers to BlackBoxComponents--><g id="link_Controllers_BlackBoxComponents"><path codeLine="53" d="M561.8555,146.3711 C544.3775,165.4913 524.5668,187.1634 507.0934,206.2786 " fill="none" id="Controllers-BlackBoxComponents" style="stroke:#181818;stroke-width:1.0;"/></g><!--link TopLevelLayouts to GenericComponents--><g id="link_TopLevelLayouts_GenericComponents"><path codeLine="55" d="M693.1564,293.357 C651.3695,315.9249 597.0106,345.2825 552.6428,369.2442 " fill="none" id="TopLevelLayouts-GenericComponents" style="stroke:#181818;stroke-width:1.0;"/></g><!--link TopLevelLayouts to BasicElements--><g id="link_TopLevelLayouts_BasicElements"><path codeLine="56" d="M757.6235,293.357 C756.4818,322.8516 754.8911,363.9436 753.9045,389.4306 " fill="none" id="TopLevelLayouts-BasicElements" style="stroke:#181818;stroke-width:1.0;"/></g><!--link ProviderComponents to GenericComponents--><g id="link_ProviderComponents_GenericComponents"><path codeLine="57" d="M921.0094,301.3455 C912.5844,304.1517 904.184,306.8348 896,309.2969 C784.9221,342.714 754.6369,341.585 642,369.2969 C634.0127,371.262 625.8192,373.2965 617.5518,375.3638 " fill="none" id="ProviderComponents-GenericComponents" style="stroke:#181818;stroke-width:1.0;"/></g><!--link ProviderComponents to BasicElements--><g id="link_ProviderComponents_BasicElements"><path codeLine="58" d="M956.4156,301.3855 C904.1004,330.0387 837.72,366.3955 795.2915,389.6337 " fill="none" id="ProviderComponents-BasicElements" style="stroke:#181818;stroke-width:1.0;"/></g><!--link AppContextualComponents to GenericComponents--><g id="link_AppContextualComponents_GenericComponents"><path codeLine="59" d="M239.1143,301.3855 C283.4736,322.6068 336.6658,348.0537 381.0088,369.2672 " fill="none" id="AppContextualComponents-GenericComponents" style="stroke:#181818;stroke-width:1.0;"/></g><!--link AppContextualComponents to BasicElements--><g id="link_AppContextualComponents_BasicElements"><path codeLine="60" d="M269.909,301.3934 C279.3629,304.2397 288.8043,306.9149 298,309.2969 C445.2726,347.4449 488.1651,329.4972 635,369.2969 C655.4412,374.8375 677.3331,382.4247 696.6415,389.712 " fill="none" id="AppContextualComponents-BasicElements" style="stroke:#181818;stroke-width:1.0;"/></g><!--link BlackBoxComponents to GenericComponents--><g id="link_BlackBoxComponents_GenericComponents"><path codeLine="61" d="M463.9958,309.4097 C465.4958,328.7841 467.1845,350.5971 468.6229,369.176 " fill="none" id="BlackBoxComponents-GenericComponents" style="stroke:#181818;stroke-width:1.0;"/></g><!--link BlackBoxComponents to BasicElements--><g id="link_BlackBoxComponents_BasicElements"><path codeLine="62" d="M557.5648,309.4097 C609.0047,336.6219 669.5386,368.645 709.4538,389.7605 " fill="none" id="BlackBoxComponents-BasicElements" style="stroke:#181818;stroke-width:1.0;"/></g><!--SRC=[ZL91Ri8m4Bpd5Vi0qZyKIkc1IaX5lLGzBCusM7LirzvG-7qtWK0mRjLBfCoEPzQUOSs6ODviAC2hfczOue52B0hhAeAPinoSCOB0Mm7ZV_ahI_aqQB6c25yjXSCA0pPnqi5ot82sJC47OcJjR8UZhO2T1qCxcJCrtY3JaOYgOyNY_UI-TdxPqMGbr_9n0y6W1-643diiWgxY11uDxJTkFu4NNT46Wq34wkwikGfk9vCmSurtbkn9zW4PuO8DeWDxD8BeIUaFhMJC3kwzDrhrruDAHCv6CkXUY_RSeadSneTkJI_7_cThN2tmu3irg3wdRfzOzZ08dZKyKtcB3983Y2x2LjVROrB28glGnrRYqhO6JEzzZBRV1PIpYi8eoGLP2bebEvtGp4RhBG4Vl1WO2DH6t4X9rK032Lv8aRhU0BViWaOJ-mNgLlAw64ynQZKtr5mUeaFWQVsyX07lsEEcbsLQlNHyswAKyKlyAUqshQ98Qo-qc_VBaQxkMcIAdXNAywwrVkjoLl0FyhLgfgbPmJplMki7]--></g></svg>