<?xml version="1.0" encoding="UTF-8" standalone="no"?><svg xmlns="http://www.w3.org/2000/svg" xmlns:xlink="http://www.w3.org/1999/xlink" contentStyleType="text/css" height="704px" preserveAspectRatio="none" style="width:1060px;height:704px;background:#FFFFFF;" version="1.1" viewBox="0 0 1060 704" width="1060px" zoomAndPan="magnify"><defs/><g><ellipse cx="527" cy="16" fill="#222222" rx="10" ry="10" style="stroke:none;stroke-width:1.0;"/><path d="M19.5,86 L1034.5,86 A12.5,12.5 0 0 1 1047,98.5 L1047,112.2969 L7,112.2969 L7,98.5 A12.5,12.5 0 0 1 19.5,86 " fill="#F1F1F1" style="stroke:#F1F1F1;stroke-width:1.0;"/><rect fill="none" height="608.0169" rx="12.5" ry="12.5" style="stroke:#181818;stroke-width:0.5;" width="1040" x="7" y="86"/><line style="stroke:#181818;stroke-width:0.5;" x1="7" x2="1047" y1="112.2969" y2="112.2969"/><text fill="#000000" font-family="sans-serif" font-size="14" lengthAdjust="spacing" textLength="126" x="464" y="103.9951">RuleFormManager</text><!--cluster AddressFamily--><g id="cluster_AddressFamily"><path d="M31.5,124.2969 L392.5,124.2969 A12.5,12.5 0 0 1 405,136.7969 L405,145.5938 L19,145.5938 L19,136.7969 A12.5,12.5 0 0 1 31.5,124.2969 " fill="#F1F1F1" style="stroke:#F1F1F1;stroke-width:1.0;"/><rect fill="none" height="559.72" rx="12.5" ry="12.5" style="stroke:#181818;stroke-width:0.5;" width="386" x="19" y="124.2969"/><line style="stroke:#181818;stroke-width:0.5;" x1="19" x2="405" y1="145.5938" y2="145.5938"/><text fill="#000000" font-family="sans-serif" font-size="14" lengthAdjust="spacing" textLength="99" x="162.5" y="141.292">AddressFamily</text></g><ellipse cx="37" cy="283.0169" fill="#222222" rx="10" ry="10" style="stroke:none;stroke-width:1.0;"/><g id="RuleFormManager.AddressFamily.none"><rect fill="#F1F1F1" height="50" rx="12.5" ry="12.5" style="stroke:#181818;stroke-width:0.5;" width="56" x="65" y="258.0169"/><line style="stroke:#181818;stroke-width:0.5;" x1="65" x2="121" y1="284.3138" y2="284.3138"/><text fill="#000000" font-family="sans-serif" font-size="14" lengthAdjust="spacing" textLength="36" x="75" y="276.012">none</text></g><g id="RuleFormManager.AddressFamily.ip4"><rect fill="#F1F1F1" height="78.2031" rx="12.5" ry="12.5" style="stroke:#181818;stroke-width:0.5;" width="194" x="183" y="414.0169"/><line style="stroke:#181818;stroke-width:0.5;" x1="183" x2="377" y1="440.3138" y2="440.3138"/><text fill="#000000" font-family="sans-serif" font-size="14" lengthAdjust="spacing" textLength="21" x="269.5" y="432.012">ip4</text><text fill="#000000" font-family="sans-serif" font-size="12" lengthAdjust="spacing" textLength="174" x="188" y="456.4524">entry / setFamilyPickerToIP4</text><text fill="#000000" font-family="sans-serif" font-size="12" lengthAdjust="spacing" textLength="147" x="188" y="470.4212">entry / resetIP4Address</text><text fill="#000000" font-family="sans-serif" font-size="12" lengthAdjust="spacing" textLength="142" x="188" y="484.3899">exit / cacheIP4Address</text></g><g id="RuleFormManager.AddressFamily.ip6"><rect fill="#F1F1F1" height="78.2031" rx="12.5" ry="12.5" style="stroke:#181818;stroke-width:0.5;" width="194" x="94" y="598.0169"/><line style="stroke:#181818;stroke-width:0.5;" x1="94" x2="288" y1="624.3138" y2="624.3138"/><text fill="#000000" font-family="sans-serif" font-size="14" lengthAdjust="spacing" textLength="21" x="180.5" y="616.012">ip6</text><text fill="#000000" font-family="sans-serif" font-size="12" lengthAdjust="spacing" textLength="174" x="99" y="640.4524">entry / setFamilyPickerToIP6</text><text fill="#000000" font-family="sans-serif" font-size="12" lengthAdjust="spacing" textLength="147" x="99" y="654.4212">entry / resetIP6Address</text><text fill="#000000" font-family="sans-serif" font-size="12" lengthAdjust="spacing" textLength="142" x="99" y="668.3899">exit / cacheIP6Address</text></g><!--link *start*AddressFamily to none--><g id="link_*start*AddressFamily_none"><path d="M47.0625,283.0169 C51.1841,283.0169 55.3057,283.0169 59.4273,283.0169 " fill="none" id="*start*AddressFamily-to-none" style="stroke:#181818;stroke-width:1.0;"/><polygon fill="#181818" points="64.6479,283.0169,55.6479,279.0169,59.6479,283.0169,55.6479,287.0169,64.6479,283.0169" style="stroke:#181818;stroke-width:1.0;"/></g><!--link none to ip4--><g id="link_none_ip4"><path d="M86.877,308.0707 C83.4084,328.452 82.1529,357.0137 96,377.0169 C101.6001,385.1068 138.6236,401.0367 178.0076,416.2315 " fill="none" id="none-to-ip4" style="stroke:#181818;stroke-width:1.0;"/><polygon fill="#181818" points="182.8203,418.0803,175.8533,411.1189,178.1528,416.2873,172.9845,418.5868,182.8203,418.0803" style="stroke:#181818;stroke-width:1.0;"/><text fill="#000000" font-family="sans-serif" font-size="13" lengthAdjust="spacing" textLength="104" x="104" y="358.0838">PICK_PROTOCOL</text><text fill="#000000" font-family="sans-serif" font-size="13" lengthAdjust="spacing" textLength="118" x="97" y="373.2166">[isProtocolICMPv4]</text></g><!--link none to ip6--><g id="link_none_ip6"><path d="M67.8754,308.1185 C56.2617,322.384 45,341.3005 45,361.0169 C45,361.0169 45,361.0169 45,545.0169 C45,572.9393 64.3507,592.7244 88.9626,606.5965 " fill="none" id="none-to-ip6" style="stroke:#181818;stroke-width:1.0;"/><polygon fill="#181818" points="93.6159,609.1185,87.6094,601.3132,89.2201,606.7359,83.7973,608.3465,93.6159,609.1185" style="stroke:#181818;stroke-width:1.0;"/><text fill="#000000" font-family="sans-serif" font-size="13" lengthAdjust="spacing" textLength="104" x="53" y="450.0838">PICK_PROTOCOL</text><text fill="#000000" font-family="sans-serif" font-size="13" lengthAdjust="spacing" textLength="118" x="46" y="465.2166">[isProtocolICMPv6]</text></g><!--link ip4 to ip6--><g id="link_ip4_ip6"><path d="M182.5745,487.5406 C151.9047,500.5097 123.7166,515.4052 115,529.0169 C101.0324,550.8285 114.1918,574.4209 133.2567,593.975 " fill="none" id="ip4-to-ip6" style="stroke:#181818;stroke-width:1.0;"/><polygon fill="#181818" points="137.1421,597.8303,133.5706,588.6518,133.5927,594.3086,127.9359,594.3308,137.1421,597.8303" style="stroke:#181818;stroke-width:1.0;"/><text fill="#000000" font-family="sans-serif" font-size="13" lengthAdjust="spacing" textLength="104" x="123" y="542.0838">PICK_PROTOCOL</text><text fill="#000000" font-family="sans-serif" font-size="13" lengthAdjust="spacing" textLength="118" x="116" y="557.2166">[isProtocolICMPv6]</text></g><!--link ip6 to ip4--><g id="link_ip6_ip4"><path d="M215.0562,597.7111 C221.8258,586.0675 228.9785,573.1768 235,561.0169 C245.2643,540.289 255.3007,516.6327 263.2812,496.7542 " fill="none" id="ip6-to-ip4" style="stroke:#181818;stroke-width:1.0;"/><polygon fill="#181818" points="265.16,492.0496,258.1073,498.9242,263.3056,496.693,265.5368,501.8912,265.16,492.0496" style="stroke:#181818;stroke-width:1.0;"/><text fill="#000000" font-family="sans-serif" font-size="13" lengthAdjust="spacing" textLength="104" x="257" y="542.0838">PICK_PROTOCOL</text><text fill="#000000" font-family="sans-serif" font-size="13" lengthAdjust="spacing" textLength="118" x="250" y="557.2166">[isProtocolICMPv4]</text></g><!--link AddressFamily to ip4--><g id="link_AddressFamily_ip4"><path d="M221,152.4092 C221,157.1631 221,183.5247 221,205.0169 C221,205.0169 221,205.0169 221,361.0169 C221,378.3845 228.5424,395.0938 238.2338,409.3953 " fill="none" id="AddressFamily-to-ip4" style="stroke:#181818;stroke-width:1.0;"/><polygon fill="#181818" points="241.3045,413.7545,239.3917,404.0931,238.4251,409.6668,232.8514,408.7002,241.3045,413.7545" style="stroke:#181818;stroke-width:1.0;"/><text fill="#000000" font-family="sans-serif" font-size="13" lengthAdjust="spacing" textLength="79" x="222.5" y="280.0838">PICK_FAMILY</text><text fill="#000000" font-family="sans-serif" font-size="13" lengthAdjust="spacing" textLength="80" x="222" y="295.2166">[isFamilyIP4]</text></g><!--link AddressFamily to ip6--><g id="link_AddressFamily_ip6"><path d="M221.603,152.2907 C227.5437,158.5556 276.0371,210.1704 307,258.0169 C349.223,323.2635 367.951,338.425 386,414.0169 C394.051,447.7357 389.2232,457.5004 386,492.0169 C383.0985,523.0879 392.6398,536.766 373,561.0169 C352.7488,586.0227 322.8411,602.911 293.0951,614.272 " fill="none" id="AddressFamily-to-ip6" style="stroke:#181818;stroke-width:1.0;"/><polygon fill="#181818" points="288.324,616.0483,298.154,616.6567,293.0098,614.3037,295.3628,609.1595,288.324,616.0483" style="stroke:#181818;stroke-width:1.0;"/><text fill="#000000" font-family="sans-serif" font-size="13" lengthAdjust="spacing" textLength="79" x="376.5" y="358.0838">PICK_FAMILY</text><text fill="#000000" font-family="sans-serif" font-size="13" lengthAdjust="spacing" textLength="80" x="376" y="373.2166">[isFamilyIP6]</text></g><!--link AddressFamily to none--><g id="link_AddressFamily_none"><path d="M220.38,151.7675 C212.0994,153.2569 123.3882,169.5987 107,189.0169 C92.2847,206.4529 89.3818,232.4791 89.8237,252.7281 " fill="none" id="AddressFamily-to-none" style="stroke:#181818;stroke-width:1.0;"/><polygon fill="#181818" points="90.0029,257.7429,93.6787,248.6057,89.8242,252.7461,85.6838,248.8916,90.0029,257.7429" style="stroke:#181818;stroke-width:1.0;"/><text fill="#000000" font-family="sans-serif" font-size="13" lengthAdjust="spacing" textLength="79" x="122" y="202.0838">PICK_FAMILY</text><text fill="#000000" font-family="sans-serif" font-size="13" lengthAdjust="spacing" textLength="107" x="108" y="217.2166">[canSelectNone]</text></g><line style="stroke:#181818;stroke-width:1.5;stroke-dasharray:8.0,10.0;" x1="451" x2="451" y1="117.2969" y2="697.0169"/><!--cluster Protocol--><g id="cluster_Protocol"><path d="M470.5,124.2969 L1025.5,124.2969 A12.5,12.5 0 0 1 1038,136.7969 L1038,145.5938 L458,145.5938 L458,136.7969 A12.5,12.5 0 0 1 470.5,124.2969 " fill="#F1F1F1" style="stroke:#F1F1F1;stroke-width:1.0;"/><rect fill="none" height="403.72" rx="12.5" ry="12.5" style="stroke:#181818;stroke-width:0.5;" width="580" x="458" y="124.2969"/><line style="stroke:#181818;stroke-width:0.5;" x1="458" x2="1038" y1="145.5938" y2="145.5938"/><text fill="#000000" font-family="sans-serif" font-size="14" lengthAdjust="spacing" textLength="57" x="719.5" y="141.292">Protocol</text></g><ellipse cx="544" cy="297.0169" fill="#222222" rx="10" ry="10" style="stroke:none;stroke-width:1.0;"/><g id="RuleFormManager.CONC20.Protocol.any"><rect fill="#F1F1F1" height="50" rx="12.5" ry="12.5" style="stroke:#181818;stroke-width:0.5;" width="50" x="466" y="272.0169"/><line style="stroke:#181818;stroke-width:0.5;" x1="466" x2="516" y1="298.3138" y2="298.3138"/><text fill="#000000" font-family="sans-serif" font-size="14" lengthAdjust="spacing" textLength="24" x="479" y="290.012">any</text></g><g id="RuleFormManager.CONC20.Protocol.icmp4"><rect fill="#F1F1F1" height="78.2031" rx="12.5" ry="12.5" style="stroke:#181818;stroke-width:0.5;" width="226" x="572" y="258.0169"/><line style="stroke:#181818;stroke-width:0.5;" x1="572" x2="798" y1="284.3138" y2="284.3138"/><text fill="#000000" font-family="sans-serif" font-size="14" lengthAdjust="spacing" textLength="42" x="664" y="276.012">icmp4</text><text fill="#000000" font-family="sans-serif" font-size="12" lengthAdjust="spacing" textLength="206" x="577" y="300.4524">entry / setProtocolPickerToICMP4</text><text fill="#000000" font-family="sans-serif" font-size="12" lengthAdjust="spacing" textLength="140" x="577" y="314.4212">entry / lockFamilyNone</text><text fill="#000000" font-family="sans-serif" font-size="12" lengthAdjust="spacing" textLength="146" x="577" y="328.3899">exit / unlockFamilyNone</text></g><g id="RuleFormManager.CONC20.Protocol.icmp6"><rect fill="#F1F1F1" height="78.2031" rx="12.5" ry="12.5" style="stroke:#181818;stroke-width:0.5;" width="226" x="620" y="442.0169"/><line style="stroke:#181818;stroke-width:0.5;" x1="620" x2="846" y1="468.3138" y2="468.3138"/><text fill="#000000" font-family="sans-serif" font-size="14" lengthAdjust="spacing" textLength="42" x="712" y="460.012">icmp6</text><text fill="#000000" font-family="sans-serif" font-size="12" lengthAdjust="spacing" textLength="206" x="625" y="484.4524">entry / setProtocolPickerToICMP6</text><text fill="#000000" font-family="sans-serif" font-size="12" lengthAdjust="spacing" textLength="140" x="625" y="498.4212">entry / lockFamilyNone</text><text fill="#000000" font-family="sans-serif" font-size="12" lengthAdjust="spacing" textLength="146" x="625" y="512.3899">exit / unlockFamilyNone</text></g><g id="RuleFormManager.CONC20.Protocol.other"><rect fill="#F1F1F1" height="50" rx="12.5" ry="12.5" style="stroke:#181818;stroke-width:0.5;" width="57" x="972.5" y="272.0169"/><line style="stroke:#181818;stroke-width:0.5;" x1="972.5" x2="1029.5" y1="298.3138" y2="298.3138"/><text fill="#000000" font-family="sans-serif" font-size="14" lengthAdjust="spacing" textLength="37" x="982.5" y="290.012">other</text></g><!--reverse link any to *start*Protocol--><g id="link_any_*start*Protocol"><path d="M521.4053,297.0169 C525.4691,297.0169 529.5329,297.0169 533.5967,297.0169 " fill="none" id="any-backto-*start*Protocol" style="stroke:#181818;stroke-width:1.0;"/><polygon fill="#181818" points="516.2578,297.0169,525.2578,301.0169,521.2578,297.0169,525.2578,293.0169,516.2578,297.0169" style="stroke:#181818;stroke-width:1.0;"/></g><!--link icmp4 to icmp6--><g id="link_icmp4_icmp6"><path d="M645.2476,336.179 C629.4056,356.6468 617.3814,382.1361 629,405.0169 C635.4927,417.8031 645.2581,428.9522 656.2493,438.4822 " fill="none" id="icmp4-to-icmp6" style="stroke:#181818;stroke-width:1.0;"/><polygon fill="#181818" points="660.3503,441.9201,656.0228,433.0729,656.5185,438.708,650.8834,439.2038,660.3503,441.9201" style="stroke:#181818;stroke-width:1.0;"/><text fill="#000000" font-family="sans-serif" font-size="13" lengthAdjust="spacing" textLength="79" x="630.5" y="386.0838">PICK_FAMILY</text><text fill="#000000" font-family="sans-serif" font-size="13" lengthAdjust="spacing" textLength="80" x="630" y="401.2166">[isFamilyIP6]</text></g><!--reverse link icmp4 to icmp6--><g id="link_icmp4_icmp6"><path d="M701.0871,340.907 C704.6162,351.3511 708.1464,362.5139 711,373.0169 C717.1458,395.6373 722.4474,421.3388 726.3054,441.9932 " fill="none" id="icmp4-backto-icmp6" style="stroke:#181818;stroke-width:1.0;"/><polygon fill="#181818" points="699.4681,336.1639,698.5901,345.9735,701.0834,340.8958,706.1612,343.389,699.4681,336.1639" style="stroke:#181818;stroke-width:1.0;"/><text fill="#000000" font-family="sans-serif" font-size="13" lengthAdjust="spacing" textLength="79" x="719.5" y="386.0838">PICK_FAMILY</text><text fill="#000000" font-family="sans-serif" font-size="13" lengthAdjust="spacing" textLength="80" x="719" y="401.2166">[isFamilyIP4]</text></g><!--link Protocol to icmp4--><g id="link_Protocol_icmp4"><path d="M761.5803,151.813 C757.4546,153.3704 723.9809,166.5321 709,189.0169 C696.5313,207.7312 690.4476,231.9169 687.5166,252.6553 " fill="none" id="Protocol-to-icmp4" style="stroke:#181818;stroke-width:1.0;"/><polygon fill="#181818" points="686.8374,257.8481,691.971,249.443,687.486,252.8903,684.0386,248.4053,686.8374,257.8481" style="stroke:#181818;stroke-width:1.0;"/><text fill="#000000" font-family="sans-serif" font-size="13" lengthAdjust="spacing" textLength="104" x="717" y="202.0838">PICK_PROTOCOL</text><text fill="#000000" font-family="sans-serif" font-size="13" lengthAdjust="spacing" textLength="118" x="710" y="217.2166">[isProtocolICMPv4]</text></g><!--link Protocol to icmp6--><g id="link_Protocol_icmp6"><path d="M762.4598,151.7474 C768.5918,152.9831 834,167.0539 834,205.0169 C834,205.0169 834,205.0169 834,389.0169 C834,408.4209 823.6857,424.8184 809.6493,438.1494 " fill="none" id="Protocol-to-icmp6" style="stroke:#181818;stroke-width:1.0;"/><polygon fill="#181818" points="805.5971,441.828,814.9495,438.7404,809.2992,438.4673,809.5724,432.817,805.5971,441.828" style="stroke:#181818;stroke-width:1.0;"/><text fill="#000000" font-family="sans-serif" font-size="13" lengthAdjust="spacing" textLength="104" x="842" y="294.0838">PICK_PROTOCOL</text><text fill="#000000" font-family="sans-serif" font-size="13" lengthAdjust="spacing" textLength="118" x="835" y="309.2166">[isProtocolICMPv6]</text></g><!--link Protocol to any--><g id="link_Protocol_any"><path d="M761.5882,151.7057 C753.156,152.7112 617.7155,169.1088 584,189.0169 C551.5724,208.1646 524.8316,242.7173 508.4773,267.5904 " fill="none" id="Protocol-to-any" style="stroke:#181818;stroke-width:1.0;"/><polygon fill="#181818" points="505.7441,271.8052,513.9971,266.4305,508.4646,267.6101,507.285,262.0776,505.7441,271.8052" style="stroke:#181818;stroke-width:1.0;"/><text fill="#000000" font-family="sans-serif" font-size="13" lengthAdjust="spacing" textLength="104" x="585" y="202.0838">PICK_PROTOCOL</text><text fill="#000000" font-family="sans-serif" font-size="13" lengthAdjust="spacing" textLength="96" x="589" y="217.2166">[isProtocolAny]</text></g><!--link Protocol to other--><g id="link_Protocol_other"><path d="M762.5143,151.7001 C767.586,152.1412 809.0946,156.1054 839,170.0169 C891.6219,194.4957 942.6731,239.0252 972.9701,268.3154 " fill="none" id="Protocol-to-other" style="stroke:#181818;stroke-width:1.0;"/><polygon fill="#181818" points="976.5606,271.8095,972.9,262.6662,972.9772,268.3225,967.3209,268.3996,976.5606,271.8095" style="stroke:#181818;stroke-width:1.0;"/><text fill="#000000" font-family="sans-serif" font-size="13" lengthAdjust="spacing" textLength="104" x="918" y="209.5838">PICK_PROTOCOL</text></g><!--link *start to RuleFormManager--><g id="link_*start_RuleFormManager"><path d="M527,26.0036 C527,37.0114 527,56.4128 527,80.7239 " fill="none" id="*start-to-RuleFormManager" style="stroke:#181818;stroke-width:1.0;"/><polygon fill="#181818" points="527,85.9849,531,76.9849,527,80.9849,523,76.9849,527,85.9849" style="stroke:#181818;stroke-width:1.0;"/></g><!--SRC=[bPHFQuCm6CRlVegS1xABvB13GGH1LgjqlGmd8wIXbMeoOXoJjTzzqQYhQTJMcxxFx_txOFAK0jjUWMsL4v_n8aGK7GYth58WGVJFuDUo050XTx_df2nzL6HvBGD0FacJRGKeewHzpxuSy0885Rm6pw0aGgdZ39y8tx4WTWmocPK86UeAN2j-CY456E4ZkH70-KhG8EigGKEYKQMHe1ckNPdgAGwyryzu6-qYBrf_q2GhOyu4momFl33-Tb8TWiiGJ8UX7sVWmysDBwdHlXi6w_UMLGAv-6aCpc1m2ckNetCOqJUI4omsCjgGbyPwv_E_0VjHhhsNotI8rceLkD3jroE3BUGM7ACuP_YaMjmCPkuboXiLdT30vPhGA9xBjr1J6cNV7A2JBvn0oUog8-wuzR1hMsSMtNM3tc_c4IhFEWkwj3PGJ1pbRqlZb9ikrXy0]--></g></svg>