<?xml version="1.0" encoding="UTF-8" standalone="no"?><svg xmlns="http://www.w3.org/2000/svg" xmlns:xlink="http://www.w3.org/1999/xlink" contentStyleType="text/css" height="305px" preserveAspectRatio="none" style="width:686px;height:305px;background:#FFFFFF;" version="1.1" viewBox="0 0 686 305" width="686px" zoomAndPan="magnify"><defs/><g><!--cluster blinking--><g id="cluster_blinking"><path d="M91.5,195 L474.5,195 A12.5,12.5 0 0 1 487,207.5 L487,235.2656 L79,235.2656 L79,207.5 A12.5,12.5 0 0 1 91.5,195 " fill="#F1F1F1" style="stroke:#F1F1F1;stroke-width:1.0;"/><rect fill="none" height="104" rx="12.5" ry="12.5" style="stroke:#181818;stroke-width:0.5;" width="408" x="79" y="195"/><line style="stroke:#181818;stroke-width:0.5;" x1="79" x2="487" y1="235.2656" y2="235.2656"/><line style="stroke:#181818;stroke-width:0.5;" x1="79" x2="487" y1="216.2969" y2="216.2969"/><text fill="#000000" font-family="sans-serif" font-size="14" lengthAdjust="spacing" textLength="53" x="219.5" y="211.9951">blinking</text><text fill="#000000" font-family="sans-serif" font-size="12" lengthAdjust="spacing" textLength="127" x="84" y="229.9355">invoke / blinkerRelay</text></g><g id="blinking.blinking.red"><rect fill="#F1F1F1" height="50.2656" rx="12.5" ry="12.5" style="stroke:#181818;stroke-width:0.5;" width="140" x="87" y="241"/><line style="stroke:#181818;stroke-width:0.5;" x1="87" x2="227" y1="267.2969" y2="267.2969"/><text fill="#000000" font-family="sans-serif" font-size="14" lengthAdjust="spacing" textLength="23" x="145.5" y="258.9951">red</text><text fill="#000000" font-family="sans-serif" font-size="12" lengthAdjust="spacing" textLength="120" x="92" y="283.4355">entry / setColorRed</text></g><g id="blinking.blinking.yellow"><rect fill="#F1F1F1" height="50.2656" rx="12.5" ry="12.5" style="stroke:#181818;stroke-width:0.5;" width="154" x="290" y="241"/><line style="stroke:#181818;stroke-width:0.5;" x1="290" x2="444" y1="267.2969" y2="267.2969"/><text fill="#000000" font-family="sans-serif" font-size="14" lengthAdjust="spacing" textLength="42" x="346" y="258.9951">yellow</text><text fill="#000000" font-family="sans-serif" font-size="12" lengthAdjust="spacing" textLength="134" x="295" y="283.4355">entry / setColorYellow</text></g><ellipse cx="16" cy="73.5" fill="#222222" rx="10" ry="10" style="stroke:none;stroke-width:1.0;"/><path d="M73.5,7 L660.5,7 A12.5,12.5 0 0 1 673,19.5 L673,33.2969 L61,33.2969 L61,19.5 A12.5,12.5 0 0 1 73.5,7 " fill="#F1F1F1" style="stroke:#F1F1F1;stroke-width:1.0;"/><rect fill="none" height="133.1284" rx="12.5" ry="12.5" style="stroke:#181818;stroke-width:0.5;" width="612" x="61" y="7"/><line style="stroke:#181818;stroke-width:0.5;" x1="61" x2="673" y1="33.2969" y2="33.2969"/><text fill="#000000" font-family="sans-serif" font-size="14" lengthAdjust="spacing" textLength="32" x="351" y="24.9951">solid</text><g id="solid.solid.red"><rect fill="#F1F1F1" height="50.2656" rx="12.5" ry="12.5" style="stroke:#181818;stroke-width:0.5;" width="140" x="110" y="79.8628"/><line style="stroke:#181818;stroke-width:0.5;" x1="110" x2="250" y1="106.1597" y2="106.1597"/><text fill="#000000" font-family="sans-serif" font-size="14" lengthAdjust="spacing" textLength="23" x="168.5" y="97.8579">red</text><text fill="#000000" font-family="sans-serif" font-size="12" lengthAdjust="spacing" textLength="120" x="115" y="122.2983">entry / setColorRed</text></g><g id="solid.solid.yellow"><rect fill="#F1F1F1" height="50.2656" rx="12.5" ry="12.5" style="stroke:#181818;stroke-width:0.5;" width="154" x="303" y="79.8628"/><line style="stroke:#181818;stroke-width:0.5;" x1="303" x2="457" y1="106.1597" y2="106.1597"/><text fill="#000000" font-family="sans-serif" font-size="14" lengthAdjust="spacing" textLength="42" x="359" y="97.8579">yellow</text><text fill="#000000" font-family="sans-serif" font-size="12" lengthAdjust="spacing" textLength="134" x="308" y="122.2983">entry / setColorYellow</text></g><g id="solid.solid.green"><rect fill="#F1F1F1" height="50.2656" rx="12.5" ry="12.5" style="stroke:#181818;stroke-width:0.5;" width="154" x="510" y="79.8628"/><line style="stroke:#181818;stroke-width:0.5;" x1="510" x2="664" y1="106.1597" y2="106.1597"/><text fill="#000000" font-family="sans-serif" font-size="14" lengthAdjust="spacing" textLength="41" x="566.5" y="97.8579">green</text><text fill="#000000" font-family="sans-serif" font-size="12" lengthAdjust="spacing" textLength="134" x="515" y="122.2983">entry / setColorGreen</text></g><ellipse cx="82" cy="104.8628" fill="#222222" rx="10" ry="10" style="stroke:none;stroke-width:1.0;"/><!--link *start*solid to solid.red--><g id="link_*start*solid_solid.red"><path d="M92.3359,104.8628 C96.4291,104.8628 100.5223,104.8628 104.6155,104.8628 " fill="none" id="*start*solid-to-solid.red" style="stroke:#181818;stroke-width:1.0;"/><polygon fill="#181818" points="109.8003,104.8628,100.8003,100.8628,104.8003,104.8628,100.8003,108.8628,109.8003,104.8628" style="stroke:#181818;stroke-width:1.0;"/></g><!--link solid.red to solid.yellow--><g id="link_solid.red_solid.yellow"><path d="M250.2313,104.8628 C265.5009,104.8628 281.7895,104.8628 297.4849,104.8628 " fill="none" id="solid.red-to-solid.yellow" style="stroke:#181818;stroke-width:1.0;"/><polygon fill="#181818" points="302.7826,104.8628,293.7826,100.8628,297.7826,104.8628,293.7826,108.8628,302.7826,104.8628" style="stroke:#181818;stroke-width:1.0;"/><text fill="#000000" font-family="sans-serif" font-size="13" lengthAdjust="spacing" textLength="33" x="260" y="97.9297">NEXT</text></g><!--link solid.yellow to solid.green--><g id="link_solid.yellow_solid.green"><path d="M457.0792,104.8628 C472.5701,104.8628 488.9073,104.8628 504.5721,104.8628 " fill="none" id="solid.yellow-to-solid.green" style="stroke:#181818;stroke-width:1.0;"/><polygon fill="#181818" points="509.8565,104.8628,500.8565,100.8628,504.8565,104.8628,500.8565,108.8628,509.8565,104.8628" style="stroke:#181818;stroke-width:1.0;"/><text fill="#000000" font-family="sans-serif" font-size="13" lengthAdjust="spacing" textLength="33" x="467" y="97.9297">NEXT</text></g><!--link solid.green to solid.red--><g id="link_solid.green_solid.red"><path d="M530.3141,79.8351 C485.2344,62.8317 420.3494,44.7821 362.5,52.8628 C326.5732,57.8813 287.7894,68.2026 255.2527,78.3368 " fill="none" id="solid.green-to-solid.red" style="stroke:#181818;stroke-width:1.0;"/><polygon fill="#181818" points="250.0858,79.9608,259.8711,81.0781,254.8557,78.4615,257.4723,73.4462,250.0858,79.9608" style="stroke:#181818;stroke-width:1.0;"/><text fill="#000000" font-family="sans-serif" font-size="13" lengthAdjust="spacing" textLength="33" x="363.5" y="57.9297">NEXT</text></g><!--link *start to solid--><g id="link_*start_solid"><path d="M26.2832,73.5 C36.1057,73.5 45.9282,73.5 55.7507,73.5 " fill="none" id="*start-to-solid" style="stroke:#181818;stroke-width:1.0;"/><polygon fill="#181818" points="60.8873,73.5,51.8873,69.5,55.8873,73.5,51.8873,77.5,60.8873,73.5" style="stroke:#181818;stroke-width:1.0;"/></g><!--link blinking to solid--><g id="link_blinking_solid"><path d="M461.9006,194.7942 C461.8674,194.7256 461.8342,194.6569 461.801,194.5883 C461.7344,194.4511 461.6677,194.3139 461.6009,194.1768 C461.4671,193.9024 461.3327,193.6281 461.1976,193.3538 C460.9274,192.8052 460.6544,192.2569 460.3788,191.7087 C459.8276,190.6125 459.2658,189.5172 458.6938,188.4232 C457.5499,186.2352 456.3657,184.0523 455.1458,181.8771 C452.7059,177.5266 450.1228,173.2071 447.4329,168.9391 C442.053,160.4032 436.2455,152.0738 430.3002,144.1171 " fill="none" id="blinking-to-solid" style="stroke:#181818;stroke-width:1.0;"/><polygon fill="#181818" points="427.2667,140.1043,429.5029,149.6959,430.2818,144.0929,435.8848,144.8718,427.2667,140.1043" style="stroke:#181818;stroke-width:1.0;"/><text fill="#000000" font-family="sans-serif" font-size="13" lengthAdjust="spacing" textLength="33" x="457" y="183.0669">NEXT</text></g><!--link solid to blinking.red--><g id="link_solid_blinking.red"><path d="M294.4359,140.0171 C258.2769,173.1628 216.4272,211.5251 188.4981,237.1267 " fill="none" id="solid-to-blinking.red" style="stroke:#181818;stroke-width:1.0;"/><polygon fill="#181818" points="184.4808,240.8093,193.8181,237.6766,188.1666,237.4307,188.4125,231.7792,184.4808,240.8093" style="stroke:#181818;stroke-width:1.0;"/><text fill="#000000" font-family="sans-serif" font-size="13" lengthAdjust="spacing" textLength="26" x="257" y="183.0669">FAIL</text></g><!--link solid to blinking.yellow--><g id="link_solid_blinking.yellow"><path d="M367,140.0171 C367,172.4836 367,209.9551 367,235.5369 " fill="none" id="solid-to-blinking.yellow" style="stroke:#181818;stroke-width:1.0;"/><polygon fill="#181818" points="367,240.8093,371,231.8093,367,235.8093,363,231.8093,367,240.8093" style="stroke:#181818;stroke-width:1.0;"/><text fill="#000000" font-family="sans-serif" font-size="13" lengthAdjust="spacing" textLength="58" x="368" y="183.0669">CAUTION</text></g><!--link blinking.red to blinking.yellow--><g id="link_blinking.red_blinking.yellow"><path d="M227.2189,266 C245.638,266 265.6668,266 284.6574,266 " fill="none" id="blinking.red-to-blinking.yellow" style="stroke:#181818;stroke-width:1.0;"/><polygon fill="#181818" points="289.984,266,280.984,262,284.984,266,280.984,270,289.984,266" style="stroke:#181818;stroke-width:1.0;"/><text fill="#000000" font-family="sans-serif" font-size="13" lengthAdjust="spacing" textLength="58" x="229.5" y="259.0669">CAUTION</text></g><!--link blinking.yellow to blinking.red--><g id="link_blinking.yellow_blinking.red"><path d="M289.7241,285.1339 C274.757,286.9924 259.168,287.655 244.5,286 C240.5805,285.5578 236.5806,285.0074 232.5546,284.3747 " fill="none" id="blinking.yellow-to-blinking.red" style="stroke:#181818;stroke-width:1.0;"/><polygon fill="#181818" points="227.4451,283.5312,235.6732,288.944,232.3783,284.3458,236.9765,281.0509,227.4451,283.5312" style="stroke:#181818;stroke-width:1.0;"/><text fill="#000000" font-family="sans-serif" font-size="13" lengthAdjust="spacing" textLength="26" x="245.5" y="282.0669">FAIL</text></g><!--SRC=[bL7H2e8m57tVLrny3Ant7mAH2Y4Cmg287Wml8euDt2Wa-lVcffkA3_cqktFFkVViJCXC8WXEonm-142u-xh67381dZez202Ph1lOW40PSShhC-OJGOEKyhVMc79ETjETYRAe4PaMwcfETsWRHEdkgmVuM-Un7MNzsaRd9O1aTqqjfKCjo-oTa0muND4pleGOrqzQigfanI2p7beIczKiIKwPiEi3ADcBLwXO6aCrdcOD8SEG7Br7-lUOYw_WaVi0zc5ydElQLAFmaiQdX8nq_p7T7ymj_G40]--></g></svg>