<?xml version="1.0" encoding="UTF-8" standalone="yes"?><svg xmlns="http://www.w3.org/2000/svg" xmlns:xlink="http://www.w3.org/1999/xlink" height="789px" style="width:468px;height:789px;" version="1.1" viewBox="0 0 468 789" width="468px"><defs><filter height="300%" id="f1" width="300%" x="-1" y="-1"><feGaussianBlur result="blurOut" stdDeviation="2.0"/><feColorMatrix in="blurOut" result="blurOut2" type="matrix" values="0 0 0 0 0 0 0 0 0 0 0 0 0 0 0 0 0 0 .4 0"/><feOffset dx="4.0" dy="4.0" in="blurOut2" result="blurOut3"/><feBlend in="SourceGraphic" in2="blurOut3" mode="normal"/></filter></defs><g><line style="stroke: #A80036; stroke-width: 1.0; stroke-dasharray: 5.0,5.0;" x1="30" x2="30" y1="38.2969" y2="751.6875"/><line style="stroke: #A80036; stroke-width: 1.0; stroke-dasharray: 5.0,5.0;" x1="161.5" x2="161.5" y1="38.2969" y2="751.6875"/><line style="stroke: #A80036; stroke-width: 1.0; stroke-dasharray: 5.0,5.0;" x1="277" x2="277" y1="38.2969" y2="751.6875"/><line style="stroke: #A80036; stroke-width: 1.0; stroke-dasharray: 5.0,5.0;" x1="364" x2="364" y1="38.2969" y2="751.6875"/><line style="stroke: #A80036; stroke-width: 1.0; stroke-dasharray: 5.0,5.0;" x1="436" x2="436" y1="38.2969" y2="751.6875"/><rect fill="#FEFECE" filter="url(#f1)" height="30.2969" style="stroke: #A80036; stroke-width: 1.5;" width="40" x="8" y="3"/><text fill="#000000" font-family="sans-serif" font-size="14" lengthAdjust="spacingAndGlyphs" textLength="26" x="15" y="22.9951">text</text><rect fill="#FEFECE" filter="url(#f1)" height="30.2969" style="stroke: #A80036; stroke-width: 1.5;" width="40" x="8" y="750.6875"/><text fill="#000000" font-family="sans-serif" font-size="14" lengthAdjust="spacingAndGlyphs" textLength="26" x="15" y="770.6826">text</text><rect fill="#FEFECE" filter="url(#f1)" height="30.2969" style="stroke: #A80036; stroke-width: 1.5;" width="101" x="109.5" y="3"/><text fill="#000000" font-family="sans-serif" font-size="14" lengthAdjust="spacingAndGlyphs" textLength="87" x="116.5" y="22.9951">replacement</text><rect fill="#FEFECE" filter="url(#f1)" height="30.2969" style="stroke: #A80036; stroke-width: 1.5;" width="101" x="109.5" y="750.6875"/><text fill="#000000" font-family="sans-serif" font-size="14" lengthAdjust="spacingAndGlyphs" textLength="87" x="116.5" y="770.6826">replacement</text><rect fill="#FEFECE" filter="url(#f1)" height="30.2969" style="stroke: #A80036; stroke-width: 1.5;" width="80" x="235" y="3"/><text fill="#000000" font-family="sans-serif" font-size="14" lengthAdjust="spacingAndGlyphs" textLength="66" x="242" y="22.9951">operation</text><rect fill="#FEFECE" filter="url(#f1)" height="30.2969" style="stroke: #A80036; stroke-width: 1.5;" width="80" x="235" y="750.6875"/><text fill="#000000" font-family="sans-serif" font-size="14" lengthAdjust="spacingAndGlyphs" textLength="66" x="242" y="770.6826">operation</text><rect fill="#FEFECE" filter="url(#f1)" height="30.2969" style="stroke: #A80036; stroke-width: 1.5;" width="66" x="329" y="3"/><text fill="#000000" font-family="sans-serif" font-size="14" lengthAdjust="spacingAndGlyphs" textLength="52" x="336" y="22.9951">variable</text><rect fill="#FEFECE" filter="url(#f1)" height="30.2969" style="stroke: #A80036; stroke-width: 1.5;" width="66" x="329" y="750.6875"/><text fill="#000000" font-family="sans-serif" font-size="14" lengthAdjust="spacingAndGlyphs" textLength="52" x="336" y="770.6826">variable</text><rect fill="#FEFECE" filter="url(#f1)" height="30.2969" style="stroke: #A80036; stroke-width: 1.5;" width="50" x="409" y="3"/><text fill="#000000" font-family="sans-serif" font-size="14" lengthAdjust="spacingAndGlyphs" textLength="36" x="416" y="22.9951">done</text><rect fill="#FEFECE" filter="url(#f1)" height="30.2969" style="stroke: #A80036; stroke-width: 1.5;" width="50" x="409" y="750.6875"/><text fill="#000000" font-family="sans-serif" font-size="14" lengthAdjust="spacingAndGlyphs" textLength="36" x="416" y="770.6826">done</text><line style="stroke: #A80036; stroke-width: 1.0;" x1="30" x2="72" y1="69.4297" y2="69.4297"/><line style="stroke: #A80036; stroke-width: 1.0;" x1="72" x2="72" y1="69.4297" y2="82.4297"/><line style="stroke: #A80036; stroke-width: 1.0;" x1="31" x2="72" y1="82.4297" y2="82.4297"/><polygon fill="#A80036" points="41,78.4297,31,82.4297,41,86.4297,37,82.4297" style="stroke: #A80036; stroke-width: 1.0;"/><text fill="#000000" font-family="sans-serif" font-size="13" lengthAdjust="spacingAndGlyphs" textLength="48" x="37" y="64.3638">TEXT "f"</text><line style="stroke: #A80036; stroke-width: 1.0;" x1="30" x2="72" y1="111.5625" y2="111.5625"/><line style="stroke: #A80036; stroke-width: 1.0;" x1="72" x2="72" y1="111.5625" y2="124.5625"/><line style="stroke: #A80036; stroke-width: 1.0;" x1="31" x2="72" y1="124.5625" y2="124.5625"/><polygon fill="#A80036" points="41,120.5625,31,124.5625,41,128.5625,37,124.5625" style="stroke: #A80036; stroke-width: 1.0;"/><text fill="#000000" font-family="sans-serif" font-size="13" lengthAdjust="spacingAndGlyphs" textLength="52" x="37" y="106.4966">TEXT "o"</text><line style="stroke: #A80036; stroke-width: 1.0;" x1="30" x2="72" y1="153.6953" y2="153.6953"/><line style="stroke: #A80036; stroke-width: 1.0;" x1="72" x2="72" y1="153.6953" y2="166.6953"/><line style="stroke: #A80036; stroke-width: 1.0;" x1="31" x2="72" y1="166.6953" y2="166.6953"/><polygon fill="#A80036" points="41,162.6953,31,166.6953,41,170.6953,37,166.6953" style="stroke: #A80036; stroke-width: 1.0;"/><text fill="#000000" font-family="sans-serif" font-size="13" lengthAdjust="spacingAndGlyphs" textLength="52" x="37" y="148.6294">TEXT "o"</text><line style="stroke: #A80036; stroke-width: 1.0;" x1="30" x2="72" y1="195.8281" y2="195.8281"/><line style="stroke: #A80036; stroke-width: 1.0;" x1="72" x2="72" y1="195.8281" y2="208.8281"/><line style="stroke: #A80036; stroke-width: 1.0;" x1="31" x2="72" y1="208.8281" y2="208.8281"/><polygon fill="#A80036" points="41,204.8281,31,208.8281,41,212.8281,37,208.8281" style="stroke: #A80036; stroke-width: 1.0;"/><text fill="#000000" font-family="sans-serif" font-size="13" lengthAdjust="spacingAndGlyphs" textLength="91" x="37" y="190.7622">OPERATION "."</text><line style="stroke: #A80036; stroke-width: 1.0;" x1="30" x2="72" y1="237.9609" y2="237.9609"/><line style="stroke: #A80036; stroke-width: 1.0;" x1="72" x2="72" y1="237.9609" y2="250.9609"/><line style="stroke: #A80036; stroke-width: 1.0;" x1="31" x2="72" y1="250.9609" y2="250.9609"/><polygon fill="#A80036" points="41,246.9609,31,250.9609,41,254.9609,37,250.9609" style="stroke: #A80036; stroke-width: 1.0;"/><text fill="#000000" font-family="sans-serif" font-size="13" lengthAdjust="spacingAndGlyphs" textLength="51" x="37" y="232.895">TEXT "c"</text><line style="stroke: #A80036; stroke-width: 1.0;" x1="30" x2="72" y1="280.0938" y2="280.0938"/><line style="stroke: #A80036; stroke-width: 1.0;" x1="72" x2="72" y1="280.0938" y2="293.0938"/><line style="stroke: #A80036; stroke-width: 1.0;" x1="31" x2="72" y1="293.0938" y2="293.0938"/><polygon fill="#A80036" points="41,289.0938,31,293.0938,41,297.0938,37,293.0938" style="stroke: #A80036; stroke-width: 1.0;"/><text fill="#000000" font-family="sans-serif" font-size="13" lengthAdjust="spacingAndGlyphs" textLength="52" x="37" y="275.0278">TEXT "o"</text><line style="stroke: #A80036; stroke-width: 1.0;" x1="30" x2="72" y1="322.2266" y2="322.2266"/><line style="stroke: #A80036; stroke-width: 1.0;" x1="72" x2="72" y1="322.2266" y2="335.2266"/><line style="stroke: #A80036; stroke-width: 1.0;" x1="31" x2="72" y1="335.2266" y2="335.2266"/><polygon fill="#A80036" points="41,331.2266,31,335.2266,41,339.2266,37,335.2266" style="stroke: #A80036; stroke-width: 1.0;"/><text fill="#000000" font-family="sans-serif" font-size="13" lengthAdjust="spacingAndGlyphs" textLength="57" x="37" y="317.1606">TEXT "m"</text><polygon fill="#A80036" points="150,360.2266,160,364.2266,150,368.2266,154,364.2266" style="stroke: #A80036; stroke-width: 1.0;"/><line style="stroke: #A80036; stroke-width: 1.0;" x1="30" x2="156" y1="364.2266" y2="364.2266"/><text fill="#000000" font-family="sans-serif" font-size="13" lengthAdjust="spacingAndGlyphs" textLength="108" x="37" y="359.2935">OPEN_BRACE "{"</text><polygon fill="#A80036" points="265,389.3594,275,393.3594,265,397.3594,269,393.3594" style="stroke: #A80036; stroke-width: 1.0;"/><line style="stroke: #A80036; stroke-width: 1.0;" x1="162" x2="271" y1="393.3594" y2="393.3594"/><text fill="#000000" font-family="sans-serif" font-size="13" lengthAdjust="spacingAndGlyphs" textLength="91" x="169" y="388.4263">OPERATION "/"</text><polygon fill="#A80036" points="352,418.4922,362,422.4922,352,426.4922,356,422.4922" style="stroke: #A80036; stroke-width: 1.0;"/><line style="stroke: #A80036; stroke-width: 1.0;" x1="277" x2="358" y1="422.4922" y2="422.4922"/><text fill="#000000" font-family="sans-serif" font-size="13" lengthAdjust="spacingAndGlyphs" textLength="52" x="284" y="417.5591">TEXT "b"</text><line style="stroke: #A80036; stroke-width: 1.0;" x1="364" x2="406" y1="451.7578" y2="451.7578"/><line style="stroke: #A80036; stroke-width: 1.0;" x1="406" x2="406" y1="451.7578" y2="464.7578"/><line style="stroke: #A80036; stroke-width: 1.0;" x1="365" x2="406" y1="464.7578" y2="464.7578"/><polygon fill="#A80036" points="375,460.7578,365,464.7578,375,468.7578,371,464.7578" style="stroke: #A80036; stroke-width: 1.0;"/><text fill="#000000" font-family="sans-serif" font-size="13" lengthAdjust="spacingAndGlyphs" textLength="52" x="371" y="446.6919">TEXT "a"</text><line style="stroke: #A80036; stroke-width: 1.0;" x1="364" x2="406" y1="493.8906" y2="493.8906"/><line style="stroke: #A80036; stroke-width: 1.0;" x1="406" x2="406" y1="493.8906" y2="506.8906"/><line style="stroke: #A80036; stroke-width: 1.0;" x1="365" x2="406" y1="506.8906" y2="506.8906"/><polygon fill="#A80036" points="375,502.8906,365,506.8906,375,510.8906,371,506.8906" style="stroke: #A80036; stroke-width: 1.0;"/><text fill="#000000" font-family="sans-serif" font-size="13" lengthAdjust="spacingAndGlyphs" textLength="49" x="371" y="488.8247">TEXT "r"</text><line style="stroke: #A80036; stroke-width: 1.0;" x1="364" x2="406" y1="536.0234" y2="536.0234"/><line style="stroke: #A80036; stroke-width: 1.0;" x1="406" x2="406" y1="536.0234" y2="549.0234"/><line style="stroke: #A80036; stroke-width: 1.0;" x1="365" x2="406" y1="549.0234" y2="549.0234"/><polygon fill="#A80036" points="375,545.0234,365,549.0234,375,553.0234,371,549.0234" style="stroke: #A80036; stroke-width: 1.0;"/><text fill="#000000" font-family="sans-serif" font-size="13" lengthAdjust="spacingAndGlyphs" textLength="52" x="371" y="530.9575">SPLIT ","</text><line style="stroke: #A80036; stroke-width: 1.0;" x1="364" x2="406" y1="578.1563" y2="578.1563"/><line style="stroke: #A80036; stroke-width: 1.0;" x1="406" x2="406" y1="578.1563" y2="591.1563"/><line style="stroke: #A80036; stroke-width: 1.0;" x1="365" x2="406" y1="591.1563" y2="591.1563"/><polygon fill="#A80036" points="375,587.1563,365,591.1563,375,595.1563,371,591.1563" style="stroke: #A80036; stroke-width: 1.0;"/><text fill="#000000" font-family="sans-serif" font-size="13" lengthAdjust="spacingAndGlyphs" textLength="52" x="371" y="573.0903">TEXT "b"</text><line style="stroke: #A80036; stroke-width: 1.0;" x1="364" x2="406" y1="620.2891" y2="620.2891"/><line style="stroke: #A80036; stroke-width: 1.0;" x1="406" x2="406" y1="620.2891" y2="633.2891"/><line style="stroke: #A80036; stroke-width: 1.0;" x1="365" x2="406" y1="633.2891" y2="633.2891"/><polygon fill="#A80036" points="375,629.2891,365,633.2891,375,637.2891,371,633.2891" style="stroke: #A80036; stroke-width: 1.0;"/><text fill="#000000" font-family="sans-serif" font-size="13" lengthAdjust="spacingAndGlyphs" textLength="52" x="371" y="615.2231">TEXT "a"</text><line style="stroke: #A80036; stroke-width: 1.0;" x1="364" x2="406" y1="662.4219" y2="662.4219"/><line style="stroke: #A80036; stroke-width: 1.0;" x1="406" x2="406" y1="662.4219" y2="675.4219"/><line style="stroke: #A80036; stroke-width: 1.0;" x1="365" x2="406" y1="675.4219" y2="675.4219"/><polygon fill="#A80036" points="375,671.4219,365,675.4219,375,679.4219,371,675.4219" style="stroke: #A80036; stroke-width: 1.0;"/><text fill="#000000" font-family="sans-serif" font-size="13" lengthAdjust="spacingAndGlyphs" textLength="51" x="371" y="657.356">TEXT "z"</text><polygon fill="#A80036" points="41,700.4219,31,704.4219,41,708.4219,37,704.4219" style="stroke: #A80036; stroke-width: 1.0;"/><line style="stroke: #A80036; stroke-width: 1.0;" x1="35" x2="363" y1="704.4219" y2="704.4219"/><text fill="#000000" font-family="sans-serif" font-size="13" lengthAdjust="spacingAndGlyphs" textLength="115" x="47" y="699.4888">CLOSE_BRACE "}"</text><polygon fill="#A80036" points="424,729.5547,434,733.5547,424,737.5547,428,733.5547" style="stroke: #A80036; stroke-width: 1.0;"/><line style="stroke: #A80036; stroke-width: 1.0;" x1="30" x2="430" y1="733.5547" y2="733.5547"/><text fill="#000000" font-family="sans-serif" font-size="13" lengthAdjust="spacingAndGlyphs" textLength="73" x="37" y="728.6216">END_INPUT</text></g></svg>