<?xml version="1.0" encoding="UTF-8" standalone="no"?><svg xmlns="http://www.w3.org/2000/svg" xmlns:xlink="http://www.w3.org/1999/xlink" contentStyleType="text/css" height="784px" preserveAspectRatio="none" style="width:454px;height:784px;background:#FFFFFF;" version="1.1" viewBox="0 0 454 784" width="454px" zoomAndPan="magnify"><defs/><g><line style="stroke:#181818;stroke-width:0.5;stroke-dasharray:5.0,5.0;" x1="25" x2="25" y1="36.2969" y2="749.6875"/><line style="stroke:#181818;stroke-width:0.5;stroke-dasharray:5.0,5.0;" x1="156.5" x2="156.5" y1="36.2969" y2="749.6875"/><line style="stroke:#181818;stroke-width:0.5;stroke-dasharray:5.0,5.0;" x1="272" x2="272" y1="36.2969" y2="749.6875"/><line style="stroke:#181818;stroke-width:0.5;stroke-dasharray:5.0,5.0;" x1="355" x2="355" y1="36.2969" y2="749.6875"/><line style="stroke:#181818;stroke-width:0.5;stroke-dasharray:5.0,5.0;" x1="423" x2="423" y1="36.2969" y2="749.6875"/><rect fill="#E2E2F0" height="30.2969" rx="2.5" ry="2.5" style="stroke:#181818;stroke-width:0.5;" width="40" x="5" y="5"/><text fill="#000000" font-family="sans-serif" font-size="14" lengthAdjust="spacing" textLength="26" x="12" y="24.9951">text</text><rect fill="#E2E2F0" height="30.2969" rx="2.5" ry="2.5" style="stroke:#181818;stroke-width:0.5;" width="40" x="5" y="748.6875"/><text fill="#000000" font-family="sans-serif" font-size="14" lengthAdjust="spacing" textLength="26" x="12" y="768.6826">text</text><rect fill="#E2E2F0" height="30.2969" rx="2.5" ry="2.5" style="stroke:#181818;stroke-width:0.5;" width="101" x="106.5" y="5"/><text fill="#000000" font-family="sans-serif" font-size="14" lengthAdjust="spacing" textLength="87" x="113.5" y="24.9951">replacement</text><rect fill="#E2E2F0" height="30.2969" rx="2.5" ry="2.5" style="stroke:#181818;stroke-width:0.5;" width="101" x="106.5" y="748.6875"/><text fill="#000000" font-family="sans-serif" font-size="14" lengthAdjust="spacing" textLength="87" x="113.5" y="768.6826">replacement</text><rect fill="#E2E2F0" height="30.2969" rx="2.5" ry="2.5" style="stroke:#181818;stroke-width:0.5;" width="80" x="232" y="5"/><text fill="#000000" font-family="sans-serif" font-size="14" lengthAdjust="spacing" textLength="66" x="239" y="24.9951">operation</text><rect fill="#E2E2F0" height="30.2969" rx="2.5" ry="2.5" style="stroke:#181818;stroke-width:0.5;" width="80" x="232" y="748.6875"/><text fill="#000000" font-family="sans-serif" font-size="14" lengthAdjust="spacing" textLength="66" x="239" y="768.6826">operation</text><rect fill="#E2E2F0" height="30.2969" rx="2.5" ry="2.5" style="stroke:#181818;stroke-width:0.5;" width="66" x="322" y="5"/><text fill="#000000" font-family="sans-serif" font-size="14" lengthAdjust="spacing" textLength="52" x="329" y="24.9951">variable</text><rect fill="#E2E2F0" height="30.2969" rx="2.5" ry="2.5" style="stroke:#181818;stroke-width:0.5;" width="66" x="322" y="748.6875"/><text fill="#000000" font-family="sans-serif" font-size="14" lengthAdjust="spacing" textLength="52" x="329" y="768.6826">variable</text><rect fill="#E2E2F0" height="30.2969" rx="2.5" ry="2.5" style="stroke:#181818;stroke-width:0.5;" width="50" x="398" y="5"/><text fill="#000000" font-family="sans-serif" font-size="14" lengthAdjust="spacing" textLength="36" x="405" y="24.9951">done</text><rect fill="#E2E2F0" height="30.2969" rx="2.5" ry="2.5" style="stroke:#181818;stroke-width:0.5;" width="50" x="398" y="748.6875"/><text fill="#000000" font-family="sans-serif" font-size="14" lengthAdjust="spacing" textLength="36" x="405" y="768.6826">done</text><line style="stroke:#181818;stroke-width:1.0;" x1="25" x2="67" y1="67.4297" y2="67.4297"/><line style="stroke:#181818;stroke-width:1.0;" x1="67" x2="67" y1="67.4297" y2="80.4297"/><line style="stroke:#181818;stroke-width:1.0;" x1="26" x2="67" y1="80.4297" y2="80.4297"/><polygon fill="#181818" points="36,76.4297,26,80.4297,36,84.4297,32,80.4297" style="stroke:#181818;stroke-width:1.0;"/><text fill="#000000" font-family="sans-serif" font-size="13" lengthAdjust="spacing" textLength="48" x="32" y="62.3638">TEXT "f"</text><line style="stroke:#181818;stroke-width:1.0;" x1="25" x2="67" y1="109.5625" y2="109.5625"/><line style="stroke:#181818;stroke-width:1.0;" x1="67" x2="67" y1="109.5625" y2="122.5625"/><line style="stroke:#181818;stroke-width:1.0;" x1="26" x2="67" y1="122.5625" y2="122.5625"/><polygon fill="#181818" points="36,118.5625,26,122.5625,36,126.5625,32,122.5625" style="stroke:#181818;stroke-width:1.0;"/><text fill="#000000" font-family="sans-serif" font-size="13" lengthAdjust="spacing" textLength="52" x="32" y="104.4966">TEXT "o"</text><line style="stroke:#181818;stroke-width:1.0;" x1="25" x2="67" y1="151.6953" y2="151.6953"/><line style="stroke:#181818;stroke-width:1.0;" x1="67" x2="67" y1="151.6953" y2="164.6953"/><line style="stroke:#181818;stroke-width:1.0;" x1="26" x2="67" y1="164.6953" y2="164.6953"/><polygon fill="#181818" points="36,160.6953,26,164.6953,36,168.6953,32,164.6953" style="stroke:#181818;stroke-width:1.0;"/><text fill="#000000" font-family="sans-serif" font-size="13" lengthAdjust="spacing" textLength="52" x="32" y="146.6294">TEXT "o"</text><line style="stroke:#181818;stroke-width:1.0;" x1="25" x2="67" y1="193.8281" y2="193.8281"/><line style="stroke:#181818;stroke-width:1.0;" x1="67" x2="67" y1="193.8281" y2="206.8281"/><line style="stroke:#181818;stroke-width:1.0;" x1="26" x2="67" y1="206.8281" y2="206.8281"/><polygon fill="#181818" points="36,202.8281,26,206.8281,36,210.8281,32,206.8281" style="stroke:#181818;stroke-width:1.0;"/><text fill="#000000" font-family="sans-serif" font-size="13" lengthAdjust="spacing" textLength="91" x="32" y="188.7622">OPERATION "."</text><line style="stroke:#181818;stroke-width:1.0;" x1="25" x2="67" y1="235.9609" y2="235.9609"/><line style="stroke:#181818;stroke-width:1.0;" x1="67" x2="67" y1="235.9609" y2="248.9609"/><line style="stroke:#181818;stroke-width:1.0;" x1="26" x2="67" y1="248.9609" y2="248.9609"/><polygon fill="#181818" points="36,244.9609,26,248.9609,36,252.9609,32,248.9609" style="stroke:#181818;stroke-width:1.0;"/><text fill="#000000" font-family="sans-serif" font-size="13" lengthAdjust="spacing" textLength="51" x="32" y="230.895">TEXT "c"</text><line style="stroke:#181818;stroke-width:1.0;" x1="25" x2="67" y1="278.0938" y2="278.0938"/><line style="stroke:#181818;stroke-width:1.0;" x1="67" x2="67" y1="278.0938" y2="291.0938"/><line style="stroke:#181818;stroke-width:1.0;" x1="26" x2="67" y1="291.0938" y2="291.0938"/><polygon fill="#181818" points="36,287.0938,26,291.0938,36,295.0938,32,291.0938" style="stroke:#181818;stroke-width:1.0;"/><text fill="#000000" font-family="sans-serif" font-size="13" lengthAdjust="spacing" textLength="52" x="32" y="273.0278">TEXT "o"</text><line style="stroke:#181818;stroke-width:1.0;" x1="25" x2="67" y1="320.2266" y2="320.2266"/><line style="stroke:#181818;stroke-width:1.0;" x1="67" x2="67" y1="320.2266" y2="333.2266"/><line style="stroke:#181818;stroke-width:1.0;" x1="26" x2="67" y1="333.2266" y2="333.2266"/><polygon fill="#181818" points="36,329.2266,26,333.2266,36,337.2266,32,333.2266" style="stroke:#181818;stroke-width:1.0;"/><text fill="#000000" font-family="sans-serif" font-size="13" lengthAdjust="spacing" textLength="57" x="32" y="315.1606">TEXT "m"</text><polygon fill="#181818" points="145,358.3594,155,362.3594,145,366.3594,149,362.3594" style="stroke:#181818;stroke-width:1.0;"/><line style="stroke:#181818;stroke-width:1.0;" x1="25" x2="151" y1="362.3594" y2="362.3594"/><text fill="#000000" font-family="sans-serif" font-size="13" lengthAdjust="spacing" textLength="108" x="32" y="357.2935">OPEN_BRACE "{"</text><polygon fill="#181818" points="260,387.4922,270,391.4922,260,395.4922,264,391.4922" style="stroke:#181818;stroke-width:1.0;"/><line style="stroke:#181818;stroke-width:1.0;" x1="157" x2="266" y1="391.4922" y2="391.4922"/><text fill="#000000" font-family="sans-serif" font-size="13" lengthAdjust="spacing" textLength="91" x="164" y="386.4263">OPERATION "/"</text><polygon fill="#181818" points="343,416.625,353,420.625,343,424.625,347,420.625" style="stroke:#181818;stroke-width:1.0;"/><line style="stroke:#181818;stroke-width:1.0;" x1="272" x2="349" y1="420.625" y2="420.625"/><text fill="#000000" font-family="sans-serif" font-size="13" lengthAdjust="spacing" textLength="52" x="279" y="415.5591">TEXT "b"</text><line style="stroke:#181818;stroke-width:1.0;" x1="355" x2="397" y1="449.7578" y2="449.7578"/><line style="stroke:#181818;stroke-width:1.0;" x1="397" x2="397" y1="449.7578" y2="462.7578"/><line style="stroke:#181818;stroke-width:1.0;" x1="356" x2="397" y1="462.7578" y2="462.7578"/><polygon fill="#181818" points="366,458.7578,356,462.7578,366,466.7578,362,462.7578" style="stroke:#181818;stroke-width:1.0;"/><text fill="#000000" font-family="sans-serif" font-size="13" lengthAdjust="spacing" textLength="52" x="362" y="444.6919">TEXT "a"</text><line style="stroke:#181818;stroke-width:1.0;" x1="355" x2="397" y1="491.8906" y2="491.8906"/><line style="stroke:#181818;stroke-width:1.0;" x1="397" x2="397" y1="491.8906" y2="504.8906"/><line style="stroke:#181818;stroke-width:1.0;" x1="356" x2="397" y1="504.8906" y2="504.8906"/><polygon fill="#181818" points="366,500.8906,356,504.8906,366,508.8906,362,504.8906" style="stroke:#181818;stroke-width:1.0;"/><text fill="#000000" font-family="sans-serif" font-size="13" lengthAdjust="spacing" textLength="49" x="362" y="486.8247">TEXT "r"</text><line style="stroke:#181818;stroke-width:1.0;" x1="355" x2="397" y1="534.0234" y2="534.0234"/><line style="stroke:#181818;stroke-width:1.0;" x1="397" x2="397" y1="534.0234" y2="547.0234"/><line style="stroke:#181818;stroke-width:1.0;" x1="356" x2="397" y1="547.0234" y2="547.0234"/><polygon fill="#181818" points="366,543.0234,356,547.0234,366,551.0234,362,547.0234" style="stroke:#181818;stroke-width:1.0;"/><text fill="#000000" font-family="sans-serif" font-size="13" lengthAdjust="spacing" textLength="52" x="362" y="528.9575">SPLIT ","</text><line style="stroke:#181818;stroke-width:1.0;" x1="355" x2="397" y1="576.1563" y2="576.1563"/><line style="stroke:#181818;stroke-width:1.0;" x1="397" x2="397" y1="576.1563" y2="589.1563"/><line style="stroke:#181818;stroke-width:1.0;" x1="356" x2="397" y1="589.1563" y2="589.1563"/><polygon fill="#181818" points="366,585.1563,356,589.1563,366,593.1563,362,589.1563" style="stroke:#181818;stroke-width:1.0;"/><text fill="#000000" font-family="sans-serif" font-size="13" lengthAdjust="spacing" textLength="52" x="362" y="571.0903">TEXT "b"</text><line style="stroke:#181818;stroke-width:1.0;" x1="355" x2="397" y1="618.2891" y2="618.2891"/><line style="stroke:#181818;stroke-width:1.0;" x1="397" x2="397" y1="618.2891" y2="631.2891"/><line style="stroke:#181818;stroke-width:1.0;" x1="356" x2="397" y1="631.2891" y2="631.2891"/><polygon fill="#181818" points="366,627.2891,356,631.2891,366,635.2891,362,631.2891" style="stroke:#181818;stroke-width:1.0;"/><text fill="#000000" font-family="sans-serif" font-size="13" lengthAdjust="spacing" textLength="52" x="362" y="613.2231">TEXT "a"</text><line style="stroke:#181818;stroke-width:1.0;" x1="355" x2="397" y1="660.4219" y2="660.4219"/><line style="stroke:#181818;stroke-width:1.0;" x1="397" x2="397" y1="660.4219" y2="673.4219"/><line style="stroke:#181818;stroke-width:1.0;" x1="356" x2="397" y1="673.4219" y2="673.4219"/><polygon fill="#181818" points="366,669.4219,356,673.4219,366,677.4219,362,673.4219" style="stroke:#181818;stroke-width:1.0;"/><text fill="#000000" font-family="sans-serif" font-size="13" lengthAdjust="spacing" textLength="51" x="362" y="655.356">TEXT "z"</text><polygon fill="#181818" points="36,698.5547,26,702.5547,36,706.5547,32,702.5547" style="stroke:#181818;stroke-width:1.0;"/><line style="stroke:#181818;stroke-width:1.0;" x1="30" x2="354" y1="702.5547" y2="702.5547"/><text fill="#000000" font-family="sans-serif" font-size="13" lengthAdjust="spacing" textLength="115" x="42" y="697.4888">CLOSE_BRACE "}"</text><polygon fill="#181818" points="411,727.6875,421,731.6875,411,735.6875,415,731.6875" style="stroke:#181818;stroke-width:1.0;"/><line style="stroke:#181818;stroke-width:1.0;" x1="25" x2="417" y1="731.6875" y2="731.6875"/><text fill="#000000" font-family="sans-serif" font-size="13" lengthAdjust="spacing" textLength="73" x="32" y="726.6216">END_INPUT</text><!--SRC=[AqcjA57GjLCe0T5M2Y6k4I4AIcbAN2NOnFE95lSFS0ro3F7qzrDGqiEXAPb4It8HuaMf1Jc9oQcvgNbGk_pYdO8SdLqLbAgLk90bWMhp2rAB4aioy_DGNQMln8MG0IehIopAJ4pAIOLRbwJ41HV39fz8GBu8ftnmW8ydK84E0GCeTK0LgZmqB9rz_8DTOQ5LYmZIbFmya5PNFvTuJx-0q10k0000]--></g></svg>