<?xml version="1.0" encoding="UTF-8" standalone="no"?><svg xmlns="http://www.w3.org/2000/svg" xmlns:xlink="http://www.w3.org/1999/xlink" contentStyleType="text/css" height="779px" preserveAspectRatio="none" style="width:1089px;height:779px;background:#FFFFFF;" version="1.1" viewBox="0 0 1089 779" width="1089px" zoomAndPan="magnify"><defs/><g><text fill="#000000" font-family="sans-serif" font-size="14" font-weight="bold" lengthAdjust="spacing" textLength="103" x="437.7107" y="22.9951">URI Template</text><text fill="#000000" font-family="sans-serif" font-size="14" font-style="italic" font-weight="bold" lengthAdjust="spacing" textLength="35" x="545.7107" y="22.9951">mini</text><text fill="#000000" font-family="sans-serif" font-size="14" font-weight="bold" lengthAdjust="spacing" textLength="52" x="585.7107" y="22.9951">parser</text><g id="error"><rect fill="#F1F1F1" height="50.2656" rx="12.5" ry="12.5" style="stroke:#181818;stroke-width:0.5;" width="130" x="449" y="723.2969"/><line style="stroke:#181818;stroke-width:0.5;" x1="449" x2="579" y1="749.5938" y2="749.5938"/><text fill="#000000" font-family="sans-serif" font-size="14" lengthAdjust="spacing" textLength="33" x="497.5" y="741.292">error</text><text fill="#000000" font-family="sans-serif" font-size="12" lengthAdjust="spacing" textLength="110" x="454" y="765.7324">entry / throwError</text></g><g id="text"><rect fill="#F1F1F1" height="50.2656" rx="12.5" ry="12.5" style="stroke:#181818;stroke-width:0.5;" width="159" x="738.5" y="54.2969"/><line style="stroke:#181818;stroke-width:0.5;" x1="738.5" x2="897.5" y1="80.5938" y2="80.5938"/><text fill="#000000" font-family="sans-serif" font-size="14" lengthAdjust="spacing" textLength="26" x="805" y="72.292">text</text><text fill="#000000" font-family="sans-serif" font-size="12" lengthAdjust="spacing" textLength="139" x="743.5" y="96.7324">entry / setTextOpCode</text></g><g id="replacement"><rect fill="#F1F1F1" height="50.2656" rx="12.5" ry="12.5" style="stroke:#181818;stroke-width:0.5;" width="183" x="487.5" y="207.2969"/><line style="stroke:#181818;stroke-width:0.5;" x1="487.5" x2="670.5" y1="233.5938" y2="233.5938"/><text fill="#000000" font-family="sans-serif" font-size="14" lengthAdjust="spacing" textLength="87" x="535.5" y="225.292">replacement</text><text fill="#000000" font-family="sans-serif" font-size="12" lengthAdjust="spacing" textLength="163" x="492.5" y="249.7324">entry / setReplaceOpCode</text></g><g id="operation"><rect fill="#F1F1F1" height="50.2656" rx="12.5" ry="12.5" style="stroke:#181818;stroke-width:0.5;" width="235" x="461.5" y="367.2969"/><line style="stroke:#181818;stroke-width:0.5;" x1="461.5" x2="696.5" y1="393.5938" y2="393.5938"/><text fill="#000000" font-family="sans-serif" font-size="14" lengthAdjust="spacing" textLength="66" x="546" y="385.292">operation</text><text fill="#000000" font-family="sans-serif" font-size="12" lengthAdjust="spacing" textLength="215" x="466.5" y="409.7324">entry / setModifiedReplaceOpCode</text></g><ellipse cx="694" cy="79.2969" fill="#222222" rx="10" ry="10" style="stroke:none;stroke-width:1.0;"/><g id="done"><rect fill="#F1F1F1" height="50" rx="12.5" ry="12.5" style="stroke:#181818;stroke-width:0.5;" width="56" x="1019" y="287.2969"/><line style="stroke:#181818;stroke-width:0.5;" x1="1019" x2="1075" y1="313.5938" y2="313.5938"/><text fill="#000000" font-family="sans-serif" font-size="14" lengthAdjust="spacing" textLength="36" x="1029" y="305.292">done</text></g><ellipse cx="846" cy="748.2969" fill="none" rx="10" ry="10" style="stroke:#222222;stroke-width:1.0;"/><ellipse cx="846.5" cy="748.7969" fill="#222222" rx="6" ry="6" style="stroke:none;stroke-width:1.0;"/><g id="variable"><rect fill="#F1F1F1" height="50" rx="12.5" ry="12.5" style="stroke:#181818;stroke-width:0.5;" width="72" x="749" y="552.7969"/><line style="stroke:#181818;stroke-width:0.5;" x1="749" x2="821" y1="579.0938" y2="579.0938"/><text fill="#000000" font-family="sans-serif" font-size="14" lengthAdjust="spacing" textLength="52" x="759" y="570.792">variable</text></g><!--link *start to text--><g id="link_*start_text"><path d="M704.1719,79.2969 C713.8903,79.2969 723.6087,79.2969 733.3271,79.2969 " fill="none" id="*start-to-text" style="stroke:#181818;stroke-width:1.0;"/><polygon fill="#181818" points="738.4092,79.2969,729.4092,75.2969,733.4092,79.2969,729.4092,83.2969,738.4092,79.2969" style="stroke:#181818;stroke-width:1.0;"/></g><!--link text to text--><g id="link_text_text"><path d="M897.7291,64.133 C917.6273,65.1935 932.5,70.2481 932.5,79.2969 C932.5,87.5681 920.0737,92.5021 902.7415,94.0989 " fill="none" id="text-to-text" style="stroke:#181818;stroke-width:1.0;"/><polygon fill="#181818" points="897.7291,94.4608,906.9938,97.8021,902.7161,94.1006,906.4176,89.8229,897.7291,94.4608" style="stroke:#181818;stroke-width:1.0;"/><text fill="#000000" font-family="sans-serif" font-size="13" lengthAdjust="spacing" textLength="30" x="961.5" y="61.3638">TEXT</text><text fill="#000000" font-family="sans-serif" font-size="13" lengthAdjust="spacing" textLength="73" x="940" y="76.4966">OPERATION</text><text fill="#000000" font-family="sans-serif" font-size="13" lengthAdjust="spacing" textLength="34" x="959.5" y="91.6294">SPLIT</text><text fill="#000000" font-family="sans-serif" font-size="13" lengthAdjust="spacing" textLength="76" x="938.5" y="106.7622">do / append</text></g><!--link text to replacement--><g id="link_text_replacement"><path d="M778.8016,104.3904 C735.8243,131.9031 667.0558,175.9264 622.4585,204.4762 " fill="none" id="text-to-replacement" style="stroke:#181818;stroke-width:1.0;"/><polygon fill="#181818" points="618.2198,207.1897,627.9563,205.7059,622.4308,204.4938,623.6429,198.9684,618.2198,207.1897" style="stroke:#181818;stroke-width:1.0;"/><text fill="#000000" font-family="sans-serif" font-size="13" lengthAdjust="spacing" textLength="86" x="714" y="158.3638">OPEN_BRACE</text><text fill="#000000" font-family="sans-serif" font-size="13" lengthAdjust="spacing" textLength="58" x="728" y="173.4966">do / flush</text></g><!--link text to error--><g id="link_text_error"><path d="M755.9565,104.3386 C744.4591,108.4006 732.4606,112.263 721,115.2969 C565.3591,156.4988 6,71.2948 6,232.2969 C6,232.2969 6,232.2969 6,577.7969 C6,669.0138 304.0945,720.5306 443.5855,739.644 " fill="none" id="text-to-error" style="stroke:#181818;stroke-width:1.0;"/><polygon fill="#181818" points="448.8869,740.3653,440.5082,735.1886,443.9325,739.6913,439.4298,743.1156,448.8869,740.3653" style="stroke:#181818;stroke-width:1.0;"/><text fill="#000000" font-family="sans-serif" font-size="13" lengthAdjust="spacing" textLength="93" x="18" y="389.3638">CLOSE_BRACE</text><text fill="#000000" font-family="sans-serif" font-size="13" lengthAdjust="spacing" textLength="115" x="7" y="404.4966">do / setParseError</text></g><!--link text to done--><g id="link_text_done"><path d="M866.6203,104.338 C885.6599,115.432 906.9716,129.5462 924,145.2969 C968.9045,186.832 1008.3742,246.778 1029.8494,282.4125 " fill="none" id="text-to-done" style="stroke:#181818;stroke-width:1.0;"/><polygon fill="#181818" points="1032.632,287.0613,1031.4417,277.2846,1030.064,282.7711,1024.5775,281.3934,1032.632,287.0613" style="stroke:#181818;stroke-width:1.0;"/><text fill="#000000" font-family="sans-serif" font-size="13" lengthAdjust="spacing" textLength="73" x="954" y="158.3638">END_INPUT</text><text fill="#000000" font-family="sans-serif" font-size="13" lengthAdjust="spacing" textLength="58" x="961.5" y="173.4966">do / flush</text></g><!--link error to *end--><g id="link_error_*end"><path d="M579.168,748.2969 C663.0534,748.2969 746.9389,748.2969 830.8244,748.2969 " fill="none" id="error-to-*end" style="stroke:#181818;stroke-width:1.0;"/><polygon fill="#181818" points="835.8375,748.2969,826.8375,744.2969,830.8375,748.2969,826.8375,752.2969,835.8375,748.2969" style="stroke:#181818;stroke-width:1.0;"/></g><!--link done to *end--><g id="link_done_*end"><path d="M1052.7009,337.4966 C1063.6687,392.2047 1082.4213,524.3193 1032,616.2969 C992.9945,687.45 897.2532,729.2709 860.6007,743.1269 " fill="none" id="done-to-*end" style="stroke:#181818;stroke-width:1.0;"/><polygon fill="#181818" points="855.6354,744.9685,865.4647,745.5889,860.3233,743.2297,862.6826,738.0883,855.6354,744.9685" style="stroke:#181818;stroke-width:1.0;"/></g><!--link replacement to variable--><g id="link_replacement_variable"><path d="M667.6697,257.2971 C682.7761,264.8874 697.0857,274.6869 708,287.2969 C773.9593,363.504 784.2187,490.1076 785.2815,547.6619 " fill="none" id="replacement-to-variable" style="stroke:#181818;stroke-width:1.0;"/><polygon fill="#181818" points="785.3539,552.681,789.2236,543.6242,785.2818,547.6815,781.2245,543.7396,785.3539,552.681" style="stroke:#181818;stroke-width:1.0;"/><text fill="#000000" font-family="sans-serif" font-size="13" lengthAdjust="spacing" textLength="30" x="794" y="389.3638">TEXT</text><text fill="#000000" font-family="sans-serif" font-size="13" lengthAdjust="spacing" textLength="76" x="771" y="404.4966">do / append</text></g><!--link replacement to operation--><g id="link_replacement_operation"><path d="M579,257.6494 C579,285.9706 579,331.7947 579,361.9865 " fill="none" id="replacement-to-operation" style="stroke:#181818;stroke-width:1.0;"/><polygon fill="#181818" points="579,367.063,583,358.063,579,362.063,575,358.063,579,367.063" style="stroke:#181818;stroke-width:1.0;"/><text fill="#000000" font-family="sans-serif" font-size="13" lengthAdjust="spacing" textLength="73" x="603" y="309.3638">OPERATION</text><text fill="#000000" font-family="sans-serif" font-size="13" lengthAdjust="spacing" textLength="119" x="580" y="324.4966">do / assignModifier</text></g><!--link replacement to error--><g id="link_replacement_error"><path d="M487.2105,244.229 C420.5827,254.1156 337.0723,269.411 307,287.2969 C227.2789,334.7121 204.6834,360.12 173,447.2969 C130.4729,564.3101 204.2815,622.9439 307,693.2969 C347.3878,720.959 400.9788,734.7155 443.5126,741.5531 " fill="none" id="replacement-to-error" style="stroke:#181818;stroke-width:1.0;"/><polygon fill="#181818" points="448.6433,742.3531,440.3671,737.0141,443.703,741.5827,439.1345,744.9186,448.6433,742.3531" style="stroke:#181818;stroke-width:1.0;"/><text fill="#000000" font-family="sans-serif" font-size="13" lengthAdjust="spacing" textLength="34" x="214.5" y="460.3638">SPLIT</text><text fill="#000000" font-family="sans-serif" font-size="13" lengthAdjust="spacing" textLength="86" x="188.5" y="475.4966">OPEN_BRACE</text><text fill="#000000" font-family="sans-serif" font-size="13" lengthAdjust="spacing" textLength="93" x="185" y="490.6294">CLOSE_BRACE</text><text fill="#000000" font-family="sans-serif" font-size="13" lengthAdjust="spacing" textLength="115" x="174" y="505.7622">do / setParseError</text></g><!--link replacement to error--><g id="link_replacement_error"><path d="M535.1662,257.5386 C479.9369,292.1855 387.6891,360.2151 350,447.2969 C303.2541,555.3047 373.7484,601.9866 448,693.2969 C455.74,702.815 465.3193,711.8945 474.7572,719.8346 " fill="none" id="replacement-to-error-1" style="stroke:#181818;stroke-width:1.0;"/><polygon fill="#181818" points="478.7876,723.1658,474.3984,714.349,474.9335,719.9805,469.302,720.5156,478.7876,723.1658" style="stroke:#181818;stroke-width:1.0;"/><text fill="#000000" font-family="sans-serif" font-size="13" lengthAdjust="spacing" textLength="73" x="366.5" y="475.3638">END_INPUT</text><text fill="#000000" font-family="sans-serif" font-size="13" lengthAdjust="spacing" textLength="104" x="351" y="490.4966">do / setEOLError</text></g><!--link operation to variable--><g id="link_operation_variable"><path d="M602.7701,417.4753 C610.8571,426.5625 619.6914,437.0984 627,447.2969 C645.5608,473.1968 639.8506,487.4014 663,509.2969 C684.372,529.5112 696.3186,524.9494 722,539.2969 C729.3209,543.3869 737.0144,547.9008 744.412,552.3548 " fill="none" id="operation-to-variable" style="stroke:#181818;stroke-width:1.0;"/><polygon fill="#181818" points="748.9738,555.1161,743.3457,547.0337,744.6964,552.5269,739.2031,553.8776,748.9738,555.1161" style="stroke:#181818;stroke-width:1.0;"/><text fill="#000000" font-family="sans-serif" font-size="13" lengthAdjust="spacing" textLength="30" x="687" y="475.3638">TEXT</text><text fill="#000000" font-family="sans-serif" font-size="13" lengthAdjust="spacing" textLength="76" x="664" y="490.4966">do / append</text></g><!--link operation to error--><g id="link_operation_error"><path d="M545.4643,417.4928 C513.4851,443.8201 467.4089,488.3446 448,539.2969 C424.0186,602.2528 464.7764,678.0945 492.1969,718.8862 " fill="none" id="operation-to-error" style="stroke:#181818;stroke-width:1.0;"/><polygon fill="#181818" points="495.1374,723.2033,493.3768,713.5131,492.3227,719.0708,486.7649,718.0166,495.1374,723.2033" style="stroke:#181818;stroke-width:1.0;"/><text fill="#000000" font-family="sans-serif" font-size="13" lengthAdjust="spacing" textLength="73" x="470" y="552.3638">OPERATION</text><text fill="#000000" font-family="sans-serif" font-size="13" lengthAdjust="spacing" textLength="34" x="489.5" y="567.4966">SPLIT</text><text fill="#000000" font-family="sans-serif" font-size="13" lengthAdjust="spacing" textLength="86" x="463.5" y="582.6294">OPEN_BRACE</text><text fill="#000000" font-family="sans-serif" font-size="13" lengthAdjust="spacing" textLength="93" x="460" y="597.7622">CLOSE_BRACE</text><text fill="#000000" font-family="sans-serif" font-size="13" lengthAdjust="spacing" textLength="115" x="449" y="612.895">do / setParseError</text></g><!--link operation to error--><g id="link_operation_error"><path d="M580.7054,417.5315 C582.9086,459.404 584.78,545.632 569,616.2969 C560.8502,652.7928 543.2503,692.0389 530.1422,718.1644 " fill="none" id="operation-to-error-1" style="stroke:#181818;stroke-width:1.0;"/><polygon fill="#181818" points="527.7502,722.8863,535.3856,716.6653,530.0097,718.4259,528.2491,713.0501,527.7502,722.8863" style="stroke:#181818;stroke-width:1.0;"/><text fill="#000000" font-family="sans-serif" font-size="13" lengthAdjust="spacing" textLength="73" x="596.5" y="574.8638">END_INPUT</text><text fill="#000000" font-family="sans-serif" font-size="13" lengthAdjust="spacing" textLength="104" x="581" y="589.9966">do / setEOLError</text></g><!--link variable to variable--><g id="link_variable_variable"><path d="M821.1663,569.4504 C839.532,568.2315 856,571.0137 856,577.7969 C856,583.9442 842.475,586.8055 826.2696,586.3807 " fill="none" id="variable-to-variable" style="stroke:#181818;stroke-width:1.0;"/><polygon fill="#181818" points="821.1663,586.1434,829.9708,590.5572,826.1609,586.3757,830.3424,582.5658,821.1663,586.1434" style="stroke:#181818;stroke-width:1.0;"/><text fill="#000000" font-family="sans-serif" font-size="13" lengthAdjust="spacing" textLength="30" x="885" y="574.8638">TEXT</text><text fill="#000000" font-family="sans-serif" font-size="13" lengthAdjust="spacing" textLength="76" x="862" y="589.9966">do / append</text></g><!--link variable to variable--><g id="link_variable_variable"><path d="M821.2903,565.4872 C871.1385,556.0394 944,560.1426 944,577.7969 C944,594.865 875.8967,599.267 826.3282,591.0029 " fill="none" id="variable-to-variable-1" style="stroke:#181818;stroke-width:1.0;"/><polygon fill="#181818" points="821.2903,590.1066,829.4505,595.6213,826.213,590.9824,830.8518,587.745,821.2903,590.1066" style="stroke:#181818;stroke-width:1.0;"/><text fill="#000000" font-family="sans-serif" font-size="13" lengthAdjust="spacing" textLength="34" x="962" y="574.8638">SPLIT</text><text fill="#000000" font-family="sans-serif" font-size="13" lengthAdjust="spacing" textLength="58" x="950" y="589.9966">do / flush</text></g><!--link variable to error--><g id="link_variable_error"><path d="M748.9738,600.4777 C740.224,605.8011 730.8403,611.3581 722,616.2969 C696.3186,630.6444 685.6171,627.486 663,646.2969 C642.7701,663.1224 647.3758,676.6484 627,693.2969 C613.985,703.9311 598.5712,713.1454 583.3806,720.8315 " fill="none" id="variable-to-error" style="stroke:#181818;stroke-width:1.0;"/><polygon fill="#181818" points="578.6764,723.1677,588.5163,722.7471,583.1546,720.9437,584.958,715.582,578.6764,723.1677" style="stroke:#181818;stroke-width:1.0;"/><text fill="#000000" font-family="sans-serif" font-size="13" lengthAdjust="spacing" textLength="73" x="685" y="659.3638">OPERATION</text><text fill="#000000" font-family="sans-serif" font-size="13" lengthAdjust="spacing" textLength="86" x="678.5" y="674.4966">OPEN_BRACE</text><text fill="#000000" font-family="sans-serif" font-size="13" lengthAdjust="spacing" textLength="115" x="664" y="689.6294">do / setParseError</text></g><!--link variable to error--><g id="link_variable_error"><path d="M793.0509,602.938 C799.5723,628.634 804.6595,668.227 784,693.2969 C759.081,723.5357 655.4913,737.596 584.1202,743.801 " fill="none" id="variable-to-error-1" style="stroke:#181818;stroke-width:1.0;"/><polygon fill="#181818" points="579.0387,744.2343,588.3461,747.4548,584.0206,743.8093,587.6661,739.4838,579.0387,744.2343" style="stroke:#181818;stroke-width:1.0;"/><text fill="#000000" font-family="sans-serif" font-size="13" lengthAdjust="spacing" textLength="73" x="815.5" y="666.8638">END_INPUT</text><text fill="#000000" font-family="sans-serif" font-size="13" lengthAdjust="spacing" textLength="104" x="800" y="681.9966">do / setEOLError</text></g><!--link variable to text--><g id="link_variable_text"><path d="M800.0288,552.7853 C817.4955,522.1237 845.2912,467.9755 856,417.2969 C879.6894,305.1884 845.6335,168.8372 827.7621,109.4062 " fill="none" id="variable-to-text" style="stroke:#181818;stroke-width:1.0;"/><polygon fill="#181818" points="826.2949,104.5785,825.0849,114.3527,827.7489,109.3624,832.7392,112.0264,826.2949,104.5785" style="stroke:#181818;stroke-width:1.0;"/><text fill="#000000" font-family="sans-serif" font-size="13" lengthAdjust="spacing" textLength="93" x="866" y="309.3638">CLOSE_BRACE</text><text fill="#000000" font-family="sans-serif" font-size="13" lengthAdjust="spacing" textLength="58" x="883.5" y="324.4966">do / flush</text></g><!--SRC=[dPDTRuCW68Nl-HLSBscytyMIpd5XujHOconPbyQDjok90a7szU-70ojKLxFTAJpdSDuZQgORmDiomHMqigaru2Xg6MTHX6MjEb08WL92uMiCNAil765zLEA3z8j8mwVsTZhGbLd9PIme80N6y0LQiniofTrmc92WQiq43w5xGTc10GrXz7ZrX5Stk3_OdhvoRqPTaOTgn_E2bEigoRCTtnHfObQeC9QrbC3fg0dJ6L6slotNCN7ueNdhZYCzT12d-OO4e8bQz4LvXVG2AZWOdcHt-oGhjbLWQzqCPQP1FwHxzaFrBk-rOlLp0wVX_57EORz8hmGhwJhsobsdQY8TndE5-MqiJVoRrVdaHaNor6h6f8j3XkXWFlt6Vuayxtafy2dYOjw0d8axkMXXj5dvVvBvLzzUke1qVyoqASj-0m00]--></g></svg>