<?xml version="1.0" encoding="UTF-8" standalone="no"?><svg xmlns="http://www.w3.org/2000/svg" xmlns:xlink="http://www.w3.org/1999/xlink" contentScriptType="application/ecmascript" contentStyleType="text/css" height="775px" preserveAspectRatio="none" style="width:1096px;height:775px;" version="1.1" viewBox="0 0 1096 775" width="1096px" zoomAndPan="magnify"><defs><filter height="300%" id="fevflfshhq0zs" width="300%" x="-1" y="-1"><feGaussianBlur result="blurOut" stdDeviation="2.0"/><feColorMatrix in="blurOut" result="blurOut2" type="matrix" values="0 0 0 0 0 0 0 0 0 0 0 0 0 0 0 0 0 0 .4 0"/><feOffset dx="4.0" dy="4.0" in="blurOut2" result="blurOut3"/><feBlend in="SourceGraphic" in2="blurOut3" mode="normal"/></filter></defs><g><text fill="#000000" font-family="sans-serif" font-size="18" lengthAdjust="spacingAndGlyphs" textLength="115" x="435" y="17.4023">URI Template</text><text fill="#000000" font-family="sans-serif" font-size="18" font-style="italic" lengthAdjust="spacingAndGlyphs" textLength="38" x="556" y="17.4023">mini</text><text fill="#000000" font-family="sans-serif" font-size="18" lengthAdjust="spacingAndGlyphs" textLength="54" x="600" y="17.4023">parser</text><rect fill="#FEFECE" filter="url(#fevflfshhq0zs)" height="50.6211" rx="12.5" ry="12.5" style="stroke: #A80036; stroke-width: 1.5;" width="124" x="447" y="714.1992"/><line style="stroke: #A80036; stroke-width: 1.5;" x1="447" x2="571" y1="740.6875" y2="740.6875"/><text fill="#000000" font-family="sans-serif" font-size="14" lengthAdjust="spacingAndGlyphs" textLength="35" x="491.5" y="732.7344">error</text><text fill="#000000" font-family="sans-serif" font-size="12" lengthAdjust="spacingAndGlyphs" textLength="104" x="452" y="757.2891">entry / throwError</text><rect fill="#FEFECE" filter="url(#fevflfshhq0zs)" height="50.6211" rx="12.5" ry="12.5" style="stroke: #A80036; stroke-width: 1.5;" width="153" x="738.5" y="40.1992"/><line style="stroke: #A80036; stroke-width: 1.5;" x1="738.5" x2="891.5" y1="66.6875" y2="66.6875"/><text fill="#000000" font-family="sans-serif" font-size="14" lengthAdjust="spacingAndGlyphs" textLength="27" x="801.5" y="58.7344">text</text><text fill="#000000" font-family="sans-serif" font-size="12" lengthAdjust="spacingAndGlyphs" textLength="133" x="743.5" y="83.2891">entry / setTextOpCode</text><rect fill="#FEFECE" filter="url(#fevflfshhq0zs)" height="50.6211" rx="12.5" ry="12.5" style="stroke: #A80036; stroke-width: 1.5;" width="173" x="493.5" y="194.1992"/><line style="stroke: #A80036; stroke-width: 1.5;" x1="493.5" x2="666.5" y1="220.6875" y2="220.6875"/><text fill="#000000" font-family="sans-serif" font-size="14" lengthAdjust="spacingAndGlyphs" textLength="85" x="537.5" y="212.7344">replacement</text><text fill="#000000" font-family="sans-serif" font-size="12" lengthAdjust="spacingAndGlyphs" textLength="153" x="498.5" y="237.2891">entry / setReplaceOpCode</text><rect fill="#FEFECE" filter="url(#fevflfshhq0zs)" height="50.6211" rx="12.5" ry="12.5" style="stroke: #A80036; stroke-width: 1.5;" width="223" x="468.5" y="355.1992"/><line style="stroke: #A80036; stroke-width: 1.5;" x1="468.5" x2="691.5" y1="381.6875" y2="381.6875"/><text fill="#000000" font-family="sans-serif" font-size="14" lengthAdjust="spacingAndGlyphs" textLength="67" x="546.5" y="373.7344">operation</text><text fill="#000000" font-family="sans-serif" font-size="12" lengthAdjust="spacingAndGlyphs" textLength="203" x="473.5" y="398.2891">entry / setModifiedReplaceOpCode</text><ellipse cx="693" cy="65.6992" fill="#000000" filter="url(#fevflfshhq0zs)" rx="10" ry="10" style="stroke: none; stroke-width: 1.0;"/><rect fill="#FEFECE" filter="url(#fevflfshhq0zs)" height="50" rx="12.5" ry="12.5" style="stroke: #A80036; stroke-width: 1.5;" width="55" x="1015.5" y="275.1992"/><line style="stroke: #A80036; stroke-width: 1.5;" x1="1015.5" x2="1070.5" y1="301.6875" y2="301.6875"/><text fill="#000000" font-family="sans-serif" font-size="14" lengthAdjust="spacingAndGlyphs" textLength="35" x="1025.5" y="293.7344">done</text><ellipse cx="843" cy="739.6992" fill="none" filter="url(#fevflfshhq0zs)" rx="10" ry="10" style="stroke: #000000; stroke-width: 1.0;"/><ellipse cx="843.5" cy="740.1992" fill="#000000" rx="6" ry="6" style="stroke: none; stroke-width: 1.0;"/><rect fill="#FEFECE" filter="url(#fevflfshhq0zs)" height="50" rx="12.5" ry="12.5" style="stroke: #A80036; stroke-width: 1.5;" width="74" x="743" y="543.1992"/><line style="stroke: #A80036; stroke-width: 1.5;" x1="743" x2="817" y1="569.6875" y2="569.6875"/><text fill="#000000" font-family="sans-serif" font-size="14" lengthAdjust="spacingAndGlyphs" textLength="54" x="753" y="561.7344">variable</text><!--MD5=[8c8451122e1dc1e4164d2b480ee49dba]
link *start to text--><path d="M703.01,65.6992 C713.07,65.6992 723.12,65.6992 733.18,65.6992 " fill="none" id="*start-&gt;text" style="stroke: #A80036; stroke-width: 1.0;"/><polygon fill="#A80036" points="738.44,65.6992,729.44,61.6992,733.44,65.6992,729.44,69.6992,738.44,65.6992" style="stroke: #A80036; stroke-width: 1.0;"/><!--MD5=[3e6bf1d6b0f976fdb40ced3787770ff8]
link text to text--><path d="M891.61,50.4792 C911.5,51.4192 926.5,56.4892 926.5,65.6992 C926.5,74.1192 913.97,79.0792 896.62,80.5792 " fill="none" id="text-&gt;text" style="stroke: #A80036; stroke-width: 1.0;"/><polygon fill="#A80036" points="891.61,80.9192,900.8536,84.3187,896.5992,80.5904,900.3275,76.336,891.61,80.9192" style="stroke: #A80036; stroke-width: 1.0;"/><text fill="#000000" font-family="sans-serif" font-size="13" lengthAdjust="spacingAndGlyphs" textLength="31" x="955.5" y="47.7676">TEXT</text><text fill="#000000" font-family="sans-serif" font-size="13" lengthAdjust="spacingAndGlyphs" textLength="73" x="934.5" y="63.0781">OPERATION</text><text fill="#000000" font-family="sans-serif" font-size="13" lengthAdjust="spacingAndGlyphs" textLength="33" x="954.5" y="78.3887">SPLIT</text><text fill="#000000" font-family="sans-serif" font-size="13" lengthAdjust="spacingAndGlyphs" textLength="77" x="932.5" y="93.6992">do / append</text><!--MD5=[78f2c34daae1b2a70076e3ff22bbf283]
link text to replacement--><path d="M776.98,91.2892 C734.66,118.6692 666.43,162.7892 622.41,191.2692 " fill="none" id="text-&gt;replacement" style="stroke: #A80036; stroke-width: 1.0;"/><polygon fill="#A80036" points="617.96,194.1392,627.69,192.6137,622.1594,191.4253,623.3478,185.8947,617.96,194.1392" style="stroke: #A80036; stroke-width: 1.0;"/><text fill="#000000" font-family="sans-serif" font-size="13" lengthAdjust="spacingAndGlyphs" textLength="81" x="713" y="145.7676">OPEN_BRACE</text><text fill="#000000" font-family="sans-serif" font-size="13" lengthAdjust="spacingAndGlyphs" textLength="63" x="722" y="161.0781">do / flush</text><!--MD5=[47b32d4cd45b03aade7fc22fe8d49eb3]
link text to error--><path d="M754.76,91.2192 C743.34,95.2992 731.4,99.1692 720,102.1992 C564.63,143.4792 6,57.9392 6,218.6992 C6,218.6992 6,218.6992 6,569.1992 C6,660.0692 304.51,711.5192 441.61,730.3692 " fill="none" id="text-&gt;error" style="stroke: #A80036; stroke-width: 1.0;"/><polygon fill="#A80036" points="446.82,731.0792,438.4403,725.9042,441.8655,730.4062,437.3635,733.8314,446.82,731.0792" style="stroke: #A80036; stroke-width: 1.0;"/><text fill="#000000" font-family="sans-serif" font-size="13" lengthAdjust="spacingAndGlyphs" textLength="87" x="20" y="378.2676">CLOSE_BRACE</text><text fill="#000000" font-family="sans-serif" font-size="13" lengthAdjust="spacingAndGlyphs" textLength="113" x="7" y="393.5781">do / setParseError</text><!--MD5=[391285f80b999a2b04c79a86ec1a25be]
link text to done--><path d="M862.63,91.2592 C881.62,102.3192 902.97,116.4392 920,132.1992 C965.39,174.2192 1005.25,235.0492 1026.56,270.5192 " fill="none" id="text-&gt;done" style="stroke: #A80036; stroke-width: 1.0;"/><polygon fill="#A80036" points="1029.32,275.1392,1028.1578,265.3592,1026.7643,270.8417,1021.2818,269.4482,1029.32,275.1392" style="stroke: #A80036; stroke-width: 1.0;"/><text fill="#000000" font-family="sans-serif" font-size="13" lengthAdjust="spacingAndGlyphs" textLength="72" x="950" y="145.7676">END_INPUT</text><text fill="#000000" font-family="sans-serif" font-size="13" lengthAdjust="spacingAndGlyphs" textLength="63" x="954.5" y="161.0781">do / flush</text><!--MD5=[68785ad7221959f2878ebc71627aad27]
link error to *end--><path d="M571.3,739.6992 C656.8,739.6992 742.3,739.6992 827.81,739.6992 " fill="none" id="error-&gt;*end" style="stroke: #A80036; stroke-width: 1.0;"/><polygon fill="#A80036" points="832.92,739.6992,823.92,735.6992,827.92,739.6992,823.92,743.6992,832.92,739.6992" style="stroke: #A80036; stroke-width: 1.0;"/><!--MD5=[52e9c6b95e7dedd460484c394f36caac]
link done to *end--><path d="M1049.19,325.3192 C1061.73,379.5892 1084.83,513.8492 1034,607.1992 C994.36,679.9892 894.95,720.7492 857.54,733.9192 " fill="none" id="done-&gt;*end" style="stroke: #A80036; stroke-width: 1.0;"/><polygon fill="#A80036" points="852.49,735.6692,862.302,736.5204,857.2175,734.041,859.6969,728.9565,852.49,735.6692" style="stroke: #A80036; stroke-width: 1.0;"/><!--MD5=[3e6070c132a37fbd5dfc7e3e9a8e1986]
link replacement to variable--><path d="M666.58,241.7392 C684.39,249.6492 701.49,260.4492 714,275.1992 C779.3,352.1892 783.5,480.4492 781.73,537.8492 " fill="none" id="replacement-&gt;variable" style="stroke: #A80036; stroke-width: 1.0;"/><polygon fill="#A80036" points="781.54,543.1792,785.846,534.3216,781.7113,538.1822,777.8507,534.0474,781.54,543.1792" style="stroke: #A80036; stroke-width: 1.0;"/><text fill="#000000" font-family="sans-serif" font-size="13" lengthAdjust="spacingAndGlyphs" textLength="31" x="796" y="378.2676">TEXT</text><text fill="#000000" font-family="sans-serif" font-size="13" lengthAdjust="spacingAndGlyphs" textLength="77" x="773" y="393.5781">do / append</text><!--MD5=[7ee791d14947a167742965a1e247d04c]
link replacement to operation--><path d="M580,245.5392 C580,273.7792 580,319.8492 580,349.9692 " fill="none" id="replacement-&gt;operation" style="stroke: #A80036; stroke-width: 1.0;"/><polygon fill="#A80036" points="580,355.0292,584,346.0292,580,350.0292,576,346.0292,580,355.0292" style="stroke: #A80036; stroke-width: 1.0;"/><text fill="#000000" font-family="sans-serif" font-size="13" lengthAdjust="spacingAndGlyphs" textLength="73" x="606.5" y="297.7676">OPERATION</text><text fill="#000000" font-family="sans-serif" font-size="13" lengthAdjust="spacingAndGlyphs" textLength="124" x="581" y="313.0781">do / assignModifier</text><!--MD5=[728a3aeb7d35e88e0845aa10daadf64d]
link replacement to error--><path d="M493.44,222.7292 C435.9,227.5392 360.62,240.7292 303,275.1992 C223.6,322.7092 202.15,349.0692 171,436.1992 C128.96,553.7692 200.29,613.1992 303,684.1992 C343.94,712.4992 398.74,726.1092 441.53,732.6492 " fill="none" id="replacement-&gt;error" style="stroke: #A80036; stroke-width: 1.0;"/><polygon fill="#A80036" points="446.68,733.4092,438.3595,728.1396,441.7334,732.6801,437.1929,736.0541,446.68,733.4092" style="stroke: #A80036; stroke-width: 1.0;"/><text fill="#000000" font-family="sans-serif" font-size="13" lengthAdjust="spacingAndGlyphs" textLength="33" x="212" y="449.7676">SPLIT</text><text fill="#000000" font-family="sans-serif" font-size="13" lengthAdjust="spacingAndGlyphs" textLength="81" x="188" y="465.0781">OPEN_BRACE</text><text fill="#000000" font-family="sans-serif" font-size="13" lengthAdjust="spacingAndGlyphs" textLength="87" x="185" y="480.3887">CLOSE_BRACE</text><text fill="#000000" font-family="sans-serif" font-size="13" lengthAdjust="spacingAndGlyphs" textLength="113" x="172" y="495.6992">do / setParseError</text><!--MD5=[728a3aeb7d35e88e0845aa10daadf64d]
link replacement to error--><path d="M536.38,245.2392 C480.33,279.5892 385.63,347.8492 347,436.1992 C299.65,544.4892 368.72,592.2692 443,684.1992 C450.76,693.8092 460.44,702.9192 469.98,710.8492 " fill="none" id="replacement-&gt;error-1" style="stroke: #A80036; stroke-width: 1.0;"/><polygon fill="#A80036" points="474.05,714.1692,469.6032,705.3814,470.1751,711.0093,464.5473,711.5812,474.05,714.1692" style="stroke: #A80036; stroke-width: 1.0;"/><text fill="#000000" font-family="sans-serif" font-size="13" lengthAdjust="spacingAndGlyphs" textLength="72" x="364" y="465.2676">END_INPUT</text><text fill="#000000" font-family="sans-serif" font-size="13" lengthAdjust="spacingAndGlyphs" textLength="104" x="348" y="480.5781">do / setEOLError</text><!--MD5=[3ebbd61a053c5bee8f439926b136a3a9]
link operation to variable--><path d="M599.66,406.4592 C606.66,415.6192 614.43,426.2092 621,436.1992 C638.73,463.1392 633.65,476.9592 657,499.1992 C678.3,519.4892 690.23,515.0192 716,529.1992 C723.22,533.1692 730.81,537.5192 738.15,541.8192 " fill="none" id="operation-&gt;variable" style="stroke: #A80036; stroke-width: 1.0;"/><polygon fill="#A80036" points="742.67,544.4792,736.9279,536.4774,738.3563,541.951,732.8827,543.3794,742.67,544.4792" style="stroke: #A80036; stroke-width: 1.0;"/><text fill="#000000" font-family="sans-serif" font-size="13" lengthAdjust="spacingAndGlyphs" textLength="31" x="681" y="465.2676">TEXT</text><text fill="#000000" font-family="sans-serif" font-size="13" lengthAdjust="spacingAndGlyphs" textLength="77" x="658" y="480.5781">do / append</text><!--MD5=[e07311a1a69664e3b73e6ba232255aee]
link operation to error--><path d="M545.83,406.2292 C512.63,432.3692 464.34,477.1292 444,529.1992 C419.33,592.3392 460.4,668.9692 487.71,709.7992 " fill="none" id="operation-&gt;error" style="stroke: #A80036; stroke-width: 1.0;"/><polygon fill="#A80036" points="490.64,714.1192,488.9144,704.4227,487.8402,709.9766,482.2863,708.9024,490.64,714.1192" style="stroke: #A80036; stroke-width: 1.0;"/><text fill="#000000" font-family="sans-serif" font-size="13" lengthAdjust="spacingAndGlyphs" textLength="73" x="465" y="542.7676">OPERATION</text><text fill="#000000" font-family="sans-serif" font-size="13" lengthAdjust="spacingAndGlyphs" textLength="33" x="485" y="558.0781">SPLIT</text><text fill="#000000" font-family="sans-serif" font-size="13" lengthAdjust="spacingAndGlyphs" textLength="81" x="461" y="573.3887">OPEN_BRACE</text><text fill="#000000" font-family="sans-serif" font-size="13" lengthAdjust="spacingAndGlyphs" textLength="87" x="458" y="588.6992">CLOSE_BRACE</text><text fill="#000000" font-family="sans-serif" font-size="13" lengthAdjust="spacingAndGlyphs" textLength="113" x="445" y="604.0098">do / setParseError</text><!--MD5=[e07311a1a69664e3b73e6ba232255aee]
link operation to error--><path d="M580.65,406.4392 C581.19,448.3592 579.91,535.7592 563,607.1992 C554.38,643.5992 537.04,682.9892 524.33,709.0792 " fill="none" id="operation-&gt;error-1" style="stroke: #A80036; stroke-width: 1.0;"/><polygon fill="#A80036" points="522.01,713.7892,529.5564,707.4606,524.2061,709.2973,522.3694,703.9469,522.01,713.7892" style="stroke: #A80036; stroke-width: 1.0;"/><text fill="#000000" font-family="sans-serif" font-size="13" lengthAdjust="spacingAndGlyphs" textLength="72" x="593" y="565.7676">END_INPUT</text><text fill="#000000" font-family="sans-serif" font-size="13" lengthAdjust="spacingAndGlyphs" textLength="104" x="577" y="581.0781">do / setEOLError</text><!--MD5=[03a333b6ee1732611b897d113a5f0962]
link variable to variable--><path d="M817.05,559.8292 C835.52,558.6692 852,561.4592 852,568.1992 C852,574.3092 838.47,577.1692 822.18,576.7892 " fill="none" id="variable-&gt;variable" style="stroke: #A80036; stroke-width: 1.0;"/><polygon fill="#A80036" points="817.05,576.5692,825.8699,580.952,822.0454,576.7839,826.2135,572.9594,817.05,576.5692" style="stroke: #A80036; stroke-width: 1.0;"/><text fill="#000000" font-family="sans-serif" font-size="13" lengthAdjust="spacingAndGlyphs" textLength="31" x="881" y="565.7676">TEXT</text><text fill="#000000" font-family="sans-serif" font-size="13" lengthAdjust="spacingAndGlyphs" textLength="77" x="858" y="581.0781">do / append</text><!--MD5=[03a333b6ee1732611b897d113a5f0962]
link variable to variable--><path d="M817.09,555.8192 C867.53,546.4592 941,550.5892 941,568.1992 C941,585.2192 872.33,589.6492 822.18,581.4692 " fill="none" id="variable-&gt;variable-1" style="stroke: #A80036; stroke-width: 1.0;"/><polygon fill="#A80036" points="817.09,580.5792,825.2715,586.0621,822.0161,581.4359,826.6423,578.1804,817.09,580.5792" style="stroke: #A80036; stroke-width: 1.0;"/><text fill="#000000" font-family="sans-serif" font-size="13" lengthAdjust="spacingAndGlyphs" textLength="33" x="962" y="565.7676">SPLIT</text><text fill="#000000" font-family="sans-serif" font-size="13" lengthAdjust="spacingAndGlyphs" textLength="63" x="947" y="581.0781">do / flush</text><!--MD5=[bcfe34dd11407362d122bba9141c863e]
link variable to error--><path d="M742.67,591.9192 C733.98,597.0492 724.72,602.3992 716,607.1992 C690.23,621.3792 679.62,618.3892 657,637.1992 C636.77,654.0292 641.38,667.5492 621,684.1992 C607.57,695.1692 591.56,704.6192 575.91,712.4192 " fill="none" id="variable-&gt;error" style="stroke: #A80036; stroke-width: 1.0;"/><polygon fill="#A80036" points="571.07,714.7892,580.9118,714.4175,575.5592,712.5875,577.3891,707.2348,571.07,714.7892" style="stroke: #A80036; stroke-width: 1.0;"/><text fill="#000000" font-family="sans-serif" font-size="13" lengthAdjust="spacingAndGlyphs" textLength="73" x="678" y="650.7676">OPERATION</text><text fill="#000000" font-family="sans-serif" font-size="13" lengthAdjust="spacingAndGlyphs" textLength="81" x="674" y="666.0781">OPEN_BRACE</text><text fill="#000000" font-family="sans-serif" font-size="13" lengthAdjust="spacingAndGlyphs" textLength="113" x="658" y="681.3887">do / setParseError</text><!--MD5=[bcfe34dd11407362d122bba9141c863e]
link variable to error--><path d="M787.02,593.3892 C792.85,619.0292 797.16,659.1892 776,684.1992 C750.75,714.0492 646.81,728.0692 576.31,734.2592 " fill="none" id="variable-&gt;error-1" style="stroke: #A80036; stroke-width: 1.0;"/><polygon fill="#A80036" points="571.29,734.6992,580.5995,737.9137,576.2716,734.271,579.9144,729.9431,571.29,734.6992" style="stroke: #A80036; stroke-width: 1.0;"/><text fill="#000000" font-family="sans-serif" font-size="13" lengthAdjust="spacingAndGlyphs" textLength="72" x="809" y="658.2676">END_INPUT</text><text fill="#000000" font-family="sans-serif" font-size="13" lengthAdjust="spacingAndGlyphs" textLength="104" x="793" y="673.5781">do / setEOLError</text><!--MD5=[b8f3d5339f2707a9bc7c5e43c095d33c]
link variable to text--><path d="M796.19,543.1592 C815.57,512.7892 846.93,458.2092 859,406.1992 C885.21,293.2992 845.95,155.3892 825.76,96.0992 " fill="none" id="variable-&gt;text" style="stroke: #A80036; stroke-width: 1.0;"/><polygon fill="#A80036" points="824.11,91.2792,823.2588,101.0912,825.7382,96.0067,830.8227,98.4861,824.11,91.2792" style="stroke: #A80036; stroke-width: 1.0;"/><text fill="#000000" font-family="sans-serif" font-size="13" lengthAdjust="spacingAndGlyphs" textLength="87" x="869" y="297.7676">CLOSE_BRACE</text><text fill="#000000" font-family="sans-serif" font-size="13" lengthAdjust="spacingAndGlyphs" textLength="63" x="881" y="313.0781">do / flush</text><!--MD5=[9f74eed935bbf45911c65483d79b9c4a]
@startuml

title URI Template //mini// parser

error : entry / throwError
text : entry / setTextOpCode
replacement : entry / setReplaceOpCode
operation : entry / setModifiedReplaceOpCode

[*] -> text
text - -> text : TEXT\nOPERATION\nSPLIT\ndo / append
text - -> replacement : OPEN_BRACE\ndo / flush
text - -> error : CLOSE_BRACE\ndo / setParseError
text - -> done : END_INPUT\ndo / flush
error -> [*]
done -> [*]
replacement - -> variable : TEXT\ndo / append
replacement - -> operation : OPERATION\ndo / assignModifier
replacement - -> error : SPLIT\nOPEN_BRACE\nCLOSE_BRACE\ndo / setParseError
replacement - -> error : END_INPUT\ndo / setEOLError
operation - -> variable : TEXT\ndo / append
operation - -> error : OPERATION\nSPLIT\nOPEN_BRACE\nCLOSE_BRACE\ndo / setParseError
operation - -> error : END_INPUT\ndo / setEOLError
variable - -> variable : TEXT\ndo / append
variable - -> error : OPERATION\nOPEN_BRACE\ndo / setParseError
variable - -> error : END_INPUT\ndo / setEOLError
variable - -> variable : SPLIT\ndo / flush
variable - -> text : CLOSE_BRACE\ndo / flush

@enduml

PlantUML version 1.2020.05(Thu Mar 19 17:17:32 EDT 2020)
(GPL source distribution)
Java Runtime: OpenJDK Runtime Environment
JVM: OpenJDK 64-Bit Server VM
Java Version: 13.0.2+8
Operating System: Mac OS X
Default Encoding: UTF-8
Language: en
Country: US
--></g></svg>