<?xml version="1.0" encoding="utf-8"?>
<!-- Generator: Adobe Illustrator 24.0.0, SVG Export Plug-In . SVG Version: 6.00 Build 0)  -->
<svg version="1.1" id="Layer_1" xmlns="http://www.w3.org/2000/svg" xmlns:xlink="http://www.w3.org/1999/xlink" x="0px" y="0px"
	 viewBox="0 0 4320 2592" style="enable-background:new 0 0 4320 2592;" xml:space="preserve">
<style type="text/css">
	.st0{fill:#FDFDFE;}
	.st1{fill:#FFFFFF;}
	.st2{fill:#C52D6A;}
	.st3{fill:#5D70B5;}
	.st4{fill:#F2B3D1;}
	.st5{fill:#F06BA3;}
	.st6{fill:#8896CC;}
	.st7{fill:#C7D3EC;}
	.st8{fill:#141423;}
	.st9{fill:#191927;}
	.st10{fill:#252534;}
	.st11{fill:#242433;}
</style>
<g>
	<path class="st0" d="M0,2559C0,1721.4,0,883.8,0,46.2c13.2,2.2,26.7,3.7,39.7,6.8c151.6,36.4,303.1,73.2,454.6,109.7
		c434,104.7,868.1,209.3,1302.2,314c65,15.7,129.8,32,196.6,48.4c-22.8,120.1-45,236.4-66.8,352.9
		c-25.5,135.9-50.6,271.9-75.8,407.9c-1.9,5.1-4.7,10.1-5.7,15.4c-34.6,183.4-69,366.9-103.5,550.4
		c-10.7,56.9-21.9,113.7-32.7,169.1c-10.3,3.6-16.5,5.9-22.9,7.9c-541.4,172.1-1082.8,344.3-1624.5,515.9
		C41.4,2550.9,22.7,2563.8,0,2559z M825.3,1465.9c35,22.8,63.5,52.5,92.6,88.9c0-264.6,2.4-522.7-0.9-780.7
		c-2-154.6-164.4-274.2-320.3-241.9c-174,36.1-245.7,191.2-219.5,363.7c11.9,1,23.8,2,37.3,3.1c0,31,0,60.1,0,90.2
		c29.7,12.7,57.9,27.2,93.7,35.3c0-44.2,0-84.6,0-124c104.2,0,204.9,0,317.1,0C825.4,1090.4,825.1,1277.2,825.3,1465.9z
		 M528.3,1610.4c49.3-45.5,102-63,162-51.1C779.7,1577,837,1660,823.1,1748.8c-13.2,83.7-93.1,144-182.2,137.3
		c-87.2-6.5-154.8-79.1-154.1-166.4c0.4-54.9,2.4-109.8,3.1-164.7c0.5-47.3,0.1-94.7,0.1-145.5c-32.1,14.6-60.2,27.3-88.3,40.1
		c-1,16.9-2.2,31.1-2.5,45.2c-1.7,87.8-11,176.4-2.8,263.3c12.2,129.5,128.8,221.4,263.7,220.4c130.7-0.9,237.4-95.3,256-222.3
		c23.5-160.3-72.5-247.5-191.8-283.5c-67.7-20.5-134.9-11.8-196.1,24.2C528.3,1534.1,528.3,1568.2,528.3,1610.4z M579.1,1346.7
		c-101.2-6-189.1,3.3-248,96.5C414,1411,493.1,1380.2,579.1,1346.7z M567,1088.1c-71.4-32.8-142.7-65.8-220.3-88.5
		C399.7,1082.8,479,1096,567,1088.1z"/>
	<path class="st1" d="M4320,2268.8c0,107.7,0,215.5,0,323.2c-1266.8,0-2533.5,0-3800.3,0c96.3-42.1,198-69.6,297.1-103.8
		c197.8-68.4,397.2-132.2,595.1-200.1c40.1-13.8,79.4-19.7,121.4-19.7C2462.3,2268.9,3391.1,2268.8,4320,2268.8z"/>
	<path class="st2" d="M0,2559c22.7,4.7,41.4-8.1,61.2-14.3c541.6-171.6,1083-343.8,1624.5-515.9c6.4-2,12.6-4.4,22.9-7.9
		c10.7-55.5,22-112.3,32.7-169.1c34.6-183.4,68.9-366.9,103.5-550.4c1-5.3,3.7-10.3,5.7-15.4c823.2,0.1,1646.4,0.1,2469.6,0.2
		c0,109.9,0,219.8,0,329.8c-827.2,0-1654.4,0-2483.5,0c-27.9,154.3-55.1,304.6-82.1,453.7c-12.7,4.3-21.1,7.3-29.6,10.1
		c-438.7,142.2-877.4,284.1-1315.9,426.8c-84.8,27.6-171.3,50.8-253.6,85.6c-51.7,0-103.5,0-155.3,0C0,2581,0,2570,0,2559z"/>
	<path class="st3" d="M4320,1286.1c-823.2-0.1-1646.4-0.1-2469.6-0.2c25.3-136,50.4-272,75.8-407.9
		c21.8-116.4,44.1-232.8,66.8-352.9c-66.8-16.5-131.6-32.7-196.6-48.4c-434-104.7-868.1-209.3-1302.2-314
		C342.8,126.1,191.3,89.4,39.7,52.9c-13-3.1-26.5-4.6-39.7-6.8C0,30.8,0,15.4,0,0c56.2,0,112.5,0,168.8,0c2.6,1.9,5,4.9,8,5.6
		C509.4,89.6,842,173.5,1174.8,257.1c265.6,66.7,531.4,132.3,796.6,200.1c31.3,8,65.8,10.4,93.3,29.5
		c-32.3,159.2-64.1,315.6-96.7,476.2c789.6,0,1570.8,0,2352,0C4320,1070.7,4320,1178.4,4320,1286.1z"/>
	<path class="st1" d="M675,0c1215,0,2430,0,3645,0c0,105.5,0,211.1,0,316.6c-788.3,0-1576.5,0-2364.8-0.1c-16.7,0-33.1-0.3-49.9-4.5
		c-322.8-81.5-645.8-162.3-968.7-243.3C849.1,46.8,760.6,28.6,675,0z"/>
	<path class="st4" d="M4320,2268.8c-928.9,0-1857.7,0.1-2786.6-0.4c-42.1,0-81.3,5.9-121.4,19.7
		c-197.9,67.9-397.4,131.7-595.1,200.1c-99.1,34.3-200.8,61.7-297.1,103.8c-60.8,0-121.5,0-182.3,0c26.8-16.5,57.7-23.3,87-33
		c332.4-110.5,665-220.2,997.6-329.9c125.3-41.3,250.8-82.1,377.2-123.4c20.7-53.9,18.8-112.4,39.8-166.7c828.4,0,1654.6,0,2480.9,0
		C4320,2049,4320,2158.9,4320,2268.8z"/>
	<path class="st5" d="M4320,1939.1c-826.2,0-1652.4,0-2480.9,0c-21.1,54.3-19.1,112.7-39.8,166.7
		c-126.4,41.3-251.9,82.1-377.2,123.4c-332.6,109.7-665.3,219.4-997.6,329.9c-29.3,9.8-60.2,16.5-87,33c-60.8,0-121.5,0-182.3,0
		c82.4-34.7,168.8-57.9,253.6-85.6c438.5-142.7,877.2-284.6,1315.9-426.8c8.5-2.7,16.9-5.7,29.6-10.1
		c27-149.1,54.2-299.4,82.1-453.7c829,0,1656.3,0,2483.5,0C4320,1723.6,4320,1831.3,4320,1939.1z"/>
	<path class="st6" d="M4320,962.9c-781.2,0-1562.4,0-2352,0c32.6-160.5,64.4-317,96.7-476.2c-27.5-19.2-62-21.6-93.3-29.5
		c-265.3-67.8-531.1-133.4-796.6-200.1C842,173.5,509.4,89.6,176.7,5.6c-3-0.7-5.3-3.7-8-5.6C252,0,335.3,0,418.5,0
		c4.4,6.3,11.6,5.6,18,7.2C934.3,132.6,1432.1,258,1929.8,383.7c67,16.9,133.7,34.7,201.9,52.5c-13.6,68.6-26.5,134.2-40.2,203.6
		c747,0,1487.8,0,2228.6,0C4320,747.5,4320,855.2,4320,962.9z"/>
	<path class="st7" d="M4320,639.8c-740.8,0-1481.6,0-2228.6,0c13.7-69.4,26.7-134.9,40.2-203.6c-68.2-17.8-134.9-35.6-201.9-52.5
		C1432.1,258,934.3,132.6,436.5,7.2c-6.4-1.6-13.6-0.9-18-7.2C504,0,589.5,0,675,0c85.6,28.6,174.1,46.8,261.6,68.7
		c322.9,81,645.9,161.8,968.7,243.3c16.9,4.3,33.2,4.5,49.9,4.5c788.3,0.1,1576.5,0.1,2364.8,0.1C4320,424.3,4320,532,4320,639.8z"
		/>
	<path class="st8" d="M825.3,1465.9c-0.2-188.7,0.1-375.5-0.2-565.4c-112.2,0-212.8,0-317.1,0c0,39.4,0,79.8,0,124
		c-35.8-8-64-22.6-93.7-35.3c0-30.2,0-59.2,0-90.2c-13.4-1.1-25.4-2.1-37.3-3.1C351,723.4,422.6,568.3,596.6,532.2
		c155.9-32.4,318.3,87.3,320.3,241.9c3.3,258,0.9,516.1,0.9,780.7C888.7,1518.4,860.3,1488.7,825.3,1465.9z"/>
	<path class="st9" d="M528.3,1610.4c0-42.3,0-76.3,0-113.4c61.2-36,128.4-44.7,196.1-24.2c119.2,36,215.3,123.2,191.8,283.5
		c-18.6,126.9-125.3,221.4-256,222.3c-134.9,0.9-251.5-91-263.7-220.4c-8.2-87,1.1-175.5,2.8-263.3c0.3-14.2,1.5-28.4,2.5-45.2
		c28.1-12.8,56.1-25.5,88.3-40.1c0,50.8,0.4,98.2-0.1,145.5c-0.6,54.9-2.6,109.8-3.1,164.7c-0.7,87.3,66.9,159.9,154.1,166.4
		c89.1,6.7,169-53.6,182.2-137.3c14-88.8-43.4-171.8-132.8-189.5C630.3,1547.5,577.6,1564.9,528.3,1610.4z"/>
	<path class="st10" d="M579.1,1346.7c-86,33.5-165.1,64.2-248,96.5C390,1350,477.9,1340.7,579.1,1346.7z"/>
	<path class="st11" d="M567,1088.1c-87.9,7.9-167.3-5.4-220.3-88.5C424.2,1022.3,495.5,1055.4,567,1088.1z"/>
</g>
</svg>
