<?xml version="1.0" encoding="UTF-8" standalone="no"?>
<svg xmlns="http://www.w3.org/2000/svg" width="918" height="612" viewBox="0 0 27 18">
  <path d="M0 0h27v18H0z"/>
  <path d="M0 2h27v2H0zm0 4h27v6H0zm0 8h27v2H0z" fill="#2a2a7f"/>
  <path fill="#fff" d="M0 8h27v2H0z"/>
  <path d="M58 17C52 7 42 0 30 0 13 0 0 13 0 30c0 33 18 38 58 76 40-38 58-43 58-76 0-17-13-30-30-30-12 0-22 7-28 17z" fill="#e70039" stroke="#000" stroke-width=".25" transform="rotate(-38 6.888 .156) scale(.0663 .0674)"/>
</svg>
